<mxfile host="app.diagrams.net" agent="Mozilla/5.0 (Windows NT 10.0; Win64; x64) AppleWebKit/537.36 (KHTML, like Gecko) Chrome/131.0.0.0 Safari/537.36" version="26.0.3">
  <diagram name="Seite-1" id="fqHTWL5ub5_1LAMNyhqH">
    <mxGraphModel dx="1687" dy="908" grid="1" gridSize="10" guides="1" tooltips="1" connect="1" arrows="1" fold="1" page="1" pageScale="1" pageWidth="827" pageHeight="1169" math="0" shadow="0">
      <root>
        <mxCell id="0" />
        <mxCell id="1" parent="0" />
        <mxCell id="9Dmww1gpKmQdiyRFmf3V-1" value="" style="shape=image;verticalLabelPosition=bottom;labelBackgroundColor=default;verticalAlign=top;aspect=fixed;imageAspect=0;image=data:image/png,iVBORw0KGgoAAAANSUhEUgAAAZgAAAHYCAYAAABwY/45AAAAAXNSR0IArs4c6QAAAARnQU1BAACxjwv8YQUAAAAJcEhZcwAAEnQAABJ0Ad5mH3gAAII2SURBVHhe7N0HfBRl/sfxz7b03kkhlRQgoXdFRFGxF6xYsNydemK58veK5+nZzt4bZ8FCFQHphBpqKCGdJKQnpPee7GZ3/7NhVVRAEVaJ/N46L7LPzOzOzM7M93lmZmdUZgVCCCHEaaa2/iuEEEKcVhIwQgghbEICRgghhE1IwAghhLAJCRghhBA2IQEjhBDCJk54mfLh6ibqm9qtr4T45cWE++PoYGd9JYToT04YMI+/sZLq+nbc3RytJUL8cnIKKnnm4SsZFhtsLRFC9CcnDJgn3lzJhNGDGRwVZC0R4pfzxifrmHnZKIbHhVhLhBD9yU8OmK5ufV8nhC2pVCo83J1RKX9LwAjRv/3kgFm3LYMVm1Lwcnex9hXi9Gtq7eDpR67HUwkZCRgh+refHDArN6diMpm4dMpwa18hTq/eXiNPv72cP999KV4eLhIwQvRzJ3WZslqtRqfVSHeSnVZZyiqzSZbfj3RapbMcIhNC/DbI72B+ArOpl/aWeupqa/q6+sZGuntN1r4/ppe6vLU8N+N23lqcTLPBWvw1YxfNDY106I3WAiGE+G2QgPkJelsr2LLwKe6/8RKuuOBy/vr0C+wqarP2/TGWIDJjMplRa763uJVWTUvBWh6/917e2lJkLRRCiN8GCZifQOcRymX3/IWZwyJwMY/ljj//H5Oj3DCbmzm4eglfLPqcNSu+ZM1nH7Fw/mfsK2pAyRMlQMzUZK1lR3oNEVdPIdTfHo3p25ZPS+lO1q5dz8HcDPYnLma+Mv6ihesobuxWIkkIIfo3CZifSK3Rou1rgajR6nRo1CqlAWJC313A0qf+xlsfL6K8xURdxlLefPcdMqoNSr6YlPaLhu6WGrYvfZl3lmykpu3bY2RmVNjp1KjtdH2vLDSW8xCWru+VEEL0XxIwp0Ct8STq3LGEOw9g0MRbuO33dzJj2mgqMpLIKG9FpdYwYOjlzLhuBsMjvaxjfcsjdCIXnD+ZAFdvBk2+lltuu4sZM6YR5mYJHCGE6N8kYE4HjR3Obt44Kbmg1dpjMpvR9/Zae56c5rJs8nIr6Oo7xiaEEP2XBMxPYOxu5uCuRHbkl9Guz2PnhnXkVnf2nYM5tGEnJc215B88oHRpbErOormuigP7dpJ/uIi9KxfxxRdLSStsoLlwPysXz2XZylWUNh+5akzjMpCoEB2FO5bz+dz3ef7//sXHy9JplXwRQvRzEjA/gUplWUxuJFz/Bx78101EOGpRK2VmEzh4D+Wqv/+dayZHYVIWp/fgS/jrn/7COZGuSn8zKo1aCRF/ptz0Dx686SL8XXVKufHIeyqdc+Ao7vm/P3N1QgBqjY5RM+7j3j9Ow18jZ2GEEP3bSf2S3+KKqSP6/hXidDP0GnnyjaX86a7p8kt+IX4DpAUjhBDCJiRghBBC2IQEjBBCCJuQgBFCCGETEjBCCCFsQgJGCCGETUjACCGEsAkJGCGEEDYhASOEEMImJGCEEELYhASMEEIIm5CAEUIIYRMSMEIIIWxCAkYIIYRNSMAIIYSwCQkYIYQQNiEBI4QQwiYkYIQQQtiEBIwQQgibkIARQghhExIwQgghbEICRgghhE1IwAghhLAJCRghhBA2IQEjhBDCJiRghBBC2IQEjBBCCJuQgBFCCGETEjBCCCFsQgJGCCGETUjACCGEsAkJGCGEEDYhASOEEMImJGCEEELYhASMEEIIm5CAEUIIYRMSMEIIIWxCZVZY//6BJ95cyYTRgxkcFcTKzalk5JaREDvQ2leI08toNLJpVzZPPnQdXh4uvPHJOmZeNorhcSHWIYQQ/clPbsEMiw2RcBE2pdFouOrCUbi6OFpLhBD92U9uwQjxS5MWjBD9248GjL+fDxED/awlQvxyFq9OZvbMyRIwQvRTJwyY5RvTOHCwHLXKWiBOyo4dO4mJjcHXx8daIk6GSq1m1jUTCA30spYIIfqTEwaMODWzZ89m5syZjB8/3loihBBnD7lMWQghhE1IwAghhLAJCRghhBA2IQEjhBDCJiRghBBC2IQEjBBCCJuQgBFCCGETEjBCCCFsQgLmTGE20NZYT01NGwb56asQ4jdAAuZM0V3Npvef4u6rX2JPbRsma/H3tVdlkrIvmeTkZNLT09lf0oDeeGTo3rYaMg9/+/p0Meo7qKksoKnLaC0RQogfJwFzpnAM5tLbryXB3Znj3bynsyKNt995jQ8/nsu8uW/z3F/+yF3vbKSxs7evf33GUv65OOmb16dLR3UmX8x7nr3lXdYSIYT4cXIvslPQq7QUTrT4HnnkEW688cYT3otMp9VY/1Ler3oHT9yxifC7B5CxKxuTycygC+/g9ouG4+GgoWjtv3ngKwfee/J+Alx62D3vJZ6sHMH8hy6iMWUdH74zh6W1zkyLD8deqyZu6o3cNP0cvBy6KN6xjoULN1GpUmF282fcVXdw65gQlJe0VRexYu4b7NIP5e5J7izduJeWdgfGXn4DF4bU8MZ7n7Fz3148I89joKcDPiETufkP1xHt/u20CyHE90nAnII5i7ezN7OU491suqiomIAAf5ycnKwl39XVredf919GTLh/3+ve6m38+aonKYsYwfTbrmaoew3J8zagm3o/v782nt76Q6ya9wJr9zXQ0mXCI3QY59/0e24dG0BLVSkpq+fweIYHj159Lv4uOjyDoggP9MFOYyR742b2peTiERNCS00pGaW1XPf7fzIxzIne7g5Kdi3ib68tpqMnkMm338h5kX4MCI3A36Gd5KS1rN6wnKDJf2JiqAv2Tr5EDQ7HVds32UIIcUwSMKfg32+uJD42nEFhAdaSk/O/RVu457rx3zzvxBIw/7rjS+L+9QjXTwjDUW2gctdCXv9Ew+y3rsWpso5OOy1qtQo1Dex6+03m9JzLJ4/NwN/Nnuodb3PXbn8+uvdKAlzt+t7TwnIOZfeyd3h/wQbaVc4Ye9rpcPbnL0+/x/QYlyMDVe7hgTe3cNnl1zJlfDSORzVOWsuSmTv/PQZd89a3wwshxI+QczCnwNJysTze1/L8+J/TOTrojrzRN1SYTJ00trejU5kxm9XU15ZjH+OHv6aBra+8yCufpuLk5q20jIZw4dUTCPJxRG05zvU9huZytqxaR2p5Kw1lmaw9kM4lj33CogXzeOn/bibM74dfvUprj6e3x3fC5ftMvXpyd3zFhh2FdFrLhBDiWKQFcwqefHs1ZVXNSlg4W0u+y2DoRac7/nGknIJKnn7oiiMtmJYS5n/0Kq+/XYDXeDuivIKUsIE6ez9m3XU/0wcbWPrgM3yQnUvEkGilZqChu85Mwu/u454pg5VQUNFesYn//HM+3Y4O6NvN2IcM46bf38Aw12aWvPUMWwq0uLiq6agoZW9tKdFXPM4rv7sYU/563py7jKTMKiIjIwnwHMCQiddw882jcFem09BSzLI5z7A2Q4ujqxIyGmeuuO4+zp8SxbEP/gkhhATMKSmtbKSppcP66odeefVVpl14IfHx8daS71IpLY/oMD+lJWMH+jYKCotpanfA07OJ+nrla1H62/lHMiLUR/lTT31hFfWdtbR0GvuuNFOpPYkcEo6P85HDYWal9VOZfYjDHd2YcSYoKoJAH2c05l6aKksoLq9Hb4kmJSDs7NrocQhiSJi/Em7lZBbV9b3HETq8AsIJD/NS/lIcPb5ai7NvBPHh8pRJIcSJScDYkDzRUghxNpNzMEIIIWxCAkYIIYRNSMAIIYSwCQkYIYQQNiEBI4QQwiYkYIQQQtiEBIwQQgibkIARQghhExIwQgghbEICRgghhE1IwAghhLCJE96L7HB1E/VN7dZX4mS9/PLLXHTRRce92aX4cZaHsfXdDPRnkPVXiFNzKtufxQkD5vE3VlJd3467m6O1RJwMo9HUd8dkywPCxMmzPM7gmYevZFhssLXk5PT39Tczt5yBgT6y/YlfxalufxYnDJgn3lzJhNGDGRwVZC0R4pfzxifrmHnZqG+e+Hmy+vv6+/rcdUw7J162P/GrONXtz0LOwQghhLAJCRghhBA2IQEjhBA/g7mlmA1rkihutDxBVhyLBIw4u5hN9Br0GHqPPHYakxGD5bXS9RpNR4Y5w5mPmuYjnQGT6QzfxVmWez9Zvj9Vb3U6Cz7+gvSariPrkviBMzJgetobqaut6eva29poau7CaO2HsYvmhkY69N+UnB5GPS1N9bR09VoLfoLeLurrjkzn0V1ze491AHFmMdFxeBdvPXgbN9/3J5anVdCcu4Z/PjSLWTdfzZNzlnK42WAd9gxl0lOdvpwnb7ueu26/mfvuuZV7//gAb3+5C/2ZvANvyuPjeUvILWuyFvR/2oHn8ven/8yUSA/kQtFj0zyhsP79A1v3HiIk0BdfLzdrie11V6Wz+L1/8uKHX7Fn+yrSNmzjiw1tDJsej6cShy35q3j8T/8l12sk50R5W8c6DerTeenJh1ldPYCJQ0Jx0P549hoq9vDWG8/w6lPP8+W6zaTs3szGDSvZktFBXEIMXs4///pxAXvSC0iIDiTA191acnJ+uP6qsHNyw66jgE2fLaPSOYgJ504nPtiNzpZ6zr32XuICHJSdxZmxt9iTVkDkQP/vbn8qDS7uLnQUNuIy+Ap+99BdTBniTcaeldTbDyFamZf26nxyDhVSVVlBdXUrdu6eOOrUytyDvqmEg3nFNHcY6G2tpbiwkGqlwqZy9MTF3kBtzkEKykqpqlLGbe/Fw80Vjamb6uJ0CooPU62UNzS009XVoIxbRJvKBXdne9TmHupKCyhQyizjNrR2Yu/i0bcdGTrrKd2zhS+3pmFvb09vZ+N3+psMnd95/6YWcPF2RWf5HpSmQU1hOvmHG9FioLykgPLySlq7VMpyUKatt5Hi7BxKDpf3jVtdVUmLMk3eDkYOlxyiuM6At4cjPc1VFB7M5bDeDm8XHZ315eTnHqKyDaW/CypDG2VFORSXlqNy8sVZZ6C+7Njzg7mXtroy8gsP023Q4Ob17fLto1QCGquKyFW+A8s01be0o+pQ1j0PJ9rKsiiqqEXj4oOup5a8vDxq6ntw9PRA03XkdXVjkzJcCaXKuDWW6XV1RGNNsI6aLPLyS6isa1Hq2g0cLiumwaTMr4sDp3u1PdXtz+KMChizyUDW8kd5eVUFNz32CX++80J0VfWofaMYOS6S3rKdrF21jPUb9tKkrG69tQUczKnBOTAYD20Hh3ZtYsu2HaRnpJKpdPW9Tvj7Kl8kXVQeTGbT+k2kZykrS30eu3fuJCujFqfgAdj3NHFg/TyWJW5TarBGNG2V5GSV0uvkg4+3Mxrr9H2fxi2IhMFu5H+5h6AbHuelJx5kUnArn328iBqldjM1xldpGFWRsnwl21L29U1TTm4nXuEBaFoL2LV5Bbv2pFNWpcIv2J5SJaAs059TXI7aIwSXjkMkJq5n3/6UvnHLOzQE+Plir1XWpK469m5PJGnHbmWFU1bKinLSd20nLbOZsrId7N+bQr1BmX8fT5qLklm17gAGRy/cewtZvTaR3NwccnOyOKBMV0lFFx5BQbjoVH3fQUXWZtZsTCIjPZWWlmb27FaWad5hHN398XJzsM697Z3+gLEw06FsuI3Nfmi0hzE4RzPIT0tZYQ5h464kyPU0b6Wn4JgBo1CZ9VRm5tPhFsWYiTF4KxWZmmxlZ28fTsxAHXnrX+edr9I4XJBNvrLu5HcFEBPnj4PSgqvN3cTH/3ufVUvWknHwIIeylR1eTT0e4cMJdGlh9fNvsC0rnZy8g+xKTUPvFkaIcxfJS57iP8/MITm/hsKdm0lKzSBzXyKbS504b8RAOvM3s+h/C9iTeZDcvFTSU/Yr658vkeE+9NQdZMPni0jKPkR7cx2lRcqOvtVESEQcXo5mivd/xafzPiUrp4iczBwObM+hyyeEsBBPzB3NpH71Bm99soT9uw6QkpfDoYPKvJu9CI8Oobd4Da898RF5lUWkb13M2x9uQT94AucGGNi65E1eWF3H9HNjaTuUzPI5LzOnzJVLhw+kbs9invjv/6g0++PRfIjcgsPs3/Q2Ly1PZ9CoybjXbmPxMedH2V8o+5PS/RtZteILVn60C/dzphDl42jdwVtayRksf+8D1qZlUXgok62rFlNW4EX0lChKN83jo4/n4jTsOgZ0prJ86aesnJ/LwAvOw6PxAF9+8iKvfPYVtQdLOVS2ny2bMwiLH4ufuz0tJUl8Ovc9klNySE1LYe/qV1my5zCmASMYE+7V95u70+k3FzCW2kp3w0F2rt2r7PRKSdtdzMArZnL19GG4KzWE7uZyZUeQRUpGBQ5hQ5TaplLLsfcgaFAEnpYaR3kxFXXNGIxG5cvYyfo127GLnki4r4NSY6ngwLq3efeDT9mn1BI61M5UJa2jxHEQw8K8aCzYw+4DmXS5xTA41A87jRO+wQPxO0HAWNao3q4ydn78BQfqKijISmbr5iTymny47KbrGeJYzpI3X2bxnjoCAtww9VaT/MEX5HR4EjnYnfTFL/H2/9Ix23eQukcJzZI0ZeX7gAPGEMaF9JL48Rvsb3LC3VGHvjaLNWuWU2EXR8IANamr3+XxRcl4+/igakhj1Rvv8GlGHZFR8fjoClk3/w1SOkKZNCoefck2XnnsDdqDxzF0oImtC9/g1XcT6XENxtddRfLCzylVDWJovD+Nez7jNWXjKO4NJtiukq2ffsTHKzZAyHgmJAz6RQNm14FDbFy1kC0bVrN27dqT7g7kVDNp/Kjvrr9K7bOxKJuCukCmT9LylbIjdg32pa0in8ARlzDAxTrcGeB4AYOxk5L9iaxZl8j+tB0kbUymUj2QqVefy0AHE03FqSQX63G1M9Fel0/yPg2TbxiHj1aD64BBxAaoKN5SRuxdD3DnrNuYdt4kQjztMRt1HD64nTqDiV6lPt6Wm0SZYzwXjBtF5AB3slsduf6u+xnpXkqe6jwevy2ezemtTB3my96v5rBwexlu/j7KtqNMQ2Eq27I7GDdxAgMHRjFsWDCHWly59e7Z3HLDtUwclaAEo9Im6Whi/Xt/Y3W+M4E+LkoFp4vago2klqgYNfkc/JTae1jMYHrqC6jSDOGe+//ITddexsihoThplU1Q54Z/3PlKiARRV1BDxLRZzLp6jNKq8iLSU8/2QhMXTBjOgKihSkWijZ2N7lw8cigDgzyUlpGZhIkD2PPaaySbnBkX743LkKu4NsGT5C/fOc78KDt7Tze8w+MZf14MHZvzcTn3HCJ9vw2YHmU/dWD7LurVDtj1dtLZWMqAi+9h0hA//AIj6cxJxD7hWoYo+63BMV7UbShhwPTJRASHEuFYz/bDATzw7ye5/vLzMG3/kPLgS4gPMXJACaZi3yt45OE/csGYSOqyd9AVN4uHrxzb14I63U5HwChf0ZlDpdYQMuE+/v1cPCu+eJMl67aSnpnEirgb+dNzs4gIncgF55ez/Iscgidfyy1XDbaOaTmFolUWcjMZGcoX29xNT1MRB3M1DK9uxjTUn8Chkzl/cjTLduQRffFD/OO2C1A1HqbLKVDZSbvjc8HlDErcxOFhF3LDLZcoO/XjxsoP2bkRGn8+1147nK7mg6j/8xl7ViQSOuIQ85cspMJ9LKreMiU/O6nuLqZo2zKmXv8OEycM48ukFLpa97ByQZqyg4+mx86XK6ZdjCpnHgu/3Inr0A5aipS6Z3czFWWHadu+j6uUcF09fzMxF/yDu++9APeWHAxFWWxvGsoFV53HEIdoSncuY49l2jR2OPvFEuah/K1sAc7+scrKGcUXOe5cdsvdXBRpZHHmByTuSaHuSm+SP1xMkfYC3nzojwQ4djCw9zB7lxYz8pypRAX9/BXt57DUyCy32hk00MtacnI+W5tj/etYnBh4/i1ML/0nK1d0EOfd305AuxMx/EImXzYEZ6WN7u6rtDR8HGgv2MGGjQamXH0dQzzU1GcrlYNEp28P3/TR4Rc2nkljEnA/qr5Qvvtd1vf6cPklk/BxMJPrVUO2q7WnQjUgkAFeSoG7N256pdPVHelhNNHpEMjIy6dy1aRBfTtaU+8NtOFNhJ/zkWGOZjbS2d5Cr8YFXa8RrRIS066/h/NiXPpOChv1N6Jy8GXA0XUZ5wDGKNvY0BDLivw1FfbuwQS47OGzufNxirueOy8fjtbQq2yTyvarVqPT69FbvlqjntaOLksD9gjXCEYMdCB1/xaKB04m2ruIZUu1TLvLHzu1+eTm5zs02HlFMfXu+xnTY0Ld26W0+FaQnHuQxi6ltakMYVaZ+yrBlu+hp6WZnqOvENDY4xqYQIyfgzJ3yj7N0472vuzooatFi1fkADQatVIezpChUZSc5lPRp9vpj71T0kNjaRVqv7H84bkvWLMhkYcv9iY/dwPF1cfeATSXZZOXW0FZ+lJefOZ5emJn8M+nXuSPt15M4NHrYh81DkqNbOLkc5Umpyv+ShM9LMD9exufhbLBKOGTm11IV89POOmv7MR9Bg5mxKhxTDz3ai67JojM7J2U13fj5OLJJTP+wj+ff4PnXvqQV995g0cfuYUoDy0D48bhoi1n44ZUVM5OHMpKo80czcgIy2qowi4ogRv+8C+eUsZ9/pX3ePGVN7l/xmTcnOyUlV6DWllRLcP1dce9jMWMvr1OWbmtL610rk64ujigUUbV2ZswKhug0WhGrdX2dZYbPFh28EaTue+WN78Gyy12LPdxGz9+/M/qfJXW3feZ9U1UlJRRo9SID1Z2MWb6jQw4tIEdpWf4lnqUnrY6Kg43YFR2NCrlP+/QaMJDPNFZjgC0Kq2bDhMuLmpMxl5yszIoqyukrKiKbmM3tTkZHDyYT2VjGTlpe0k9sI/qFn3ffrezqQNXs6PSMlB2zi2HOZBVTmFePnmHq6gqz6Oxooy84mr0+m6aaiuoa+7C3F5JfqWKIfFxuPVUUN925CKJnpoCknbtoaKxo+81Ome8dD0U5hwgdcd6Pnn1X7y/YhedKmdih5+ntCrLlB24hYHm8hT2JO6mwZIHHdVkZWVSUlZOeUEmqSl7OZhTQZf1qrm20v189M7z5LuMJC5Ux4GV7/GfDzZj6DWh8ghhSFsGG3bsJmXzUj5cuF75/IMUKsvOrLQuoodp2bEthcDzL2SEowuF7co2GeKNg9sARg8bfNz56e3ppCxnvxJOGRzurKM4J1WZrkwO17VjMrSTs/YTXvtk75H5UbYvJ6U1FWjvjoMSmBqtCkdvDclJ60jZs5MFn80nubaIspIiWppqyC2soKW6lMKSBprrSjnc0EFlcR61re5EnudNQcEG9u/ZRaoyP4vWp3G4pW/yzlhn1CEyoyGfeffczwsL99Lj3E1VQR57tmbikXAFF18wAi976O1uI2//dvIae+ipPMiyd/9HalMQg4e6Ks3+IkyuDvTUlrF/1y72F5ahcXDGb0AArfnbWLtuHWmHGtA4aqkrzKLh63M0lsaKycDhvG1kK19sb1MxW+bPY92BNhLGDsXLRfngY7BcB79m1TKSNu2hUaujt6WM9NR9ZBxMwzF6GtdfdSWe3S3sXXGANudOKvNzWDP3eb7K72XCORcS4KmjYtsqcg1RXHXb9ThU7adxyE38+fopBA1ww1izhQ1ZjZg6GijLSuLD9+aSa47g8vMS8HCsYcmWXTRUlZG9ayVfzdtAY+g4brjoHKVGp6WxPJXsQqXFU1NFetIW1mfmoLbzI9TfwM6Na9ibW41/1HB823ayfu06cmt1hMSNZ2S8Fwf3LGd3YQv1B9ex8NNVVBicGTf9JkaG/LLHj077ORizUnGozWPX9jRaVI1U9LgwdMhoBoUpgeodx4hhQ3E/9lf9qzjmITJTD01lmaRk5tHcVU1paTnqAQkMCnBRKgRq7Nx98TTtYvu2NHLzcun2jyLWpZdOtTdhEU7krviKHQVV9Dr1UFGQTbHSKnaLGMtApabsNcCf9oMp7Dqwn4NFHfiHDcRN20mDygVTxT5aGozo1V4MC3HgUHkj/kqLRt1WxeFaV8ZcfS6+1QXs3L6d9JwsCsq1jJ92KQmxAUdO1jsp34OhjL27k0jNrcJ78OXMuGoyvsr26jswFFXdTrZsTSbn4EFq9C6Mv+ZWhgbYKwGyh/lfbaGj20BPUzm5OQXUNroTPSpcaYOaaChOJq2oBZUSusUFuZQ2mgiJGcXYwUGoHZRWlkM+u3ftI7ugg4ghw5QdfRdtqgGMjB6Ag05Nl2og516ktM79PdAFBCgVmiHKtqXDIzgEp6r8Y85Pb1MV25d/xNaUMnqUimKrMlxeTi1OA8IJHuCKubOCbCXIS3KzyMnNpUXnzbSbryfMTaMEjNIKcXGheHsSBw7lYogYzmiHbhqV1oyPYzf70vNQ9XRjdAjGsUcZ/3AbXZ2deCvDDY0fj0fNfjZt301WYYdSEaiCgeM5T2nJWObldDsdh8jOqHuRmYxN5G7YSmZd0zeXJds5hjD6oinKl6Pre23uVYInZytJaZV9ta5v+xsoTd7JgfxyunDAw9NyWKWStg5HQoedg2vDftKLvnuJZOCQSUqzOwbnI29Nc8lOdu7Po6Wvtu9J3PhzGDrIV/nqj83YXMTm7XuVmlynteQInbMnCZOmE+Nvj76jkrRVmyjQW1tCOge8hp7PxUMGKDNjpGRfItn1bowcM5Di9GTq3BK4dPQgpYWvrPzVWSQlp9HYpu8bVa1s3EMnT2FwsAfq7jplY91BQYUyT4ZWcrctZ41+Ev974VFGBLvRVZ/HXmV5VDTp0OmCcXIqpq3Nk4hIL4qLivtaJR4RI4iwLycjrx6lwte3PEbFhtJWaF2+yg65PT+RT3fWceczC7l7gn/fdPxS5F5kci8y8V1mo75vW4VWkt/5O/v9buOe687F1c5yJOP0Oh33IpObXfZXlt/ttLaiNxiVllMpKz/4N7sdr+OJh+8k1OMkzh8dg+V3SK2dhr4ryjK/+D/e3eXDQy+8wLlKzfWXJAEjASO+ZTb1krv+GT74KpvWLj1OgWO57Xd/ZFTEsQ7znzq52eXZrLWIZR89xz/+Opt/Pf0ipe4X8NDdNxPsfmrhYupuIXPDe/zrbw/yz0f/wrLsUO78v/9jTNAvGy5CiO9SqbUMmvIgf/vPmzz74vv8+2+zGR7mZpNwOV2kBXMClnMs67fuprG121ryPSoVUeOvZHi4d99FK78sMyajEaPp6xPwKjRa3Wn5RbGlpvTtbT1O3/ueLGnBSAtG/HqkBWNjJiV7NerjLyLLSVWVubfvSqxfngq1RotOZ2ftTl8IWGpKtnhfIcTZRVow4ox1OlowsYNCiYsMtJb0Lx8tSWLCiEH9dvpF//axsv7NunrsKbVgJGDEGetUA+afr31FTlEtrs798/xRcXktPl5u/Xb6Rf92uKqBlx+9TgJG/DadjhbM2BGxxPbTFsBbnyZy4aSh/Xb6Rf9mWf9uv3L0KQWMnIMRv2mW22rotJp+2VnuZNCfp1+6/t1pTsPJZQkYIYQQNiEBI4QQwiYkYIQ4S7SU7mT1ss/YV9TAmf6EZfHbIAEjzi5mA7UHE3nr74/wz789wr+Uf//15NN8mZR7/BtSn0F6u9vZOvcJ/vXog/zLOv0vvPIqqRVH7ld3IpZn+ZfvmcOG7Kq+33idLMv42avfZW9h0y8SUKb2Qla+/iQvvPgy6ZVH5q+3q5VNH/yLf702h31lP3IrYbOR1txEXnz6733L6bEXn2HOc8spstwFuq93Nbv/t4TsivbTOz+9beRt3sLO5BLO9oenS8CIs4wGd79APM1a7JwSuHjGzUyfGEVh8oesya61DnPmUmvtCIkIxY5yQsZfxbVXX02Utpp5nyyj3HrPVcsNEduaaqirPdI1dx255bz7wPGMjPFDbdLT2mDtX9dG79E7V2MXzXVfj9tIl7Wn5SazTfXVHNy7if155dT29W9G/3VQmXvpaGqwjldDY4vyvl/vtS3Pf2lr7Ctv7zHR3lR7ZLiWjhOGusrOi1DfTpYtX8rqjelKCJhoLVzL0oWJVHd4EOnjZB3y2IyNGcx/ewOO0VO56rqbSdDVsHFVEpX6Xoz6DhpqC8nYupOsoooj09PU9s30WOa3ubHOOj91tLR1fRNCljtdtLfUK+WW5dNDq3V5NbV39z3moqPhMLl7d7N/30EqLeM3NNCh7z+Pgzidzrhn8gvxtdN+u34LlQqtVkWDspO0PGr2gkvGEhHoTcOBHOoJITbW77h3z/6lHet2/ZaH8tlpDJRX5BI56S4mxA/C2dhAfp4y7JjJ+DqYKdm3nLnv/ocvvtrIxh272FdjIDIsDE9HDRXpS9ia3UnqyvdZuXYTOzfnKsshlJABHuh6Gtmb+CH/e/UjVm1YzdZ1OynpdiUsIhhtg7Kz/vA1lq7eRObBQxzYmUjS1kq8h8QQ6OVAd+V+Fr3yMvOWLGXDxtXsSM1B5RpBqPK+2p46tn81h/8+9wz7Sto4sGYOy1auYVuVirhBUXg5HXuJq9R2qDvy2JDZyiClQuCaEEnZ0rfJ6PXCJ2Yql48Psw55bMa6Q2zecwiHqFhC3HS4uLngaPQj7rx4dBVJfP6/l1mxcS9Zhens3bae7bkdxMUMwsvyyI/ynbz9+rPK/Kxia+JG0vLa8IyMJsDdDmNLORsXPc/zz3xGbtUhds39nK82ryGvw4WBvq4kz3uaeeuTSM9OJW3fVrbsy0bvP4T4wP61Hz0dt+uXgBFnLJsEjEXfI4e3sTs9l9rGErL2ppLbbc+IC84lyuPM+VHj8R6ZrG+tYN/WJRwsM1CRs5e9Ow/hMuIKJo0MwlSTzhefrCb80kd55IF7uGjyBPRpi9iR70J8/ECq9n7E0jx7rrzvaR65+xaG+jezekkiLsPG4ZL/OR8l1XL+75/m/lk3cdG4QDI2LCPXOYaxg+MYMW4q7g0pDLr1df7v3tu57IqJhHq7oOltZMf81/kqrZv4SecSHRmIsXAna5PrGTlxDD5eXoQNnYh/8wF25dcTfvX/8S9l2i4dPxRvZ3tL5h+Hmc6KDHbW+hPn30ZpZRnZ+f4MG+1CI+FMHTnQOtyxadyCGawMsnNTIlmZ6aTnleAVnsCwkVH4BcQwckICpPRw3j+fY/Zdt3DpeaPwdrc8+liphHTXcqi2B6/AGGJCXCnac4A6p0hGJgTi6ODBoBFD0aXtIaPGzMQ//puHf3875w6PwcvDnegRo/FsVRM88TYeeewBrpk2lSFBHqiPP6NnpNMRMHKITJzVLJu81sWXKZOvYGzfc6X7l15DLaV5rYQrtXs3TBg6qjB4nMdlk2L77iXn7OnFmAmTcMk+RJ1e2ek6ujHyoplcOTwEO3tHghPOYVKUErQNJprqi4iccDkTB3lib2eHY/AIzld25qmFVZjNR256qlWr+g7T6ZT+GmXvYXniKd1d1BgccAuPwtfN0s+NiEnXcM21U/C2Pnrccn87O3t7xl12J3edNxgHe2U4rfbbcDGblHkxYDD09p0fOZrWJZDRkT4UrPkK/ehYQt0crX1OrDbrS3a2BDD77//lqede5bH7p9KwaQv5tZ3KZyjzo9OhUan7/rXcc0+jMh951kpvK7n7s6ks78HZyQ6tgwOezq64fnNjWWXHqdFibx/ClBn3cdmokL7lZfntiGV+LMtHq8ybxnqvQK1GWQbKuN+fr7OBBIw461geedvRqSM4dgJTLr6MK2+4kfPGh/PTdlu/NqVW39qE2TmAYZOu4sY7H+TuWYPIm/suyaVdaN1i8DNuY0vWkfMKNYfLyCkqon3SKKW8iabGFko3fszGtMPU1VRRsnczO0vGMSjUCf/Q8ZTnZFNeWto3bm11Btl7dEyNCVXC5EgS2Ds6fnMOJXnFB7z6vyXU97ozdOhwIvxdiRt3EdOUZXru8Cg6mg7T2NaNqffIOZ+WTj2dzbXU133vHI1FUx4fPHsft9/6d7YWNPed7zD1tFPf3IFeCTDPYedzz2PPc8/YQHq7O5Rl0Ebnj5zXaC7eybJ33lHmtYCamhq6TS54jRxBhIu99QauWhxcUKbNMj+H2PLRS7zwSSL1Tc3k5xZj8E1g6qWXMX7USDTtpcq0tPSdkzLqO2muradN30Vb45Fl0dzaroRt38cq1ErImulqraeuWml1bf2EN154m/SK7z23/Cwgh8jEGcsmh8iM3VRmbmb5irVkFR4gZX8Ker9hxAW6nXGHMI51iKy7pZ6tC99iU0oF+RltBAwfwcjhg2goSGJhVisj4ocSpDvMl3M+7DuPsnnzLhoNCVx3x1Tads5jdXI5bj4BFCVaTpyvJ61Iw5Tb72RsqBsOHqHoShfz6fwvWbd2LVu27kY79hpmnD8UZ52qr3Zub27miwXz2LRuJWkM4vorLyEy0AvfgX507dvM4oXzWbdxLVt31hA1YRpjhoXSU5XHF2/9k9Vp1ZTnp7M7KZEDpa0ED0rAz0V7ZMY6a9mTvJuKZldGT5tCmKcdrYcS+XjxWkoPZVCtd2b4hClUbniLLzbuo6KoWWlhRRMW6nXcc2YdtdnU1NWyc8tGtirLImlnKiEXzGDC0GAsTxhWqZyVKMhm8RcL2LhuI/X+45hx+VRCA/zwcG4gbcsnrFyZyI6Mg/Q46OgsrMRpUAwurWnMe+oNttcepjh/Hzu3ridPaR6GxY2g7wirxglHu8Ps3vQxy1duIr/eyLkzfs/IMPe+FmB/cToOkcm9yMQZ63Tci+yY66/lcEzvt4diVJojh37ONMd7HoylRWDsm3jLrWS0fbeU6XuGj1KD1iqvVXx3/pQ9Hlqd5TCNEaNRqfWrj/x9pP93n/fz3WcBKX3VWuU9jzrQoSw7g/LefVTqI5/39bjKe/cq73uESpkuy+1GjoxrVKb56AbL9z/X0jI78nwj87flfd+TZTotIx4ZXtU3n5bp++77H4vZbFTe06R87rcf/IP5UabXYFkmFiplOWmOHOayXE5mNBq+nWZLofK35dBY36FBg9LP2uuI783P98bXaO2Omtf+4VS3P4vjfztC/FZZdozfPO/Grl/VKi36zoH0TbuyQ7NOe98zfL4+p/G9+dMp4XKk2BI0R84JfNv/6J289X2+6WcZ9nu7COW9v+l/9DkUhUp532/H1X1n52/ZwX7b70j/7y72r59vdFR533xYzo98O7yqbxjLa6XlowSIwaA/ZtdrCQ0lMCw7/aM/9wfzoyyTb/pbz6H0Uf74zjT3vY8yT30Tp/T7uvyb7nvz873xvzuvZw8JGCFE/9NdzbaP/8tf7rmV+4/RPf3aHAqbrMOKX40EjBCi/7H3Z8JNs/nXi5bn0/+wm33XTQyUU8e/OgkYIUT/o1Lj4OqBj58/vsfovD09sTtyhbT4FUnAiN80Q6+x33aWc9PHKpdOul+iO/7lXz+dXEUmzlinehXLix8mkppzGAf7M+XmLyensrYZL3fnfjv9on+rbWjlmYevYlhssLXk5EnAiDPWqQZMR5eeTqUTQvwMKvBwccRyFeLPJQEjzlin4zp8IcSvR87BCCGEsAkJGCGEEDYhASOEEMImJGCEEELYhASMEEIIm5CAEUIIYRMSMEIIIWxCAkYIIYRNSMAIIYSwCQkYIYQQNiEBI4QQwiYkYIQQQtiEBIwQQgibkIARQghhEz96u35/Px8iBvpZS4T45SxenczsmZPldv1C9FMnDJjlG9M4cLActcpaIE7Kjh07iYmNwdfHx1oiToZKrWbWNRMIDfSylggh+pMTBow4NbNnz2bmzJmMHz/eWiKEEGcPOQcjhBDCJiRghBBC2IQEjBBCCJuQgBFCCGETEjBCCCFsQgJGCCGETUjACCGEsAkJGCGEEDYhAfMbYDLqaWmspqGtC/nV7G+Tobud+tpqqqtraGzrsZYKcWaTX/Lb0Mn+kr+tpoSCsmp6jNYChW9EPGE+zmhOUBXoqM7is1dms9nuep595B6ivO2sfX667tZ6GjqM+Pr5Y6exFtqUgcaSYoqrG5W/vuZORHwkPs52P17zMXRQUlxEdWMHaDTY2XswwD8AP39XNBjpqK+ntccO30BPtCd1qyMzLXVlNKh9ifB2spb9uvQd9Wxb+CnzEzfRaPbCe9A5/N+DM4nxd7EOIcSZSfOEwvq3OM3Wrl1LQkICwcHB1pITK927mnee+yOfbK+gprSArN1rWJtmIHb4YHxdtBxvP2nn4keAUyeFja3Ex49XdtBaa5+frnDLfJbsKiA8bgTu9tZCm2one/VnPPPHF9haUUVpQQ4HtuwlrcedsbGBOGhPkHLGLsp3reH1OV+QnJFFyr5tLHh3FV2ecQwbEYS98t6p8xeQuL+bqNFRnMziMHY1s2nZayysDeeS2NNzDzl9Ww37tyxmzeZ9pKSkfNMdOJBKjRJkIT5uaDXH+3Z7aanMYOv+Zi7+49+5f8b5NO3/lLUt0VySEGAdRogzkwTMKeg1mjCaTJhM5mN269avJ27wYAIDg47Z39Jp1N/W1T0HxuLeloRp8hM8/8gsLp40gkOrPqY9eioJA5wx9/ZwcMOrvPb+QpavXMu6wnYiI8LxdtbRXpXK3pIWOnKSWbjoC75amUq7UyDh4V7olFq5saOSLfM+4r2P5rFizRZyKlWExUXgQjeZGz/ixfcWsjMlk4zU/WxK3EVZizuD4pUdvUnP4dS1vPP82yxavYbEzVtpdIokNsgDjcpMe/4mnnrxbXbmVNNRcZB5H8/hy6Q0WtwjiQ90tc7ZsTjgH+tNc1Izk594ikdmXcvUcTq2zdmO/5hRDPBwQHW8fW5XHevmLaLIcxqPPXY/V52TQG9eDvrABEYO8SB16bO8Pncde7KySE3bxcakfbRoA4kP98Zs6CIj8QOee+sz1qxZw+atBThHxRKkfB7tBSx59U0+X76GlPQ8DiZvYePW7aiCRimtSEdUyrLITnzl2+W/rhDHyAiCvJUWpnXSjsXU201VaQ41rd89WGC5madnYBiRAcqyPO4dZdU4eoQwdtJIgt3sMCrvlXdgG5Vuo5g+bIB1GCHOTBIwp+CDJTuYs3gHa5KyWH2MLr9ST+7hThJ35R2z/5L1BxgyKBAfzyOHOsxmI+Upi8gwJJAQ4Eh1djKbDhgYPv18oj3V7PvyfT5KqmPKRVcwfsxIdBU7WZRcx/CEWNT1aSz8/BP2MIwbrriEEYFmti5LpHlALNFu7SR+9iJfHHLk4suVcQcHUJOaRGKZjlHxoXi6uKDubKTHaQCXXXMDE0cNYXBcOH7KTrenZjef/GcObUOmM2lEJAM8O9n12RrawsYQH6xMt8ZBCa9mtn7+EsuqPbn4kkuZMnYYceEheDieuOlgNtaTsigZQ0IcAY5GOisL2HJYx7lTRigtNp11qGPQ2OPrpSFt91I++vBTlm/cg2bQ+cy6YRK+bvY4Oekw1nagdo/nylsuY+ywIcRFheLhojTNertoyN/BQe1IJieE49l5iMWbOhl+QSxeWh0OLm60d1XRHXUp9145ua8FOigyHDd7FbX7F/HUohwSRk5kaFw03j15LFicSeD4EYQon3u8iFBptLj5hBAZFUNMzFFddDShQQE42/+EY5LdVayf8ypPv/k5Gc4JPHzjRQxQPlOIM5mcgzkF/35zJfGx4QwK+3mHKv63aAv3XDf+m+edWE7Wb3l5Cn9e6UCotyNtpc5c8PdHeeC6kbh3FTDn3SSGnX8hY0eH9e3MulsO8PasxQx+5lHiW7/gb8sPcvsd/2BanB8YDaTMf5CV2hncM8qJbRsXEDDtWaZEuii1ZTONact4aE0VD91+B6OVoMhbO4dl+XDLrN8z0K1vciwJQPW217novk8JCA/D2U6lhKBB2QE7ctl9/+aRq4f2DVabm8yncz9iyB0vckG0K3YnOmF0FKM+m5en3MdKBze83XRoNcFccv9sbpsSzYn2uUZ9B/W15ei13krrzEhHdQafvfYxTlP/xL23jcFN1cqeOXPZ1TiImY9Mx++o/bC5vYxVbz/PC0mV+CjlpvZGGvVX8t6Ghxlip8HY1cSaBc+w3v1u3rouzjrWETveup9H56fj5euLVmlxmJTWkF7tyZ1Pv8OMeM/jPtbCco5s4ftPsiqt11pyhEqjY8zNf2X25aNwsf+RZaZ8F11trdRWlbN4/vv0DJrFn28eg+Mvcr5MiJ/np+0JxDFZ9ieuLo54ebj8rM7R4Ye1dDtXHy578CUWLPyYZx8ZQfvWVRSUtWPSuuKuaaShx4TBehGAsbWB6gA/XJQau2Va3FrLaWo39vVX9TRRXOlIYIAPzs4uGEyO9PT0Wi8WMNDRbMBfo0zDMc7odzXVkLR+DbnlLWh9E5h06Q08+9bHLFq0iEULF/Hufx9gZISndegjNDp7vNzdfxgupl5qcncoLY0FbE0rp9tkLe+jxtVnDA++9CELlfeev+AV7jx/0AnDxaKjOpO5r/6VVRktePgFEBk/hinnKK2XHr2yUKwDfcNEW00u65ZvILemjcaDW1m6YwD/nTtPmZf5/PPWyQx00By79aHUvZoLdrFyTTKVnSb8gkMYqQTiCx983je9i7/8lGfuuIZYjxO0thTOAUO585/K51mW31Hdwvmf85erfyRc+pbfPqWVnEuPoychkZFMCHenYVsW1d/NKyHOONKCOQVPvr2asqpmJSycrSXfZTD0otMd/zBRTkElTz90xTctmIIt83jxlac5YL6Au265k5tuCOPQ+8/yfL4PM267gymGjbw7dzctGi1mZZ/UVWsieOZd3DvSnZWvzubz1GoCPEfhH+CIuUuPwWc8dz80g1F+avat/4SFa3fTq/ZQPsmA3uDC+dfcy1UXRvXVgpuz1vH8nIVU9biis9eh9o/lkdtvINJXxe6Fz7F4fRMqHzul1m5UOm/On30v1ycEkLLkNT5bv4+0rDwChpzDAC8nJl7/ANeNCT5yXkHfxt55/+CCB9Zx47/f5NmHLrG2KFpImfcezz69lJ7RIwgbPJybbrqZc5Sd549pLd/Le4/dweqm8UQprS8nujE6BXHTrIeZPPTI/JUnLeONT9bS6OCIg0aPc/DF3DVrOgPas3nmieep9QjE2WSipDyH2ixnLn9Maf3MnIqfuoP0De/w0pxsPIJc6KzWEH75Fdx90wX4dRYx/90PSGrowLFX2WxMzZjtE7j1wQcYH+Z43ENkp0Rp1dZnbeSVj9ZQ3qPC1dRDR71JWf6PcoMSxmfGdW5CHJsEzCkorWykqaXD+uqHXnn1VaZdeCHx8fHWku9SqVREh/kpLZkjlxW3VBZQVFFPj1GHV0A44WGemJsrSS2qxz8shlCXHopzi6jr7On7vYtK7UnkkHA8NAZK8jLptPdA29FBm8Gg9LdXxokkxN+t7zJdy5VMhUXFtHT1fRT27r5Ehofj5mCtPStBUFBYRL1lAJ0DAeGxhHk5KD1MfZfJFmYWKZFgocHBOZjY+AHYm03UF2dTVNdhqez3UWvt8I0YQriX9biUyXLJcAmZRa3fmR7lA6kvKKS0vuXIZcrOXkRFhOPjfOLWgIXlEFnt4UNUNZvR65VWi8LZK4AIy2E86+iWQ12W+W1s06Oxd2Jg1GD8XbV9hyHrS1KVaVYmWFn+aicnnJXlqfYJITzcHwf10fOrQmfnT8yIUFwsVxwoM9lRX0xWUZ3yp1kZXY1HSAzRge62CZevKdNcU15IcbXlG/h2+Vu+HSHOZBIwNiRPtBRCnM0kYGxIAuZnMBtpKs1gy6YU6o3fOWHTx3KuZ9S060gIcjnuSXUhxJnhBGcXhfg1mCw/zO87BHUsGq0Olcbu+L+REUKcMaQFY0PSghFCnM2kBSOEEMImJGCEEELYhASMEEIIm5CAEUIIYRMSMEIIIWxCAkYIIYRNSMAIIYSwCQkYIYQQNnHCH1oerm6ivqnd+kqcrJdffpmLLrrouDe7FD8uJtz/m5uBCiH6lxMGzONvrKS6vh13N0driTgZRqOp747Jarlp1s9ieZzBMw9fybDYYGuJEKI/OWHAPPHmSiaMHszgqCBriRC/nDc+WcfMy0Z987wcIUT/IudghBBC2IQEjBBCCJuQgBFCCGETEjBCCCFsQgLG2EVzXQ11tUe69h4T7U2137yuaz/y/PtT0dPeSHNrO8d4QKMQQvxmnd0BYzbRWpbMuw/dxNVXTmf2Iw/zReJuVr//D/50zzVce8VVPL0widauXusIJ8/Y3cyuz/7Eg/9+gdwGa6EQQpwFNE8orH//wNa9hwgJ9MXXy81a8hujUmHv7I1DZwbLStz43b334NZ5GJe48xnr1siuw4E88ofrcW3LYtW6jWSkp5KZkUZJRRceQUG46EBfk8nKtYkcOFBEXV0uqSm7Sc0qoEvjRaCPkYOrlrN+wwr25DegMvdSdiiD6i4XwgI9+9K9JnsFiZt3kZqqvHdmGl1OA/F1VVGTk8ym9ZtIqyinbF8y+9MOUN/rhL+vDzrNkcn/rduTXkBCdCABvu7WEiFEfyKHyNQaXD29sO/uIW3D57z25F944YX57CutwhwciIuLAxqMGPQ9Sqens7WZ9e+/yOfLDtBqNtNrNNNUkc8XrzzMPx79Myv3HCJv5xe8//mXlDebQWdHr/IOlh9cfv15RrNKWfBm8rfO49VnF5JR3YJeee+qAwt4679/ISmvCVN3NTvmvc5///U2GYdbaS7dyeevPcPG7Br0cqhNCNEPSMBodLgEhBPRkc+BHXvp1KtpzUtk075i/Px8cHF2w4QKfdk6kpI2s2tXEtm5GWQdKKFLpcYpcBhXXnY5ER4dhEy8ndkP/oNHH/8vf73rCnxcPIm7YDrnDg/CKziGi6+7i1tuuZVLxkeias5j2eIPWX4gl7wDu9i5bTOp+Y0UK++9JrMa/+h4YsMDcR9xMTN+9wdmzrgap7Y0UvIOYzBap10IIc5gEjAqOxy9YvDTlZJf3sa5v3uYc7y6KMgrwdHBCUN7KYue/T+21Mdx37/e5J8P38OwUE80P7j7yyDiR00jKsQNJ58IYiNDcdJZex3FrG+k6GA2pQ3tfeHmMeZ87v/rCzzz4pu8+MZHPPOfp7ludAhay+1llP/Vnp64K++j0dopjZ9eDEq6HP/eC0IIceaQgFFotDocXUyY/acwefIlXDxjKC7mQPx9AnG068TFaSCOPWbydq1gReI2iusbOZy/leT9uZSkfcXqtasoamzk0L51LPn8Y1au2UVN55HjWColRHwGJuDens/6JR/wwWuP8/hT75LaGcy1M27nAtVmlq5YyYZ1q1nxycs88fjbbMor5bDSksktrqajMJlt6TnkZO6npKador1rSS9twCQhI4Q4w53dJ/mtNPYO+IaEM+Kiyzl3WAwR0SOIGjSSceeOJiw4mEHDo3Ey6+lRa/CKnMS1FyYQHBaAj28QLrRQ16EjbsI5DAr2RIsGnb0XIVEDcdaqlICxwyskgYEeur5DbXYeoYybfj2XjRqIV+gQBkcPxNRj6LsU2t4rnImTr+HaS4ZCaysa30GMSojC1X8gPvbgEzmeweEBeIfEEOTpYGng/KbJSX4h+je52aU4Y8nNLoXo3+QQmRBCCJuQgBFCCGETEjBCCCFsQgJGCCGETUjACCGEsAkJGCGEEDYhASOEEMImJGCEEELYhASMEEIIm5CAEUIIYRMSMEIIIWxCAkYIIYRNSMAIIYSwCQkYIYQQNiEBI4QQwiYkYIQQQtiEBIwQQgibkIARQghhExIwQgghbEICRgghhE1IwAghhLAJCRghhBA2IQEjhBDCJiRghBBC2IQEjBBCCJuQgBFCCGETEjBCCCFsQgJGCCGETUjACCGEsAkJGCGEEDYhASOEEMImJGCEEELYhASMEEIIm5CAEUIIYRMSMEIIIWxCAkYIIYRNSMAIIYSwCQkYIYQQNiEBI4QQwiYkYIQQQtiEyqyw/v0DT7y5En8/HyIG+llLhPjlLF6dzOyZkxkeF2ItEUL0JycMmOUb0zhwsBy1ylogTsqOHTuJiY3B18fHWiJOhkqtZtY1EwgN9LKWCCH6kxMGjDg1s2fPZubMmYwfP95aIoQQZw85ByOEEMImJGCEEELYhASMEEIIm5CAEUIIYRMSMEIIIWxCAkYIIYRNSMAIIYSwCQkYIYQQNiEB8xtgMuppaaymoa0L+dXsb1kvbTU1NLX1WF8LcWaTgDmDtNWUkLovmeTkb7vC2g6MJusAx9FVd4gF/72Z+57/mMIGvbX05HS31lNRVYPeaC2wOQONJYdIOWpek5NzqO3Q8yOze4Shg5JDmUfG27ePAxn5VNW0cWTyjXTU11BV0UTvSSeumZa6UooaOq2vzxzN5Tt4btZM7v3vKvS9P2kpCfGr0jyhsP4tTrO1a9eSkJBAcHCwteTESveu5p3n/sgn2yuoKS0ga/ca1qYZiB0+GF8XLce7JZydix8BTp0UNrYSHz8eH2ettc9PV7hlPkt2FRAeNwJ3e2uhTbWTvfoznvnjC2ytqKK0IIcDW/aS1uPO2NhAHLQa63DHYOyifNcaXp/zBckZWaTs28aCd1fR5RnHsBFB2CvvnTp/AYn7u4kaHcXJLA5jVzOblr3GwtpwLok9PfeQ07fVsH/LYtZs3kdKSso33YEDqdSofQnxcUOrOfEN/wzN5Xz+wrvsaaik0WMMt04bgkZuEijOcBIwp6BXaVoYTSZMJvMxu3Xr1xM3eDCBgUHH7G/pNOpvG5GeA2Nxb0vCNPkJnn9kFhdPGsGhVR/THj2VhAHOmHt7OLjhVV57fyHLV65lXWE7kRHheDvraK9KZW9JCx05ySxc9AVfrUyl3SmQ8HAvdEqt3NhRyZZ5H/HeR/NYsWYLOZUqwuIicKGbzI0f8eJ7C9mZkklG6n42Je6irMWdQfHKjt6k53DqWt55/m0WrV5D4uatNDpFEhvkgUZlpj1/E0+9+DY7c6rpqDjIvI/n8GVSGi3ukcQHulrn7Fgc8I/1pjmpmclPPMUjs65l6jgd2+Zsx3/MKAZ4OKA63v6zq4518xZR5DmNxx67n6vOSaA3Lwd9YAIjh3iQuvRZXp+7jj1ZWaSm7WJj0j5atIHEh3tjNnSRkfgBz731GWvWrGHz1gKco2IJUj6P9gKWvPomny9fQ0p6HgeTt7Bx63ZUQaMI83FEpSyL7MRXvl3+6wpxjIwgyNuZE8Qhpt5uqkpzqGn9bnPKcjNPz8AwIgOUZXmCsDDrm0lfuYStpf5cc1kE2U1+3DAlVgJGnPEkYE7BB0t2MGfxDtYkZbH6GF1+pZ7cw50k7so7Zv8l6w8wZFAgPp4ufe9nNhspT1lEhiGBhABHqrOT2XTAwPDp5xPtqWbfl+/zUVIdUy66gvFjRqKr2Mmi5DqGJ8Sirk9j4eefsIdh3HDFJYwINLN1WSLNA2KJdmsn8bMX+eKQIxdfrow7OICa1CQSy3SMig/F08UFdWcjPU4DuOyaG5g4agiD48LxU3a6PTW7+eQ/c2gbMp1JIyIZ4NnJrs/W0BY2hvhgZbo1Dkp4NbP185dYVu3JxZdcypSxw4gLD8HD8cRNB7OxnpRFyRgS4ghwNNJZWcCWwzrOnTJCabHprEMdg8YeXy8NabuX8tGHn7J84x40g85n1g2T8HWzx8lJh7G2A7V7PFfechljhw0hLioUDxeladbbRUP+Dg5qRzI5IRzPzkMs3tTJ8Ati8dLqcHBxo72riu6oS7n3ysl9LdBBkeG42auo3b+IpxblkDByIkPjovHuyWPB4kwCx48gRPnc4+3uVRotbj4hREbFEBNzVBcdTWhQAM72J4onA1UZa3j/9USiZtxArLaUjQU6Lj8nDkf7k2+pCvFLkrspn4J/v7mS+NhwBoUFWEtOzv8WbeGe68Z/87wTy8n6LS9P4c8rHQj1dqSt1JkL/v4oD1w3EveuAua8m8Sw8y9k7Oiwvp1Zd8sB3p61mMHPPEp86xf8bflBbr/jH0yL8wOjgZT5D7JSO4N7RjmxbeMCAqY9y5RIF6Xma6YxbRkPraniodvvYLQSFHlr57AsH26Z9XsGuvVNjiUBqN72Ohfd9ykB4WE426mUEDQoO2BHLrvv3zxy9dC+wWpzk/l07kcMueNFLoh2xU7z007tGfXZvDzlPlY6uOHtpkOrCeaS+2dz25RoTrTPNeo7qK8tR6/1VlpnRjqqM/jstY9xmvon7r1tDG6qVvbMmcuuxkHMfGQ6fkcd8jO3l7Hq7ed5IakSH6Xc1N5Io/5K3tvwMEPsNBi7mliz4BnWu9/NW9fFWcc6Ysdb9/Po/HS8fH3RKq0Hk9Ia0qs9ufPpd5gR73ncx1p0VGex8P0nWZXWay05QqXRMebmvzL78lG42B9nmRm7KElezH8em0ulsxv27SXsbA7n2Wef5feXDrYOJMSZSU7ynwLL/sTVxREvD5ef1Tk6/LCWbufqw2UPvsSChR/z7CMjaN+6ioKydkxaV9w1jTT0mDBYT8QbWxuoDvDDRamxW6bFrbWcpnZjX39VTxPFlY4EBvjg7OyCweRIT0+vEi6WMQ10NBvw1yjToOxUv6+rqYak9WvILW9B65vApEtv4Nm3PmbRokUsWriId//7ACMjPK1DH6HR2ePl7v7DcDH1UpO7Q2lpLGBrWjnd3zk3rcbVZwwPvvQhC5X3nr/gFe48f9AJw8WiozqTua/+lVUZLXj4BRAZP4Yp5yitlx69slCsA33DRFtNLuuWbyC3po3Gg1tZumMA/507T5mX+fzz1skMdNAcu/Wh1L2aC3axck0ylZ0m/IJDGKkE4gsffN43vYu//JRn7riGWI8TtLYUzgFDufOfyudZlt9R3cL5n/OXq08QLhYaR8Im3sb769ez4suFvPn47zj30pnMnBptHUCIM5e0YE7Bk2+vpqyqWQkLZ2vJdxkMveh0xz+MkVNQydMPXfFNC6ZgyzxefOVpDpgv4K5b7uSmG8I49P6zPJ/vw4zb7mCKYSPvzt1Ni0aLWdknddWaCJ55F/eOdGflq7P5PLWaAM9R+Ac4Yu7SY/AZz90PzWCUn5p96z9h4drd9Ko9lE8yoDe4cP4193LVhVE4Kjv05qx1PD9nIVU9rujsdaj9Y3nk9huI9FWxe+FzLF7fhMrHTqm1G5XOm/Nn38v1CQGkLHmNz9bvIy0rj4Ah5zDAy4mJ1z/AdWOCj5wj0Lexd94/uOCBddz47zd59qFLrC2KFlLmvcezTy+lZ/QIwgYP56abbuaccHdLzxNqLd/Le4/dweqm8UQprS8nujE6BXHTrIeZPPTI/JUnLeONT9bS6OCIg0aPc/DF3DVrOgPas3nmieep9QjE2WSipDyH2ixnLn9Maf3MnIqfuoP0De/w0pxsPIJc6KzWEH75Fdx90wX4dRYx/90PSGrowNFyeZqpGbN9Arc++ADjwxyPe4jsdCnYuoD3P/yQL8tCeOrff5eQEWc8CZhTUFrZSFNLh/XVD73y6qtMu/BC4uPjrSXfpVKpiA7zU1oydn2vWyoLKKqop8eowysgnPAwT8zNlaQW1eMfFkOoSw/FuUXUdfb0/d5FpfYkckg4HhoDJXmZdNp7oO3ooM1gUPrbK+NEEuLvhrZvP19DYVExLV19H4W9uy+R4eG4OVhrz0oQFBQWUW8ZQOdAQHgsYV4OSg8T+o56CjOLlEiw0ODgHExs/ADszSbqi7MpquuwVPb7qLV2+EYMIdzLelzKZLlkuITMotbvTI/ygdQXFFJa36LEgcLZi6iIcHycT9wasLAcIqs9fIiqZjN6/ZHLsp29AoiwHMazjm451GWZ38Y2PRp7JwZGDcbfVdt3GLK+JFWZZmWCleWvdnLCWVmeap8QwsP9cVAfPb8qdHb+xIwIxcVyxYEykx31xWQV1Sl/mpXR1XiExBAd6G7zcLH4Zv1QvtuAgVGE+Z/oIgohfn0SMDYkT7QUQpzNJGBsSALmZzAbaSrNYMumFOqP8QtTy7meUdOuIyHI5bgn1YUQZ4YTnF0U4tdgQqOxHI06dr1Ho9Wh0tgd/zcyQogzhrRgbEhaMEKIs5m0YIQQQtiEBIwQQgibkIARQghhExIwQgghbEICRgghhE1IwAghhLAJCRghhBA2IQEjhBDCJk74Q8vD1U3UN7VbX4mT9fLLL3PRRRcd92aX4sfFhPt/czPQkyXrrxCn5lS2P4sTBszjb6ykur4ddzdHa4k4GUajqe+OyWq5adbPYnmcwTMPX8mw2GBrycnp7+tvZm45AwN9ZPsTv4pT3f4sThgwT7y5kgmjBzM4KshaIsQv541P1jHzslHfPC/nZPX39ff1ueuYdk68bH/iV3Gq25+FnIMRQghhExIwQgghbEICRgghhE1IwIizjtlkxGDQH9UZMJn6z1MrjL1HT7vS9fZ+88jqE6nL/IK3Xvg/lu8vx/gz59ekfPYvtqjMJnqPMX99899r/JF5NivDGb67nAzK+1j72pYZk9GoLKdfakGduSRgvs/YRXNdDXW1R3UNDXTojdYBbEvfXktTUxu9P3yYozgdTHqq05fz5G3Xc9ftN3PfPbdy7x8f4O0vd6E/xhM0zzT6jibWvf4Ad8+8it/dNZP7len/y1/+zIac1h/d8TsHJDCATA7VtPysHa3Z2Mve+f9hQ1Ytxl9g32lsPcQX/7mf+++fzZaCzr4yfWsVi568nbv+9gxb8hv7yo6pu5ptHz/F/Vdfwd133dq3nO674298mVyM3jqIzRiaSVu6lNVrDnJkqs9emicU1r9/YOveQ4QE+uLr5WYt+Y1Takytpbv435P/4eVXXmJ54laSd25i9fo1pHb6MDwyCGc7jXXg089s1LP/s9/xzAeHCDv3XAY4nd35vye9gIToQAJ83a0lJ+eY669Kg4u7Cx2FjbgMvoLfPXQXU4Z4k7FnJfX2Q4gJdudMuah8T1oBkQP9vzP9GjsHPN01NLSWMuGmp5l1zQX4dBWxZkcx0aNH4WmvZKihk+ridAqKD1NdVUmLygVvFwd0Dm60F6ygUDuOgeYqSsorqK7uwdnbDXvNkXXNrG+kODuHksPlyrjKDtzZA2d7rVLeSml+FttXLaREFYpTbyM1VW3YebjhqNOgMnVTV1pAQWERVVUVyvR1Yu/igYNWeV8l1Burisg9VIhe50Fn5UEKSsqobu/Fw80VnfWzv0+tc8G1O5t3lu3C2TmaMSNDaUz7lI8+3YPP2Bu57cIhxx0XjTN+4a7UJVYw/P5HufOma4lzO8CyNYcZMS4BN0cdve015OXlcfiwZTnV0qNyxEVZTl//qqCjrpRD+YeoqFDmp76W1l4dzk6OaNUmOhsrKTyYS7kyr9V1DfToXPFw0ikL0EzNoWS2rt5CQbMRB2c9DUf370dOdfuzkIA5mkqFvedAIiMDyUvcQfTMp/nXo3czwrmWj/63CG34BBLCvZQKSg37N37Jtj0HyMxIo6SiC4+gIFx0KiWjDFRkbWbNxiQy0lO/11+pgdVksnJtIgcOpPT1y+tyJszPA52pjdydG1mzYgm7sptQ2xk4nJv+bf/jbUi/YTYJGIXKrKcyM58OtyjGTIzB29mOmuwi2uzDiYv2RWsd7td2rIBRpl7Z2TcrO/I0AhKuY/BAb3oaDlNUVk/chEl4avSkrv+YRUsXk5VbTHbeIXbmluIdFEWQux2HDyxk5d46Dh1IIv9QAdk791Ol8SMi0h/71iKWz3uTr1bs5VDRQfL27WVPYRcDY6Jw6S5ly7rlbNmyhfJGJUzK8sjP78IvNooADw1N2RtY9L8F7Mk8SG5eKukp+6k3+BIZPgB7Zd3O2rWKD954nvX78shMSeLQoXwKlHU7OiIMd8fjLHFlezQ0ZpNUaCJS1Ys2OpjyRYsp9/TDIWgsl4wJtQ54DMq4Gm0beauy8bz4YhLCfFC1lJOcbiL+/BH40MzWhZ/wRdIO8g5mkbt/P/sP1uIWHk2Auz2mtsN8uehDtu1IJicrhb3rFrG51J6EYUNw0leyed4brE5MIVdZTqkZ6aRXthEaFomLuYPUNR+ydoey3ddU01BbzKHSarSBg4nxd7FOXP8gAWMTKnqaq9mxah32CdMYM9Sf2pwdbNlfzuBzLmawby1fvfI+m3Or8fF2p6ejnZ2LPyHfEEDs4DAoXMuLr71Obpc/ga4qCra+y4odnQy75ELcKrbwzpsvsK/BA39XLb01acxdnkiHRywjQ91orCgnP20DhU1uRMbH4emgxd47WKlVe6M5C3+suevAITYqNeYtG1azdu3ak+4O5FQzafyoH66/xk5K9ieyZl0i+9N2kLQxmUr1QKZefS4hZ1At89gBYzlMVMFuZSe2cUcu+7YmknKghaHX3MrYaE/0lftY9VUW58x8lNtvuZ7zJo7FrXwzO/cYGDQqiroDn7O1OYp7Zv+LO2ZcybAoO3avXkRv5CRc8j9hfbkP19z3D2659jImT4ihMWMlO3rDOEdZH4eOmIRT1W6Cr3+RB++4jqlTRxHo4Yi6u46ti95m4fYy3Px9sNOYaCpMZVt2B+OUz/fz9iAoejS+remUGAOYdPOfuX/m9UwZEXP8cOljprMinR3V/ozy7yQnM5207mjGx9tRawxl6siB1uGOzWyqI2XhYjYeTGHfjkRWZtQz6qrLmRITSGfRBt599yNqTB54KRUMlaGRA9s30uA1nImDg9EZK0jZmkyN0grRKqtEXUsvUQlTOG9kGI1Z65jz7kLalG3T1UGDsa2BlI07lQroeEYOHUhU/Ahcm3rxHTmD+/50N5ece06/CxcLCRgb6WqsYPvKD0jOzWHvxiUs35RCwJWP8NAVo2ja9T7/eWUuh7uVJrTSTC4rLaKiPIdqvQNDR0/Eq/sgqxZsprK+SmlCp3O4Pozp993BeUPdSPvwZd7+fDvdOjUt1SWUlZdTU1xGU4eyAU8fTURoBJSvYH9VLLP+/jemTxhJbLDPWRkuFpYd7KRRMUw5dxwJCQkn3VU0m4mJCj1OwBxUgj2BaVdPZXjCCCZOnMigAW7Y7gDoyTtRwBzMzyBkwp1MGuJExZ48vCdOJT7QlZ7GfNIOOXPpZWPRaVWolY7ueor3NhM6eRhdh76iMfgGbpwY29cq1mpNtJSswRx+NV51iRx2PYepwyKwVxaEyt6J3vI9bO0YyCVDglBjonDnUjrDLyU+2IXejiaausCRTjIO5qGJnMoNl57H4CHDGDHhPMZOGM/QyAHKdBxpfVemJaKPupJrJsRi//1cMeppaWmirb0HrYPlMJSl0BIwqWw57Mv1Y53Zs2ETnuddyRC7GqX1E/wTAqaBzOVZ+Ey/mqnxXpTmluMYNJL46AB6qlM4WN/NOZfezqTRwxk8bBznTp7E8GEJDPR2Vj5Zi69/GDFDhhI7dDghbiayaxqJjotFXZlLTtkALr3nGqUCmkD8sFFMnHQ+IxIi8XKxR923fmXR7BjMkGHKcutup61DmS87O9RKy6q/kICxkSMBs5PI6x7l7mtiqd65QwmKTkKHjsWlPY3NKfVMnvVvHvrD7Uy/5HImnzuKeGUnNSg0BAe1gaCEi5gwNIDqgjRq6wvIKyklfOw01FlJ7C3y4dp/P8Z9N1/PRRdfwsQRoxgRP4QwpQlvp2zA5fvms6PIl8lXXUywtoXcvDw61a64OSq1rLMsZ/ZmFHLhOcMZPWIIwcHBJ93tyzp8zPW3p7mU5LW7aHT0JyLKj4DQWEIDlHA5w5bvMQPGbKYieyu7M/JwH3gRk86bQMyAdg6sSKTKcxBhvl5KDXsxOa0eGNqqqCjOU1ppmfSOu4Qx7q0kr5urbNdFaByDMLYeJnfbRpIqhnLJ5aMYYKdiy8407FRGGuuqqSjbz75NSitk+oUM8ncCk5H6nK3kdHrjoG9g+4q5bMhqZ/jw4Xip6ikqPoyrTxDOSjp1V+WyOaOCsMgo3O1MHM5P58DOTZT1uOCiNdDSftQ5Gov6dF58/AGef3snQZOmEOntgLG9mrTkLWzL62L85HM576qbGOJYT3ZqMjm1zgwbEo6LpfVx5B2+y9RNbVEauxIzsR+tVFBGn8uFsfZsXpJIu6cLoaGDMGSVUIknAT4ufd99fsoGKky+RIcOoCp5KZ+u3Y5LQASuyvzoWwrosPNkePxYfD3MFNWk0G0XzAA3B8sOgwNJKdQ7DyQ6zAud5UKS3IOUNLWg0rSSs/lzvtxQhH9sPH4uZ8oB2B8nAWMDva2FbPtqBZu3J6MbPJXLL5vOhHhfMlZ8yurUItQDRjKkq5Xs3HSaDD0czt3L6s+fUWpZ3kwYO5yiL+/l8be2oQ6JJjoqDi9dHa2uQ5l2wRXEDXKhpTmFNen1OHfVUpCxkc9ff48CUwITp0TjrFJqbM2H2L/5EO2qLop3LOSVFfvwjhzL4CC3sy5gbHIOxtRDU1kmKZl5NHdVU1parnynCQwKcDnjlu+xAkbf0UxW0ioKGnRKK9io7LTiiI2NQaUvY2dpN0PiYgj307JnzRpSDmaSd6gcjcskrr1uNB1Zm8ioslNq6yNpTd9GSs5B6vSBXHnXjcR52aN1C8a3ez/rNu8mMyuLQ/kV+F9wDdNHhWKn7IEt99VzcdGRvG0T2ZnpNA+YyMxrL2KApxMewSE4VeWzc/t20nOyKCjXMn7apSTEBtDbVMX25R+R2WSPsa2WwrwsDreaCImIw9vZusM19tDQ1I6TdySjJ40mwFVH5+EUNu3NQ9XTQKvRkai44dQfWEnyoQbUPeASFEFwkMexz5kpAZixeTsFPW00tjajCxpCQtxgAnSZpGaW4z/kYsYNdSFj31b2p6SQczCLpoAJXHX+BPxc7ejtalO27RSycnLJVeantMufi6ZdTVywB3ZugYS625OzfaXyHWWRk1+F9+BzuOSC4XjolJVI44i7ZzfFOZvZl5JLs9qPy2/7A0MGOPSrbfh0BIzci+w7zPQ0FrIzcSfVBiOekaOZOHII7ppuJQx2sDenEqfAEVwwPJDsnasparYuOp0zUcPOY0yML9UH17I9vfaby4w1do5K6+VSxoS7KwvbRGdVJmuSUtFbB9A5ODNk8jXE+VtqYmZlB1JJ2qpNFOh7lW9HjdOgCVw6epCygZ99J/nlXmRyLzLx6zkd9yKTgBFnLAkYCZjjMvfS0dxCp0GpiB2DpeLm6uLCWVgvO23kZpdCiLNTdzU75r/OU3+dzT+O0b35yReUt1mHFb8aCRghRP/jGMy0ex/n5Q8+551jdH+791YGnj2njs9YEjBCiH5JrdGi09kdp9N984t88euRczDijHU6zsHEDgolLjLQWtK/fLQkiQkjBvXb6Rf928fK+jfr6rFykl/8Np1qwLy7IIm9GSVotWfSzyd/uq4eg/XHkP1z+kX/1ms08bffXdz3XP6fSwJGnLFONWAst+A3muS21EL8XFqlgmP5/dPPJQEjzlin4zJJIcSvR07yCyGEsAkJGCGEEDYhASOEEMImJGCEEELYhASMEEIIm5CAEUIIYRMSMEIIIWxCAkYIIYRNSMAIIYSwCQkYIYQQNiEBI4QQwiYkYIQQQtiEBIwQQgibkIARQghhExIwQgghbEICRgghhE1IwAghhLAJCRghhBA2IQEjhBDCJiRghBBC2IQEjBBCCJuQgBFCCGETEjBCCCFsQgJGCCGETUjACCGEsAkJGCGEEDYhASOEEMImJGCEEELYhASMEEIIm5CAEUIIYRMSMEIIIWxCAkYIIYRNSMAIIYSwCZVZYf37B554cyX+fj5EDPSzlgjxy1m8OpnZMyczPC7EWiKE6E9OGDDLN6Zx4GA5apW1QJyUHTt2EhMbg6+Pj7VEnAyVWs2sayYQGuhlLRFC9CcnDBhxambPns3MmTMZP368tUQIIc4ecg5GCCGETUjACCGEsAkJGCGEEDYhASOEEMImJGCEEELYhASMEEIIm5CAEUIIYRMSMEIIIWxCAuY3wGTU09JYTUNbF/Kr2d8os4G2xnpq2nrkOxb9hvyS34ZO9pf8bTUlFJRV02O0Fih8I+IJ83FGc4KqQEd1Fp+9MpvNdtfz7CP3EOVtZ+3z03W31tPQYcTXzx87jbXQpgw0lhRTXN2o/PU1dyLiI/Fxtvvxmo+hg5LiIqobO0Cjwc7egwH+Afj5u6LBSEd9Pa09dvgGeqI9qVsdmWmpK6NB7UuEt5O17NfV3VJJftouln30GRuDZ/LF367G3/Xkv2MhfmmaJxTWv8VptnbtWhISEggODraWnFjp3tW889wf+WR7BTWlBWTtXsPaNAOxwwfj66LlePtJOxc/Apw6KWxsJT5+vLKD1lr7/HSFW+azZFcB4XEjcLe3FtpUO9mrP+OZP77A1ooqSgtyOLBlL2k97oyNDcRBe4KUM3ZRvmsNr8/5guSMLFL2bWPBu6vo8oxj2Igg7JX3Tp2/gMT93USNjuJkFoexq5lNy15jYW04l8SennvI6dtq2L9lMWs27yMlJeWb7sCBVGqUIAvxcUOrOc63a+qhoWAPi+ZtpFNrIM9lMDdPjMXF/hepBQhxSiRgTkGv0YTRZMJkMh+zW7d+PXGDBxMYGHTM/pZOo/62ru45MBb3tiRMk5/g+UdmcfGkERxa9THt0VNJGOCMubeHgxte5bX3F7J85VrWFbYTGRGOt7OO9qpU9pa00JGTzMJFX/DVylTanQIJD/dCp9TKjR2VbJn3Ee99NI8Va7aQU6kiLC4CF7rJ3PgRL763kJ0pmWSk7mdT4i7KWtwZFK/s6E16Dqeu5Z3n32bR6jUkbt5Ko1MksUEeaFRm2vM38dSLb7Mzp5qOioPM+3gOXyal0eIeSXygq3XOjsUB/1hvmpOamfzEUzwy61qmjtOxbc52/MeMYoCHA6rjJWpXHevmLaLIcxqPPXY/V52TQG9eDvrABEYO8SB16bO8Pncde7KySFVq/huT9tGiDSQ+3BuzoYuMxA947q3PWLNmDZu3FuAcFUuQ8nm0F7Dk1Tf5fPkaUtLzOJi8hY1bt6MKGqW0Ih1RKcsiO/GVb5f/ukIcIyMI8lZamNZJOxZTbzdVpTnUtH73YIHlZp6egWFEBijL8nh3lFVpcfGP4tzp0xniXsPGWheuGh0jASP6BQmYU/DBkh3MWbyDNUlZrD5Gl1+pJ/dwJ4m78o7Zf8n6AwwZFIiPp0vf+5nNRspTFpFhSCAhwJHq7GQ2HTAwfPr5RHuq2ffl+3yUVMeUi65g/JiR6Cp2sii5juEJsajr01j4+SfsYRg3XHEJIwLNbF2WSPOAWKLd2kn87EW+OOTIxZcr4w4OoCY1icQyHaPiQ/F0cUHd2UiP0wAuu+YGJo4awuC4cPyUnW5PzW4++c8c2oZMZ9KISAZ4drLrszW0hY0hPliZbo2DEl7NbP38JZZVe3LxJZcyZeww4sJD8HA8cdPBbKwnZVEyhoQ4AhyNdFYWsOWwjnOnjFBabDrrUMegscfXS0Pa7qV89OGnLN+4B82g85l1wyR83exxctJhrO1A7R7PlbdcxthhQ4iLCsXDRWma9XbRkL+Dg9qRTE4Ix7PzEIs3dTL8gli8tDocXNxo76qiO+pS7r1ycl8LdFBkOG72Kmr3L+KpRTkkjJzI0LhovHvyWLA4k8DxIwhRPvd4eajSaHHzCSEyKoaYmKO66GhCgwJw/olh0V62j68OS8CI/kPOwZyCf7+5kvjYcAaFBVhLTs7/Fm3hnuvGf/O8E8vJ+i0vT+HPKx0I9XakrdSZC/7+KA9cNxL3rgLmvJvEsPMvZOzosL6dWXfLAd6etZjBzzxKfOsX/G35QW6/4x9Mi/MDo4GU+Q+yUjuDe0Y5sW3jAgKmPcuUSBeltmymMW0ZD62p4qHb72C0EhR5a+ewLB9umfV7Brr1TY4lAaje9joX3fcpAeFhONuplBA0KDtgRy677988cvXQvsFqc5P5dO5HDLnjRS6IdsXuRCeMjmLUZ/PylPtY6eCGt5sOrSaYS+6fzW1TojnR/tOo76C+thy91ltpnRnpqM7gs9c+xmnqn7j3tjG4qVrZM2cuuxoHMfOR6fgddcjP3F7Gqref54WkSnyUclN7I436K3lvw8MMsdNg7GpizYJnWO9+N29dF2cd64gdb93Po/PT8fL1Rau0OExKa0iv9uTOp99hRrzncR9rYTlHtvD9J1mV1mstOUKl0THm5r8y+/JRSmD8+DKr3vE2d+3256N7ryRAzsGIfuCn7QnEMVn2J64ujnh5uPysztHhh7V0O1cfLnvwJRYs/JhnHxlB+9ZVFJS1Y9K64q5ppKHHhMF6EYCxtYHqAD9clBq7ZVrcWstpajf29Vf1NFFc6UhggA/Ozi4YTI709PRaLxYw0NFswF+jTMMxzuh3NdWQtH4NueUtaH0TmHTpDTz71scsWrSIRQsX8e5/H2BkhKd16CM0Onu83N1/GC6mXmpydygtjQVsTSun22Qt76PG1WcMD770IQuV956/4BXuPH/QCcPFoqM6k7mv/pVVGS14+AUQGT+GKecorZcevbJQrAN9w0RbTS7rlm8gt6aNxoNbWbpjAP+dO0+Zl/n889bJDHTQHLv1odS9mgt2sXJNMpWdJvyCQxipBOILH3zeN72Lv/yUZ+64hliPE7S2FM4BQ7nzn8rnWZbfUd3C+Z/zl6t/WrgI0R9JC+YUPPn2asqqmpWwcLaWfJfB0ItOd/zDRDkFlTz90BXftGAKtszjxVee5oD5Au665U5uuiGMQ+8/y/P5Psy47Q6mGDby7tzdtGi0mJV9UletieCZd3HvSHdWvjqbz1OrCfAchX+AI+YuPQaf8dz90AxG+anZt/4TFq7dTa/aQ/kkA3qDC+dfcy9XXRiFo7JDb85ax/NzFlLV44rOXofaP5ZHbr+BSF8Vuxc+x+L1Tah87JRau1HpvDl/9r1cnxBAypLX+Gz9PtKy8ggYcg4DvJyYeP0DXDcm+Mh5BX0be+f9gwseWMeN/36TZx+6xNqiaCFl3ns8+/RSekaPIGzwcG666WbOCXe39Dyh1vK9vPfYHaxuGk+U0vpyohujUxA3zXqYyUOPzF950jLe+GQtjQ6OOGj0OAdfzF2zpjOgPZtnnnieWo9AnE0mSspzqM1y5vLHlNbPzKn4qTtI3/AOL83JxiPIhc5qDeGXX8HdN12AX2cR89/9gKSGDhx7lc3G1IzZPoFbH3yA8WGOxz1EdmqMNBTt4Ys3F7O3PIOddY6cN3gwg8ddys03n4//L3JBhhA/jwTMKSitbKSppcP66odeefVVpl14IfHx8daS71KpVESH+SktmSOHO1oqCyiqqKfHqMMrIJzwME/MzZWkFtXjHxZDqEsPxblF1HUe+S2ESu1J5JBwPDQGSvIy6bT3QNvRQZvBoPS3V8aJJMTfre8yXcuVTIVFxbR09X0U9u6+RIaH4+ZgrT0rQVBQWES9ZQCdAwHhsYR5OSg9TOg76inMLFIiwUKDg3MwsfEDsDebqC/Opqiuw1LZ76PW2uEbMYRwL+uez2S5ZLiEzKLW70yP8oHUFxRSWt9y5DJlZy+iIsLxcT5xa8DCcois9vAhqprN6PVKq0Xh7BVAhOUwnnV0y6Euy/w2tunR2DsxMGow/q7avsOQ9SWpyjQrE6wsf7WTE87K8lT7hBAe7o+D+uj5VaGz8ydmRCgulisOlJnsqC8mq6hO+dOsjK7GIySG6EB3G4WLxfeXv4UGd9+B1um1FglxBpKAsSF5oqUQ4mwmAWNDEjA/g9lIU2kGWzalUG/8zgmbPpZzPaOmXUdCkMtxT6oLIc4M0sAWZxiT5Yf5fYegjkWj1aHS2FmObgkhznDSgrEhacEIIc5m0oIRQghhExIwQgghbEICRgghhE1IwAghhLAJCRghhBA2IQEjhBDCJiRghBBC2IQEjBBCCJs44Q8tD1c3Ud/Ubn0lTtbLL7/MRRdddNybXYofFxPu/83NQE+WrL9CnJpT2f4sThgwj7+xkur6dtzdHK0l4mQYjaa+Oyar5aZZP4vlcQbPPHwlw2KDrSUnp7+vv5m55QwM9JHtT/wqTnX7szhhwDzx5komjB7M4Kgga4kQv5w3PlnHzMtGffO8nJPV39ff1+euY9o58bL9iV/FqW5/FnIORgghhE1IwAghhLAJCRghhBA2IQFzFJPRgMGgx3TSDzAwY+xVxu01Wl//OLPJSK/yWZbPM578B36H5b0s72Mw9PY9Slmc2LfL6+vOgOkUv4NfTN+0G+g96mFsX69LR5edyNfruaXr7e397nhmk7Ium2Q9EqfFWREwZqOetqYa6mp/2LV09VqHgpxVb/KX39/A0gO1GE9mC+usYfOnj3HTg8+TW9ZkLTyx1tLtzPn3ddxy8/X8b3MBvT93B2fSU52+gqfvnMHMGX9nQ071kWfci2PrW17LefK267nr9pu5755bufePD/D2l7vQ/8Qd9K9G2fm35K7m/+69nb89N5+Sdsv0GqjJXsF/brqWx99fwuHmE3/7pvZqti14lj/+4Xb++Lub+cfDs3nyw61K5cjyXiY6Sncy7/lVlBt+emVJiOM5KwKmqyGf1e/+gduuPZ8Zt97O//35AWXDupvbr7+Ixz9LoqX7yMZkMhpRa3RolO5kLyy2XJKsVmusr36c28CJ3Hj1VRhaDlPe1GMt/RnUdgTEX8JVV52HsTyfhk69tYc4JsvyihnD2KHjGHve73nsxTd5fPYMegqXsnp/hbKLPYOp1LiEjGZCeBtrtyWyL6sCo76bguQ1rOpyJSphFAFuWuvAx2A2UrN/OQu3enDXU6/wn2ceJZ4Gikvq+3p31JaQvn8P+/bsIe3APlJT9pJWUofhqOBtLssi48Devn45xZX0KMFk6KynSBm+oLiQosw00pR+qRkHqWvuso4lzlaaJxTWv39g695DhAT64uvlZi3pn3TOfgyOCCErZRuM+yN3TR7CkJhY6qrTaPaeyMVDfShOTSS9yoT/wCg8AkOJ8HNFrVLR21rI9pVr2J1zkLKcLNKVjedQWQVO/pF4OKiVDbyKlNVbqOhVNvABgfhHReHt6vDN8+JNvXqyty5h8869ZKSnkpmZQXWXC2FBPti1F7M8cTsmRx/ayzPJzixB5R2El6t93/jdNdkkJq5n3/4UMjNSKe/QEODni71W6WloIW/XJrZs20F6VhY5mSmkZ3cx8prpDA5056dH3ZlrT3oBCdGBBPi6W0tOzvHWX5VZT2VmPh1uUYyZGIO3s53SCiiizT6cuGhfTrCL/kXtSSsgcqD/d6bfbOqlunw/eRVagtxdCfDpZc+KjfQGRxE9bBLDglytQ/6Q5RcJrXXlZGcdokXfSE1xNZ1BUQSGD2Fs3AAqUzeQuGENB7JLaeqqofhQLlXaAEZEBmKn6aZk50b+N28BaZmZ5OUqAbQni273ULwp56sXn2bemqWkZdVQWJBJato+iuv1xERF4Gh/pixRcTJOdfuzOCsCxkLVWc3mjWvZn3qQtNVLKTKO5PLbLmX80AQi/ZxorC6mMm8378+dx0G38Vw/JhyN0r4ztNWwd/kHvP76Iuo0fgR4aclc9zbpzREMTQjHrreV6txC8g7uYNFHX+Ewchojwn3QKuOalRpjfuLzvPXeKrp8w3FRV7Htw8/Y1xXO1ecPgcYcFi/bQGO9GwGxvtTvXsn6HS1ETxqCrmYPn7/5MvubnHB31KGvzWLNmuVU2MWRMEBN6ro5PD1nE+7eyg5RX8HuxE/IqAzjgpt/OwGz68AhNq5ayJYNq1m7du1Jdwdyqpk0ftQP119jJyX7E1mzLpH9aTtI2phMpXogU68+lxAnnXWgX98xA6a3W9nx76fFJxLalYAo2UKl62RCvNtwCh5NfODxA0altICcvYOJDddQX9OOWWmnlx/KxHOAsk7FBOEdqlS8BjpRmRPK3W/8jRnTLmZibLASLsrK3JrPpyuT8B57Ew/9/g6mTbuQKE0ZiYvKGHTpNAb5GckqquOS+57gdzOv57xREZTtTKLFI4oQfw808lvjfud0BMxZcYjsWyp8Bo1TWi8RePgFM27KlZwXH4qdozuDJ17DTZdPwcfDyTqshQp7zzDGnDtMGT6SCdfPYuatt3LuYHfS9yVS1arCzjmIsTfezuUXnIOfs3W0r1lOmHa1UtrUTMaWr/hq6TrKBk3jlivGobYkkEJt70jUxTP4/R33cNUFvkpNeiuFVTXkbFnKwi93cih1F3t2bCb5QA4VBYfYsX0f1SUFrP7kS9yGXcFNf/gjs+57iFnXXUt43zv+dljugmC51c7MmTN/VhcTG2N9p2NxJ2L4hVw+42ZmzLyNe26fwVCfo7/7M5tj8ETG+5jYs1tD7IS4n3S3CLOxl32LXiClI47rZt7FLbfOYtaFcRRsLaL2WOcATT201NXS0WOEnm5anQcwOFapVFkCBycCosNx0Bto6zt/AwMixyjhFdBXMXP0DCfEy0RjYwNyOufsdVYFjKUG5xMzjj+9+RH/evhCvKzlP4mTEy4ujkrLRIXOzhGjsUvprP2OQ6U24hlxNf985gX+cOkYPLBHn7GS+e+vp9S61am0GlwDvJQ+oLWzTKMevcGMyayEV1ACN/zhXzz1/Bs8/8p7vPjKm9w/YzKujlqMvfY4e7gp06JSxtGg0zr85q78sew0LfdxGz9+/M/qfH18rO/0XT1tdVQcbsCo7AmVpafU3KMJD/HkzGm7HF9nbTal5dU0HK4g9Lxb+dvLjxKnr6aqvIry0nK6er69aOX7zEqFp+rgAb54bz4b9yX3nSvJq+xENTYa777QUNh54ORQRV7qPvZtnsf7L73EqpQKjF7BTO5uJH3LVvbsO3IOZuOG9XhcHE2ku5OyFKFw41ZWrU9kn+UczOalbG0aQEx4CM79YcEKmzgrDpEZ2mvI2LaArzbuo6FTg4/bAIKjw3DVWTYLEx11h9j11Sp27tvJrgMH6TDa4dBaRkWHMqx9C7tXLGVTahGa0KHE6IpJXLuStJJ2fCKGMcCYz6ZNW9m3ezsHMvLQ29nRXlVJc7cTPv71fDH7T/xvdw0RcTGERseibWjAJW4KU8Z6kb11Bau3pmJ0DSLCV8PBpIVsz6jHJXg048bH4di4lQ1ZjZg6GijLSuLD9+aSa45g+qTBOKtLWLHzAA3KZxUfzGLfvj3kVVSjdbUjODIeXxc7JXiOzH9/ZZNzMEqtvKksk5TMPJq7qilVdsrqAQkMCnA545bX9w+RmU0GytJXsje3HXVTCzr/KML8DaR9uZaqLhO9Zue+cx7uLpbqyg9ZAqa3uwWVo5GD+/eQk3OQuq5ArrjmQkLcLOuLCq2jK7re7WxNSiO/tJH4K37H9DHh2GtdCByoI23fVvanpJCjrHM1dqO4dvoUBng40lScSllTBc2NzeRnp5JT1EHCuZcwJiEUezk+1i+djkNkZ8W9yAydDWTtXkFOpWVWNUrNP4oJ0ybi52BZ8Y10NhayZ81Oqr63KDwjRzEq1IGs7clUKy0OdeAQRvp2k55VpDT7zUrrZCSxHu3sT8/ve/0tB4IGTWD0GA9KN2wls65J+ZQj7BxDGH3RFMJ0zezdvYOCiiZ0zp5ExUTQWpxCRdO30+fanE1SchqNbUeuDFOrvRg6eQqDgz1Qd9d9M77yBvj5BEBLIU0mZ4ZMvoY4f2WH0TdW/yX3Iusf9yKz/A4nf8NHrC8yccWNdxPqpe336544Pfcik5tdijOWBMxJBkxvF/VNrUpLxfr6OzQ4urnj4nC6j1f10lCwjY/+/izbOiA4bCq3/vWPTAhz/+ZKStE/yc0uhRDfMFSl8L9XH+cff519jO5xvtySQ9vxT9H8TFq8Iifxh7fn8dHcefznyXsZNVDCRRwhASPEb4QueBJ//c9bvPPB58foXmfmRUNxscFPUlQqe9z8/PG1dL5eOPwWrpEXp4UEjBC/FZaT9FodOp3dMTod2r6r5oT45cg5GHHGOh3nYGIHhRIXGWgt6V8+WpLEhBGD+u30i/7tY2X9m3X1WDnJL36bTjVg3l2QxN6MEqVW3z+P2XT1GNAprY7+Ov2if7PcZftvv7u477n8P5cEjDhjnWrAWG7BbzSd0bevFOKM1ndY9RR+ICYBI85Yp+MySSHEr0dO8gshhLAJCRghhBA2IQEjhBDCJiRghBBC2IQEjBBCCJuQgBFCCGETEjBCCCFsQgJGCCGETUjACCGEsAkJGCGEEDYhASOEEMImJGCEEELYhASMEEIIm5CAEUIIYRMSMEIIIWxCAkYIIYRNSMAIIYSwCQkYIYQQNiEBI4QQwiYkYIQQQtiEBIwQQgibkIARQghhExIwQgghbEICRgghhE1IwAghhLAJCRghhBA2IQEjhBDCJiRghBBC2IQEjBBCCJuQgBFCCGETEjBCCCFsQgJGCCGETUjACCGEsAmVWWH9+weeeHMl/n4+RAz0s5YI8ctZvDqZ2TMnMzwuxFoihOhPThgwyzemceBgOWqVtUCclB07dhITG4Ovj4+1RJwMlVrNrGsmEBroZS0RQvQnJwwYcWpmz57NzJkzGT9+vLVECCHOHnIORgghhE1IwAghhLAJCRghhBA2IQEjhBDCJiRghBBC2IQEjBBCCJuQgBFCCGETEjBnFTNGvR6j6Wf89MlswmAwKu8ghBA/jQTMWcTUW8KSRx/mvXWH6D3JkOks38vzf3mRFZlV6K1lJ2Q20NZYT01NG4ZTTSWTkfaWRqob2pCfBQvRf0jAnEl62yjOSGVvcjLJ1m7PwcPoe03WAY7P0FHPocxvxzvW+GaTCbNG19ed9N1/lHFNyliW8X7SStNdzab3n+Luq19iT22bMu4p6KojacF/ufK+50ktbLAWCiHOdHKrGBs62VvFGFsOsfCF53h7aTkRU2Lw0GroUXbN02f9matGhKE5wU3hWop38O5zD7C4KJSRUcE46tSYWkpJ5gJWv/57AjwdlaHMSiumF5Nai/ZkbzCnrCZGo1FJF80Jp+NbZvQV23ji7j1Mn3sfkwJcT6k2Yz68k/vf2cMdt9/K+Fi5+aoQ/YEEzCnoNSotghMsvkceeYQbb7zxhAGjU0LkG2YTTVlf8cw/q7l7ye+J1ZrJ3/gS/10dydMvXUug7qhhjyHnywf4X8NU7p8cQ3FeFgMD7PnXsmbeePRGVFWpLFy4gMI2LRNufIQbxob0BYWxp509y59nQYYBH7R0tLZg9griopv+wIVxnqiMPRTt+Yo3F29Hb4jm5r8qgRnmpQx5hEnfQXrip3yyIafv3I4qeCDjIqdy0zUjMNft4vHbNuB3kzNFGYeVgf248K67uXjYAOzVSgCV7+f1T5ZTVtPaN+/Rk2dw0+Xn4+tkeWkkd8siFq3fTUOnA2F+7uxuceYvv1M+XwJGiH5B84TC+rc4SR8s2cGcxTtYk5TF6mN0+ZV6cg93krgr75uyz1fuYcn6A32d5W7VCTHB+Hi6WN/RTHdtHlvWVRJ6fgQOne0czs0iXRXOFRMjlZ3yiVsOtdkrmDtvBYmr17KnpI0xl9/FZeMGEervjkZnh7vfAAyFizjkej5TlJ20WqW8n/K/pqeR7WsWcNAYy7XXXEpAVyG7k5qImhSPh06FnYMTvl46ihKLcBkRT2yw8n6WD1RCob1sP4ve3YvvhRMZHhFK1Y4VpHUO5Iopg1F1lrJq7iKyWvyZfvuVJNgV8/nuRqaMisbZUM7il+eSQygTJwwjOsiRvHVfktkbwYhofyr2reXtNXsZeu5lTBkWQm3OZuandHPjZecR7OPcN79CiDObBMwpWLE5g0mj4ph+3nDGDov6QXfxlDFMGh33zeuRQyPIK65mb3oRlbXN1DW2c/UFwwjwdbe+oyVgUvn87bkkpmxjw9r1ZB4OY+bsK4j1cPjR8yYNuesoC7iK+6+/BF8HM5GjphIX6IwlR3SOLvj6B9CVv5xC1wu+CRiVWoO9VsvBuhYGX3wXt5w/BFdjPbnbGoiZPhYfezV2zl4E+2o5tKUI19HxxHwdMH3jq6jIXciqzWlkpGfR0GDH0IuvYWx8ANqOcnYnGrnsyd9zxdjBhNnXsmBvB5dPTkBVk8obSosqq6C0r7WVnpVPeWMrbYEJTB/qRub+bILCp3LN5RMIjRykhJc7ORWdjB45XAJGiH5CTvKfAssO39XFES8Pl5/U+Xm7cf/MCzlvXBxq9fEWvRPhQ2/nlXkLWLRoAR/MeZCpIe4/Gi5f07l4EDfuQmb94QHivK2FP4VGh52jAxplsiyhc+KDcVZmM50NFfhMf4oF8xaycMHnPPuHoSQnHqDFaDmtr0y1ygFPP5e+Q2qW57uoVEfmW+fmSfjgCdz3+Jt8Pn8RixYv4dM3/8E148PQ2TnirDPQ0d2KwWQZ3kBzXT2dtW194woh+gc5B3MKnnx7NWVVzUp4HLtGbTD0otN9fbbiWy2tXWzfn4dWq+az5+/85omNprZ8Pv/PM7y9pJToS4cwePyV3HX1VPxdf/ge39dSsov3nnuApcVBjIhKYPi513LzzaOwtI1626rZuuITlu8qoTpvK6UOoxkX5s7gC27i+qnDyf3qMf718W7sh9/JGw+MYtfLL/Pxthouefw/3DXVn21vzGVnbTmZyviOMZGEhYdzzvSbuem8CLKX/INb3z7EpPjgvtqKoVWF3xW/59+X+5E09zWeeW0vMbfdzcO3j2Pfghd4ZulhbrhuNr9/ZBJdm+bxwaJ0Opy0mJWRW3oMTLj2bu6+cBSdJdv5ZM5Cclu0aO0M6KuL2HVQz4hzb+dvz91EnKfTTw5dIcSvQwLmFJRWNtLU0mF99UOvvPoq0y68kPj4eGvJd6lUKqLD/HB0sOt7bda3UJxbRF1nT98PGp39wxgU4o+D9sd3pfq2GgqLimnpsrzS4RUQTniYl/KX8r693VSW5FFe39fzG55BUYT5u9FSnkpRnRm1sx+xoW7U5RRSp6wWnkGRDPTRUZmR1/f6Gxp7AgYq4yotk476YrKK6qwXO6iUMPAgYkg0XlrlMwuLqGjsQOvkS1SUDzWlRdS36HFwDiY2fgD235tftbM/QwaF4OygBKqxyzp+G0aln729fd9vYJSpImZEKC6W435CiDOaBIwNyRMthRBnMwkYGzptAaNvIzd1J9vSy6wFR1Pj7hvHuRdPINDpyPkNIYQ4E8geqT/oOzF+vHqAGpPR3He4TQghziTSgrEhOUQmhDibSQtGCCGETUjACCGEsAkJGCGEEDYhASOEEMImJGCEEELYhASMEEIIm5CAEUIIYRMSMEIIIWxCAkYIIYRNSMAIIYSwCQkYIYQQNiEB8xtj1rfR0NiGwfJASSGE+BVJwNiY5VaiReX11gdy2ZjZSO3u+fzugTdIqe+1FgohxK9D84TC+rc4zdauXcuAkAhen5+MXm/EydEOL/djP17ZwmxuJmP5V6zbvou9KSmkpBwgPbMGl+AQvJy0P+ERwWYMHa1UdTgxetwQvO2PGsPQTPa2XDpcXXFzspOahRDC5mQ/8wvQG0w0tOn5ckM6L3yQSEPzsR+zbDaZMGs09LRVsX7TCrYXt6DVaVBpNZaeGAx69L299OqVfy1d79HHwcwYldfOg87lLw9dS5Tbt1+tWRm3t/0wm+auJvlgFV2WcQ29fa0rIYSwFXkejA1Zngdz0aVXsWxHFY89cC21Da3U1LdQeriaGReNwMfTBTslQL6vpzaXV+fNw2viffx+XGBfWXdlGv97+xWWFfcytlNPvkpP98BzeOxP9zMh1MUyAGv/9z7zN6WB57k8/OLDjPLR9o3bcjiPz5XX73xRituQMPxd7FENHMk9997PZXHefcMIIcTpJi0YG8vOyuprbVgE+XsyQtnBhwYH8O+3VrN0Qypd3Uf6/Rh7/yHccsVkuutb8bzhz7zx9nNcb05l+848lMaRZQCm3PEQTzx5J5HVzXQddQrGPSia2//0D2aecw33PPIUb7z7Lu8+dj/nRXpYhxBCiNNPAsaGxo0bR0lJyTcBY2E5KxIW7MuwuFDKqpqpb2o/0uNHqDQ6XN098Y+/ipkXDyMocAiR0d6odIavB8DRzQM/f2+cv3+yRqXC1dsPdydX3L18CQgIIMDXGxe7H7aehBDidJGAsaFbb72Vp556GhcXl77XvUYTbe1dbNmdhaeLjuumDSNkgFdfvyPMGPvOjxgwGY306g1KOPVishzEtJyD6TVaTqj0nasxmYwYlR5Go77vX7Py2tA3vEF5bfnbcp6m96gn+atQa8xHyjsbyFj3Ke9+lkhNm1xtJoSwDbmKzMY6u/Ss3Z7N8LgwJViyWbs1lennxnHpeUN/cEWZqbeCVf95iuc+WMCufZnk7tnO1q1FeMUPw787jw/ef4f1Ww5QVeOOl0clX378IVvTClEFj8S/JZ3X//NX3l2wgX2Hsti7bzOrV+TjNjiWUD8XNBonaNvGgoUfMn/BV6Qc7mbsxTMYGuKKVv3j16cJIcTJkpP8NlbX2M6Nj8whIsSPG6aPYuTgELw9XCxHrY7BSGdjM61KK+RrKpUdbj5eOGCgrbWZzh6jUuaMh5c9nc2N9JhU2Lv54KY10mp5rTRyvqWM6+WOk/VQmLGnnebWdgzKMBqdPe4enshRMiGErUjA2FhLWxdfbUrnhktHodNq0Kj/vx07KAIAgEEYhn/VU9HXEhPl8EoCPwgMAAlzGoCEwACQEBgAEgIDQEJgAEgIDAAJgQEgITAAJAQGgITAABDYDgLUaBwKg/ljAAAAAElFTkSuQmCC;imageBorder=default;" vertex="1" parent="1">
          <mxGeometry x="480" y="160" width="311.19" height="360" as="geometry" />
        </mxCell>
        <mxCell id="9Dmww1gpKmQdiyRFmf3V-2" value="" style="shape=image;verticalLabelPosition=bottom;labelBackgroundColor=default;verticalAlign=top;aspect=fixed;imageAspect=0;image=data:image/png,iVBORw0KGgoAAAANSUhEUgAAAcMAAAHdCAYAAABhWhI1AAAAAXNSR0IArs4c6QAAAARnQU1BAACxjwv8YQUAAAAJcEhZcwAAEnQAABJ0Ad5mH3gAAP2QSURBVHhe7N0FfBznnf/xzzJLWjEzWLJlZojjMHPTUNOmeG3vCte79nr/uytc765tCmnaJk0aZibHduI4jpnZsshiXtEy0/9ZSUltJ4a2aZ1Ez/v10svWzM7Ms7Or+c5v6FHEBaQPXSQQZXg4ij88MeAEKr2SjHQ1Bs3EAEmSJOmskWEoSZIkTXrKiX8lSZIkadL6i8MwHAkTiH1wURmNRQlEosiSU5IkSfo4+IvCMBb1s7/xACtb+3FGJwa+Kx6lo7uRZw4epe8k58skSZIk6aPkzw/DeIzBoV62OqE0M50k1cTwCT73AFt6RkjPKyRHXhwiSZIkfQz82WEYDDrY09FLVl4FtclaFBPDE2IxH7sbj+KwlHNetlGekJQkSZI+Fv6svIpHAjS0NdCozuPSghS0E8PHxKJ0dTayO5bOFZXZGCcGS5IkSdJH3Z8RhjH6u+tZP6jjuqpCrMcdHo3jGWnn9XY/55UWUaaXNaEkSZL08XHGqeX1jPB6X5DyygoKzcfVhASDHt7qHMJcUEpZmnliqCRJkiR9PJxZGIbc7DnahiWtmHMzk1Efe6IwGqazp52+eBoXF+aQrDp2pCRJkiR99J0+DOMR2kd6OBzQMb8kgyT1xPAxcUY93Wzp9zKnupgc3cRgSZIkSfoYOW0YBoNBOoa8lJdWU6Q7LgmJRqN09Nox5NYw64RDp5IkSZL0cXFGzyaNRiPElGo0H3AENCYCMaJQoZXXzEiSJEkfU2flQd3y2eCSJEnSR8nfNwzjMeyjrfxm2xEaAmH57FJJkiTpI+HvXhnGokH6XT5CE79LkiRJ0tkm+zOUJEmSJr1P1GUvMtUlSZKkv8QZhmGcWCxIKOAmcpYSJx7zse3wAd4ZcBI8oQ3xeIjG9kbeaOvDcWKXUpIkSZJ0Gqc/TBqPEfR3MWQ7QPO+DSTN+RYzi4qPfwrN31o8Sm9PPc/0x7msuppqy7F9Q8VxjHTxdFMvNRUzWZZx6t4yokE3jU4/0Ym3bU1KJ0+vQjnxfgI+B62eoBgPZmMyhWb92HuNhgN0uVy4I6DXGsk0KBl0uQmgwGS0kKUM0+P2v+9cqFHMwxJxYQudsJpVOoqSDficLobFwox6E/lJJoKeYbr8UWIKDUVmHQ6vD2c09u5EpJqSyDVp32uvJEmS9Nc7bRjGxIZ8oGs1fZ5sYt1vQ83tzC6u+DuGYRyf28bzB1vJLJnG+bnJaI9ZdiTsYsOhw3SayrmpKgvTqdolQnVAhOp/7T5C46iLrPR8rpm1hE8ViHmKBI3HIjS37uMXh9ppsvWSVX0xv1pUQ4FegW+0ix+/tZ6dsRTOKa7hklwFr+7YwBuhdG6eN5fLVAP891v7sCWnUWLWkngqXdA7gj5/IeeGD/O7oyOkp+aQpVPi8/noIZn/OLeWkSN13F9/lFQR5P+1eD6h9i389EArHeoi7l5UyJb9O3jVZ6ImWY9KhKJBn8MXF8+mNll2FilJkvRhUf1QmPj/B1IodVis08jNKsbdt4tQSg05KWnHVSZeW4DXHrGxpkNJVbEG47Fp9VeKRYLsb2+kXZXLpWXZmI8p++Kiau3sPMR6u4mra8tIP6Gj4fdRKDEnZzE3JUnsBaj57DkXcEGGCJmJ5irE+NTkdPI1UVIsSYQUeuZkppGqU6ExaBgdjnL+3HncUZ1HkVgHFp+blJKZ/FNVHnkirHpGo1w7ezYrxDyX1C5jTsyJKrOERekpeAJqvjC7GmNaCf84o4almalMzc6lQlSyjHgwizeWbspmYWEeWt8g2SULuLk8l7irC1P5hfx8yQwuKUpjqPsge1RFLEvXHdeXpCRJkvSX+1AuoAm5I2xfNcLLm/yM+saHfShEJdfXeYRdgyquqSog9YRuo9wDTSKAw6yorqTgTAulWAibZ5SYJoty/XigBsNRxg5EJirHwVY2DMRYMbOWWiI4QpGxcVHnAPsVGrIMOsYeSieC7mjAxLxU81hV6R61Ue/s5O7N6/jp3h7CWigtm8EVOQa8nl52dnbwg7fX8mK3E5PJwuzCXFKVMfwj3TjSK7kgxUTn6AgDgSijXh1z8lOJRn0cGUxmVqZhLPjUOiu16Ub8kXCiBZIkSdKH5EMJw+QSE//+UBXP/CCVkrQPr15xuQd5rddHfmU1eYbjy75QyM3KjmEsRRVMTxWpdobiIkgG3SO4rWkYlCJQXTZe2d1Of1wEmrufVw8cJZBkJeD1E3D3ccDpJxSL0WEbJMVkIEOEYULIbmPAYCLXbEAlgnnAHmLOlJl8c0ENC3OLmSbCMD3VSoYIvEFPkMtXXM6/1paKcEzGH3AzHIqNPYmnb8RFSl4hNZkWut12ulz9eDV5zExSEXD10qNLYbZp/GOKR/10eqKUJBnGfpckSZI+HB9KGIa9UdrrfRxuDxP4sIqWkIfNDe2k5U3l4mzz8YcEI0HqmpsJWIq4uCDjuHOIp+MLhxmye6nNTBXpEsPt6GGXP0y2CNe39x9kpz9EU9cRfr/zENsdQxwcDRCJh+h1xtFHVRhUcYIBF9va+7AaDKRqRZ0YC9DsipNqyuKcypl8fWEF7z62PCjC1xnUsrw4i/Nnn8dt+Tq2H97CmsEwkZifumEdFVYt1vRcikIjbG86isuaQbr4ZPoHeiEzXYS2irBYH3ua66hXlXNBtl4eIpUkSfoQnfacIVEfI53Ps23vE3R0bsY2Us+ooxeVqZoU4/gm39nh5c5vt/Fop45LlxlJO+VVLGciRHNnI/ujyVxaloNVc2xmRxkY7WR9n58FlWWUGY/vSePkwtQ3H+IPB+pZ1dpPu9fOzo5WNnT14UrKIdK1jd81jZKZPZV/WzGH2boorTYb++1uyrLLqDFFONDewOr2bnb0DBBUp3JRRQkZqjCbD23hd83tNI/aaR52k5qeSY5ORcTRyS937+X5o/30uofZ2N7OurZOGkVwnlOZy5H6nTza3I9HEScro4ypsU7+0BzgnDkzyPf38MCe3WwZctM00MO2tja6/UbOq53CVItWhqEkSdKH6AxurQgRcDbQNzo0MUCUk+okUjNmkWQYP1EX9kVprvPhSdIxo0yL/q+80NHtGmJlfSu5FbNYlqbj2AOkoaCPzfUHGEybzvWF5vcqsNOLMjgyKILIz7F3OahVGvKt6QRd/fSHFOg0ZqbnWfHahzjq9BMX40uyCijShOkeHaTVE0KlMjBFVJYZei3RaJiewR6O+sdnqlGLcbk5ZImMjvgd7Bpy4Iu8e2tEghKzIZnpmQZ6B4dFwIXQaBPzE6EfdXLQHqE8Nw2NCOsjI3ackfGp9CotRWkZ5JrE+pBJKEmS9KH6SD6OLRaL4QmG0On06E44kJtors/vI64zYT7d1aOSJEmSdAbks0klSZKkSe9DuYBGkiRJkj7OZBhKkiRJk54MQ0mSJGnSk2EoSZIkTXoyDE8hFvOzr6GBI54PepJAmMaWJvbYfYTlJUiSJEkfazIMTyYeo6uzgbecUfTqE+/hiDM62MnaQZf4nwrNae77C0dCOAMB7BM/zmDi6TN/StBYLIonOD7OEQgRPPa2REmSJOlvTt5a8YHi+F09PHywnylV1ZybaTluryHsH+HVg03EMiu4siQDw6nCMBaioXUf/7n5CM6xeyOVmLRWrpg6k6srMtAp/DR2tvL04SYO+aIYNcksnzaX28rTjuuhQ5IkSfrbkWH4AaIhN+8cPsiAuYQrynNJOeaRL/FYmLrWQ2x0mLhmRhX5Z/BgVPdIB/cfOkptzRKWpMQ52raPP7ZFuX3JUqyOAzzWEWXulArOSTXhH+7h2YZ2qmedy6WpZ/qoOUmSJOmvIWuPE0XDdHa20BQ0s7Qg+7ggROw3OPuPsrPXx+KKsjMKwkSVOeKLoYxbKE4xYhLVYWVOCVOS4ozaWnmrM8rFtXO4JjuVVK2OzNQMKoxB2pzBieklSZKkvzUZhscRAeUeZG2PnYqyKoqNx58rDATtrGwbQJ1fw6yUM3wAaywkwtCOSp9B8XjvT/hC4URJTtg9gMdawJyUP1WA/mCYUV+iJ4sz75ZKkiRJ+uvIMDxGNOBmS1MnpsKZLMs4oc/AaIg9jUcJpk3h8uK0M+41IhwKMeAYRJ+VNfZQ8YBvhH19g8QtpVRalChjIhSj8cRVNPjco2xqqsOZXMyyJPngVUmSpL8Xec7wPSEaGvbzViid22tKSDmu26gItt5GnuuDK6orKTGfaV8Zcdo6DnLv7r1E8xYw3xLDM9qPLZbBNQtmUupt45G6AVLMKSjVYpx9mF5DFrfPFlWpTp4vlCRJ+nuRleGE0eEe3nboWFqaT/JxQQhej4O3e9xUFBSRd8ZBmCj2YoTjCnLzq8nBRa/HiyWtjM8unMlUoxJ9einXTssjEnXT7Q+SUlDJt+fKIJQkSfp7k5XhBJ/XxWBUQ67ZgPaEXYRwOEi/J4jVkoRF5pQkSdInjgxDSZIkadKTh0klSZKkSU+GoSRJkjTpyTCUJEmSJj0ZhpIkSdKkJ8PwIyYSCdA2YGMoMjHgGPF4mM6+XnqD0Ykh0vskrgeLfMDKkyRJOgUZhh8h8US3UV2HebHFRuADrvEdHWjimZYBhj6oe8WTSMzm3Z9PuqjfxhNbt3LP3haGJoZ9mBKfz6HG7fx0x162j4Ymhv75JsvnIUkfJzIMPzLieB2dvN4dZVZ1JQUnPPo04htkVZuL8pJSas2ne1RbnJDPzso9O/jyyy/z6ZdX84/rtvN8dx/OiaIy6uzhuaPd9AY+QVWmykCOKUyDX4lpYtCHLdViReu10R36cx+XF8Nt7+fBTRu4/cUX+fSr6/i3DVt4c9hFUCajJJ118j7Dj4ho2MXqPQdxZ1ZxTWkmxmMefhqL+tlTf5DD8UyuqC4h63S9Cce9vFO3j62eJC4py8cYdbOxpYe8omouyrficY2wv/Uga5xGLqkoI8+gISsphXStUlQ/cTx+D30+HyGRkya9ibwkE7pYmE6nC3dcgSnxmqgYqdKSlZxMhirGiMdFfyhGkkKBW4yLK1RjDynI0WlQKeL4Q356XF4C0ThKlYZUs4kMvRZlLEjPqIeISkU0GiYQi6MXyyxMLHPi7ZyK2+fG5vHjF+0yGwwEew/wcqyCL4m9if6QmlKrGZVYf712D1FDEiVmPRpFDIfXTZ83iFZnEOMDeCIqMlPEe9GpUYoKMLEOerz+sScIacT7TNFpSTUZ8bvFTsauOopmTSUtEkZvEOvHItoq3vcpxUZ5dOs+7ElF4jNIG9u5ebPFwbKZtcwQyd0n2ucTYV6ZYsLvd9LtC2M2pVBg0on2RLCL9Wvzh0nsuijVWrItyaSJzysmxtmcToaDiUPDKkxiHWRZjJjG2hOmf8TJSER8Hok2CGaTlRwt2Fx2guL1IbG+tWqNWNcRXDHt2PoyqeQ+sjT5yDD8KIgEaTx6gPX+FK6uLhfhdEzVEY8y0NPMC10ezpk2g9pk7ekfEh7xsqW5FY/CQkm6GY1aTYrYkFvERjQW8rJu3zp+3TAkssxCbpIBkzmNG2bM49x0LT29HbzV1cf+0WF8sZgIgCQunjqP800+fr9tI7/v8HJeRiY+ZRS1Xk9RWiVfnZLCtsNb+f7hfualZqEQVW1cLDM9pZivzaogWx1iZ8thXusYxh4Goz6ZKcX5XFGYhzXSx2/WbONAzEhBkhpHOIpWLPMrS1cw95Qdd0Tp6etjfXs7h2wORkWY5qdYsQYclM+YC117+UWnnjsvnEtOsI/fr9tKR/Ycfr64lkKNn62NB7l7xyE8yYXUmgK022NUTp3Ft6YWobD38rpYf3sdThxRFaPeAJV5lXxjyXT0jnp++1YrudkmmtxuUBu5ackKFonP5ZRCI7x6uJv0tHQyRcBptGKHQASpSayr/r56/u2N3XhyZvCbReUcbd7Gjw/buGD+JXyjOhu/vY1n9tRxNKjAGw8zFIhw/ZKr+EKRgfZ+8d2ob6fBE0SpNFGal868wnIuFJ97wNnEP79xGI9WTTwSoNMV4sKFF3JHZpw/rn+d3dFUrEYV4WCYgmQN9Y4k/uPiRSyyGuUhI2nSUf1QmPi/dFbEGRjp4eWWERZXVjMl+fh6yOcfZfWRJlILpnOu2ACfNggTlFoKrUmolBGcwRBDdhtH7QEyrakkabUUW61EI3GumLWcb8+fzmWlhRQb1YS9Azx+uJecvGr+YfZMrq0qJls1ypaWKEsqi0jz99OnLubLixbwlVnTuCgnmQP7jqAvqWSWLoAtbOKqOQv51twZorrNpq++EYcpGZ+tkZ/ta0GjTyLdoEWrDHCob5TipExqUpMx4GbAUM6/LpnH9cU5MNhKTIRs2SnC0O/sYVXbEBnZ5dw2exafnlZKeayfVSNGrqgpZ6YxTk9Ey6KcHIpTM8lRRQhrzczMTsesGV8/I2KdzC4p46a5c7iuJA2DqFiTVSG2N7RgLqzl87NncF15ITrfAINkcXFRCrbOerZHc/j8onlcN6WYcHcTtpRypp/uOX0qIxVpJrzhsPgJ0m3rpTemE1WlhTSjHm8wyoLicuZlWYgEwhitZXympph0TZie4Q62DEWZXVXFdWWVLM8U1WhaJlZvJz/ZsosjAS0Foho0auLY3cMcHdJyaWk60VCEeGYJ/zClkCylhYVi2itKs8gxqUX1GaAsbyqfn5FNxKXgxvnVxPwwLStdVOyaM+6VRZI+KeQO4FkW8LnY09lPWulMatKME0PHxcTe/J7mFuypNZxXkDIx9NQSFUBd22FeHIxTnJHD7Nxc8kUF0j4gqrKJ04NuXwiVWkNmqoloLIpPbKBFNjI61EGbNo1zxbIMYsMqRmGKaVAmmYnHAxwdCTG1qIhqq2HsYpIgarExz8CiitJh95CZlsusrGQUijjBuJJ0cwbpigguj4PpUxZx45RyLigp4bwisaGfPpXpmWaCoTD9LjdzSkvI0SmJRAMEI1Yx3/G2nkxn3whDmiTmFmSQJPYfguGYeB9RTCIkspRKhhwOdColWlGhRqIeukNKCkTFKYrPMVH3II6kbBaXFJEnKtwUax4rCrJRBkfGDkdfWJiGWUyvUKiZVzOX26YXYhDvuV+UtnOmVpBn1BCLuRkW1fz0pFP/GcXEDs1bTUfY59NTkyPWkfgxh+O0j7rxJ47LaCzMTjbiCTpptXezb8jH+dVFZIv3FYsryM6o5PY5tcxKT8HjtLHfpaJUVHKO0R4U6TV8dnr12Hq9oLiES0qquaU2f2y5KmMK8zV2Vjf1Ek7PZU5+tpinhoDHRaeoMgsy0lA6hvGI+Wf7XShFoCbpdDIIpUlJhuHZFAvQ0tFIhyqTawuSMR73aUQZ6G5kXyiJq8tzSTnD6zUCwQCb6vawqqmRbT029ja38lpjBx5rNlljR/Ii2P0eERYw4BpkTUsd9+zYwR4XGETlFHWNsK9zgMO2Pt5u2sOaHji/IgOFf4S9Tg91/QMcHLCxo6+LZw/W48gtoEQl3od9iL22Yfb39bOnr4dnDxyk2WSl1JosKp9kSsRGtiApSVQlJhKbamPER1QZ4+jgCAdsic6OA4Qifpp629jlUYqwOPXtEaKYomW4hx09vezp7uCp7Rv5t00t+OJhXCLZHUEtcVGBNQ/3s6axjic7eukTX3dlLCbe+xDr2zoYFDsibfZRGkbsON9dnKjWomE/B2028T47WNd4hOdbekGromekn43doFOLHYGweM/9PexT6YhHT93WUZeTNw7t4vWjrezuHWDHkQZe7XFgSUkWgZt4hYq8VC2NA+08v6+HlOIaKkziw4pH6e4+wM83HxIVvpKY2GkZ8rjp9QSJialMYv0W6fRUifWabTaTrzOQHnSjMogUjQZZX7eN/9nRgSLJQmq0lz/sOky73UVj3zCdrihxdZxDHYPo9DFaRjwEAz68xN87vyhJk4k8THoWDQ4d5bVeBefUlouN2vFp5/X081Krk2mV5UwVpc+Z7rWEIjH87gBGsVlb39bOHrGVLy2awq01IlCVCrHXr0SjUNA00MobHT30RkxcVDGF+Wl6DKZUiqKjrG5u5M3uYVSmPD5VW0mZWYdvuIvt4rX5Si9vtrawe9jL9JKpXFWShi5gZ6/DQ7Jex76uFrb2j5KWVc5NVflkGXWkWpLHpn++8Sib+22i0sxhhagwTWEbr9Y1UheIotWZKTaG2NDcRVMsTkpKJtWWk19Ck5Q4Pxh18rqonLfaHBgzMplpEBWhCIuktELR5hB7etrY1G3DIQKuUB3ErkpmikiffY07eLYvgCfg4chAL42ugKiS8kVlqsAgQlsf6OGFw81s6h8GcyE3TiujVOHh7foG9gVCKLTJ1Og9vNTQTnswRMiQzsK0k1+/6gvG0EXDeNwjrOvsGTuseW5tLZfkWzFOXHijV4V4p66VeN40birLQC8+q0T13T/YzZv9Q+yz9bJb7GgoROV+Ve1UCvQqtMY00mNO1jYd5eW2NvFZqplbPIUpyXpU/iHWtPdx1Oul0z7M3oFR/KKKn5eq4mBbE/s9ESxmE85RF32hgNgRUopwd5CUkU2pUYtYvCRNKvICmrNowNZDlyqNOWkGVCdsfJz2QZoDGqZkWD8C3UZF2bV/H3uUVm6cWk76ce2J0d7VzistQ1y+ZCGVJ88v6STiolrv7Wzg+T64fMYUKozynJ0k/b3JMJROLRLkcMtevrW5kbDOQG1RLf+zaAopWpGIonKx9RziO1uP0OKKUFw4hf9ZPIOypFNeBipNiMeiNLfs4s76XnpG7fg1GXztvPO4JjcJUaRKkvR3JMNQOo04oYCXHv/4Y29Uaj1FFsPY/xOiIR+d3uDY/xVKLfkWIxp5jO0MxQmKdds7sW4Tp/CtZgtWjTyVL0l/bzIMJUmSpElP7oJKkiRJk54MQ0mSJGnSk2EoSZIkTXrynOFZlLiPrHWnh8O9USIx8WEkaVm21EimOkZLnY8DbSfczK1QkFVjYmGVJnEP+PuJj7L38Frqhg3UzD2HgqSJ4ZNJNI6txcumQ+/v5ypriokyTYg9DRGS8/XMnaVHGw6x7y0fQ0lqCnVxuvojHN+RhwJruoac9DgtjWEUBi0LLjSSpYxyeIePowMxkrL1zF+mZzKubkn6pJA33Z9FMZGAnXvcPPPQIL9dGcBabGTmVC1WdZy2ehf3/tDGyuY4ifu5Pe4Qa+8fZqfCwBULdejU779iMxYN0b1vNY8/+xy66TdSk/4Brwl4qV/zPA8//BSr1h+k02/jyIiB6YnHvcWi9B1YxS57KiUZZ/gc1I+aQIRtj/fznYf8GL1+7r53hL6wkra3Rtjh1FKdHOHhX9jYMKRhxQUGFDYvP/3HPjaptEy1xNj4pI17Xw1izlcTHI1wcNUwz22JUzFbwZu/GOCXT3pQzjKxPF/JzicH+N7P3ZimGVkwW8efrrGVJOnjRh4mPYtUGhVzLk3lxnN1ZFaZuOmGZEqtShR6NfMuSeaSWi3lNUYqDFECyTqWLNSTrj15RCnVOkoXXM2yCjWRkB+nw4HD4cQfCo8/YisWYXj/K7zREGXBuedxzowM6t98mOe2t4txYbz2IY7uXcfqvZ047HYxrZtQ4rlfEyKhAG73+DxdngARUYkmqluvy4HH78fncYpxDpwuMV1kvLwKiNe7PB58Ps/YuOPaI8TjITxi+vFxbjFuYoEi2F1OMS+PD6/HNTbe7T2DDnVF9aw1qKiZb+H2T5nJz9Nw7o3pXH+egXSjktxpFi6ZpUYhmuf3RcU8QS+Cr2aWmQuusHLlOToycvXMm66kzxZn0Uyxc5KqpvbcZC5epEXhD/DcXYOs61UzVXw+OQV6LrjeROrE4iVJ+niSleHZFo7RttvJW2LjetWlSeS+94DqCLuec/LqJh/7dvkJZln4h+9ncslcPWnmk+/DhH126ra+yKGBOG8+eQ/PvPoGXR612GgXkOhlqH3vW6xuNrJobpXYyKeJcA0zkjyNS0v9vPC7u7jv8VfZuvsAO95Zw+o3D6Auq6VcLDvqdbJz0+s88dRvePChVazfMUTYmk6mxstzP/kqv1m7mfq6zTz14KOs3rADl8ZKZnoSm+//Af/30MMc7Gvn1Qfv5cVV79AXVJGZV0CKUUVn/evc+6ufcd+jL7Jq9X5GgkYK8rOxeOr57S9/yP/88W3a963jgYceY/OuTgqmTCfLqk9k3gdTK8mZYuK8JSbS3T6efivAlIsyuPmqJJbOM5CmjXFk4yiPr/FxYLuHN99ws7M9RvWKFC6oUtO9284Dr3g5tNvL9m4lN/9rNrdfbR475Hx0o5O9ZhMXaXy8eTBOXoqoQg/CiluSKNZ/LOtoSZImyMrwI0ylUTDzqnT+7ZtWlswU1WOmhmxROZ6OyzaC25fOd358N3+8+xcssLhZ9eIbDEb1VJ9/B7fPcvLsM7/mt3c/w4HeCIur08FUyqe+9Z/829eu4lP/fCePP/44Dz/wE66ano1WGaR502qa3Fa+/C+/49FH7+Pn/zKfgc1v0e4xcvlnbifL30n+gtv4zf2Pct/P/40sWwNbD3az4KYvMTd5mGj6Mv777od46J47WZEV4K2Vm7GN9PD6I5tRF5zHVVddxaUX1+BqfY4HVx4hnjWDL332Skojycy78rs8/sADXJN5hLfqehNHQk9OZJIuWUNupkq0+91hCsypiV46lIz3W6ti4dUZ/P6JIu79dTYXlh+7TpVUzEnh+z/J4gtXmrDGIzS3Bhh0jY81Fem59YtpKPc5eOBlL87A+HBJkj7eZBh+RCQuYzrxSqbE79oUDRd9KYdv32rGOj74tFKLyzj/uqsozkklOS2T2mklmCPNDLmi1G3aQ+oFX+EXv3yI+373fS4scbNxTb2YSolaZ8Co16DSGTGZzZhMRrSi0gI3fY44OdYSMlKSxXATGcXzqAiP0GBzoNCZKJ8yg7nT5pGWLManFlGTH2FosBM/RnLz8lg4bwXZohI1JWdSmJ+D2ruPno5DHG524HIPMTQ0xPCIHU3KFMrzDCK/lGgNRtIrajh/fh7mzEyyCvSimccctz2N9w7FTvwcS6VSYDSpMJvEct53MZKSmovS+cn308hotfMv/2VjV//EqLiS4rlWvnizjkPb/QzaT5yzJEkfRzIMz6JoOMLaBwb47SsB7PVu/ueng+ztjRJzh3jjwSEe3RNi32tD/Nf/DnPEOTHRaQQ9TvqPtrD60Seob+9npL+buu31eHVzyDIG2fnaw9z94Nt0d9pxhkIiyFJFWGWMVVQJSqWSSG/inGEv+zc/xI9/+BidDg356QZ6B+vp6hsaO+830L6XFlMmU7Ot6MS3qLv1MFv3bKJPhJpzuJ3mgTCWJBFiWhgd7GHjptdpH+jHMdJPd38fTlUtuUVzOHdhFQU1F3Dzl77El754BxcszBUB4yKeOGfo9hMK+/EGwkRCvrEOcINep6gMTxNAYv2teaCXz/7QTk9fhJd+1sV3fzFC81Cc1s2jPLcjPHbxkt8fJxoR8+yMsG+9nYd/N8A9L/toq3Py3ZvbuemWDr79Oy8xsW56drpYuTnA6D4XG3qULL8ljS9faKIgWSHqTEmSPu7krRVnUWLVuwcTfdSNfwQKUaLk5KgwiHBxjoQZdo0PV2uUZOZpMJxmqxsJ+lh99/d5oX6YaYsvonvXOmxeBQsuvIYbrr2UbFFYvfXL/+GgL0Db4VYcWi21i67js7dfTUmGGBmPMNi+kjt/+jgtQ1Fypszlmotu4dzlZSiDHvZtWc2qp1dyRFRDlvwlXPPZy7hoVgHeprd55OWniaXMpHHHNkK6NC781Ge4bNkcjN5uXrrvGxzNuhnnnjcY8ChZfMUNXHPpBSJI9Di6j/L6c8+wcet+HCo1U5ZezNXXXcd8bSd3/vouXt3tYcWt3+T2WUPc98tfcSg8hZv+6Yd8flnBxLv+ALH4cesvQSuqwIx0NQpvouf4GAaLWvyuQhWPMdgRJihWungJHm8scXfGcRKHq5MsSnzOKKG4AmuOFqs+jssWweFXkFmsRj6aXJI+3mQYfsJEgn6CourR6BKd1IaIiWBQqrXodePdAkWCwcSRPsKhyNihQ6VKi0GvGZt2nKiU/IHx+x6VKnRa3dghxYRYNEJITD8WFgo1Wp0WjRg3XP8WT61ex8Kb/ptp1vErRdVaPVqNCv9QG6888H20Vz/B5SWiIhPtUYn26CbakxAJBwm91x4NOr0WpQipxLLCUdGQRBu1SvF7gPFfDejlw6wlSfoQyTCU/ioB1ygrf/tv3P/2IfJrb+L2f7ydpWWpJLIqEZ6bHvoxv3vyKaIVn+e2z9/EpfNLMcrjipIkfcTIMJT+KpGAj5Z9W+nyiApUlUT57JkUW8cPGibCsOvwDpoHfeI3PQU1tZTnWdG8WxJKkiR9RMgwlCRJkiY9eeJFkiRJmvRkGEqSJEmTngxDSZIkadKTYTiJ+Ee7aG5qYMhzXB9FkiRJk568gGYSaV73e379x2eY9o3X+NoS6/u7aBJfBWdHPXtb+xh1BMksLCDJpSZ/WRXpOvXEi/58Ud8oHb0DWHIqyTT/5fP5c4Qd3dQPQ3lhHqb3HlJ6FsQj+JxH6Ok7yvGPVE0mLX8uKXTT2ddCJDb+mDmFUkty2gJyM7LwjWynd6iXMBZSMuZgDB9l0N5LRGEhLTmfUKATtz9xpe6faIxTKSmoRK2S969I0p9D9loxiaTkTUXb+wb2/KuZV2h4Xxja69/g+c0HGB51099nxz3UxRt/2EfW9QsoMhx7Y/6fJ9B/mGdXriKePZfSNO3E0L8tV93r3L+ph8rySlKNH0IAjwZ4/JFhnn7Rybp17vd+Nu/0o8ozUpR6kvtFYm4GOl9gf2MjytBBDh0+gFYXoLd5FwFjManaQQ7tf5zO3kF02hieoSa6exrRpc9B7TvAoZ3/SZe/iIyMKpSBJjoaHuJAX4ii9Dy8w6vYsWeHmJ+KUMiJz7GbxjY/Uypmolb/fXY6JOmTQlaGk0g06GXdbz/Npox/IKVlLfvbRqlafBm33nw1ZVYXr/zwcdTnX8Zl50wbe96m3z5IW4ubvLmlmMN9vP3yQ7y45giugJH8ygv47B1XUVtiFht8H5173+bhx16jcSiANTmb/IWzuOyCqyj2b+VXP/o9Kxu6ycgrJ82kJ7dqBV/8zh3UJCnwjPSz5Z3nWL1pO8Mj+VQtuYTbblmGqvEd7v/jvWjOuRpd0xYOtfkoqF3Mp269mcJoP4/f+Z/Yai8i193MgTobpuwKrr7tDlbUZtOz7SXu/PFv2GDXM6U4F73aTPXy6/nS5y4j9wx64HV2+nj4rj6aitL5jzuSyUsWQecLs/9wkEHH8Q8KV+uUlM00U5wyMeBEUSfd7a/RF5jP7LxW3t42yIoLLqRzz4s4rUuYXlXOYNPT9LlrWbBgMVFXC4f3348z6+ssK0+nedtnsBc+zKLEAmJBRpt/xzuOxVy/cBFh+yrWbeliwZzp9A53kJycREuzhyXnXIdOpyMWjbN1ZT93rY5y6e2ZfHGpbqJRkiSdSFaGk0g8GqbujT/yVkMq1918E9dcch7WiJ2NG49SUKplY3OEpYvnkGaMM9jbRs+wG3RxUWUYaNmygb3tMabPX8zM6dXkmHrZWj9KeWkJlsgAr65cS198CheumE1BSpSufh9ltXMoy8+lIMtCQK3l/Ju+wWevv4hFc2vJTzOjjDjY+ORTjJYu5dOXXM7ypfOwxpvYus/FvKVzibe9wqp2I1dfdwM3XHk1c4oUrF95iNz5C8gN17NyZytzL7yBm665luUzM9j95h6iOWVUVVRSlhZhOHkan7/jC1x3xQrmz6wiM0nPxJPlTsk/EhLLsdNtNnHhfAPJBjGR2GUMRcTqMChJSlK992Mxq7CmqjCdtNPlEH6vjZAilwzjEO3dXkpKK/E7BsCUT1pKkqjw9mIbCWAyiercdoB+l4KckvNJM0QZ6X6ZQPI1Yp0mnh0bFW3bRUeggJr8AmL+Ixzc+yhHu96m0xmnoPwmppTVYDCIGQmJMGzc5+S1HRGmzLOwsFRWi5J0MjIMJ5FEGHbXvYnlwu9zw+Iy0jPSyUzR0LP7SbzZM+ltHaJ8aiUpMRtrnr2Px156kafuXUt8SgWB3a/wyvrD9PR30NzUyNH2PjzKTJbOnUJyWgomjZeDe7aw71AzzV1R0ivLmD+7hkyLGYPSQ1NXP2VzL2FOeTYpyaaxx7WFQ42sW+lh6bXLKcvOJDUtFas+ibrXV6JbfBHJPW8RrLyNG5bPIycjjZSUbNz7HqM3/3zKRBiOWmZxxUVXUJabTkp6IfHGF2nQVYtqNR+jv519dgsrli4RgZxOkqhIzyQIEwypWpZensZVSw2kmhXjHQmLsHry8RFefN3D9u3e934ONoVIqjBTnn6SmSt0mJNKSU+xEg+2TIThPNJya0UQZqARYemyvc1B8bkM2Y/Q2VOPteBapoqdDGU8dOowDLTRN1rEimW3ilC2Yk2bhtUyHoQJSvGGS6ZauOXaFOaLIFSf6QqQpElIXk06yQQ9Lg5u2ET3iI94LMpQfT0j4RqKC/OpUvbxzpFeoskl3PStX3Dfz77BlfkLmTOnjIKKOSy+9HP84Dd/4MGHH+aeX/0/ls4pRadR4R1op2PYxU3/8VPuf/D3/Pd3luAZaKSl3z+xVMEnlhcIEg70smHlk7y0po6wIlNUof10jbjGHtIdFxv70cEj+JILyBfVWCwWo6luF312+9gsop5Wmu3JmCfOh7U17qPD1j9+8Umgj6YRETxazUQHvoJTVLaREJ7RI7zw6GPsqOvjTK6j9Q4EeO3Bfu5f7cPhnziLkGnk6/+ez8MPFx3387tf5HJx1Wn+jBSiTe81apxCqRbDEgejxfzVuVTW/j+uuvIPrFh8HaGRbbTahsb6dEwy5eEZPIQnlFg/TkaGWzAb08ZnkiDmbbDOZNrU68YuTuptXIPNO77eY5EI258Z4v7H7LQ6ZBBK0qnIc4aTyN7n7ubXDz2Met4dFPobONrrpKB8JhdcexMrZhfi6Wxi27p32LFlG0f9IVSpOaxY+GmuuXUBxlERlG+tZds7W+h0e9GnpTPjkpv5zIXziXVt5akHf0qLoxS7c4SY0UzNRZ/js1ctJteoIioCcM3zd/P86mbCag355Yu4/spbmTMzDVvDXtZu2MD+LfsYUuRQMG0OF197CedXp7Prgc/ysH0OpeEeUXF2kVM5lSUX3sClS6sZWPtzfrfHRa5By5EDzehTM1lw0Y1ccd4c0vUaws4DPHDPPWw/PEpcr6d0ymXc9ukrKS+yvP8q2hOMNrn54T+1cWBKLg//VzplJ6v6zlRkmK7Gx9h3eBUDjrCoyKeRU/EZZk2fR6z7Kd7Y8hCugIHyuf+P2ZWz8HQ/yu79Ryha8A1Kk0VVffBJumx9xFRpJFsXMGP+rWTQwI7t/8eBlm4xv9yxxcTjMYI+MzMuv5vadDO+TgffuL2f7oUZPPGDdDKMYy+TJOkDyDCcRLyjNoZdPkzp2UScg3gDEfSWVLIyrYzVWuKrEHKNYht2IAoRFFojGRmZWPTjl+kHvS5Gh0bwRWOotHrSMjMx6zTEI0Hc9kF8ooryh8Mgqp6UjBxSzNqJQw8x/J4RhoZchOMKzCkZpCdbRGU0vgH3jA4y6vASQYshyUpmhnmsPXse+jzr0r7OrbMzCYVCaI0WMjLT0Ysqq+3Nn/NcXwFXrTgXXdR3XHvGoyuCS7zfEUeAuEKFNS2LZLMB5WmKuIRYJM7IQIiAVk1Ouoqxzv7/GqLiDQWG8Pq9YxVw4oCMVp+B0WiC0CgOj2NsqEafhcmQuCDJi9c9isqYiUGjIRIUn5VPTKvQjk1nMugT96vg8Q4REtXfsRRKA8ak3LEOlxuf7+FbD0f4zP/lc+sMeb5Qkk5FhqH0kZTo9PeZX32NbbrL+NSF57Jw6SwyJi6G9ImQe/MP/8xLfVmsWH4t51+0gKLkv88tGx8ne18aZo/GwK2XmDD/5XfGSNKk8Nfu80rS30RAVEaG0guYao3R3zdE8Jg7GqLhILHU6UwryME7YsMXk1/jDzLnunS+cqUMQkk6E7IylCRJkiY9uUstSZIkTXoyDCVJkqRJT4ahJEmSNOnJc4ZnSSQYwxuIJ+5mOI5CqUCvg4BfjCNxG4IStXhR0BcnEE4ME3swYhdmopODMUqtAqNevO4Mdm0SH7ffHSM0Mb1So8RiUqCIxnF5Y8fNd4wC9CYVenllviRJn2AyDM+KGK0b7dx91zDrj8bJLtFgVisIu8N44kY+9zUt6+9xcGRUwx135/KluSq2PWbjh7/zoC/XU5ASZv+hKCmZGiwWEZ7lWq66LJ2r5+sxneYOA8+Qn2d/1s+jm4O4tRrmXJzGD76dQoHHxy9/O8QLr/qIp2vJESGcaKd9KM4F3y3g/12lP+3N6pIkSR9X8tmkZ4WClAIDJUo/6w6q+fqvMllWpmdeZoRNB+Hq72ewQBNm5St2NvfBinOSqTSHWftOmKv+O4cbZyjZcSjCbf+Wx/fuSCHPHuTxh5xop5ioylWd8ti31qRhWrWW/oNORqdm8JN/tFJsFZWhSNHamUo6VnrJ/FQ2X73EwPyL9TjXeQlMS+ai6e/ezC5JkvTJI88ZniWJhyjr9Ur8Tj+P3dnP179no05j5CtfT6E8SYXeqEBbamCKzcldIui6AgrUKtAZlRjEdBrxf61BSUqahmUXJVFrCLHlQAD3GTx8MzGdXlSQKlGNmgyK8S+BSDqtXoEqEGP7i0N8++v9rD6i4IJ/yOCSWTIIJUn6ZJNheJapdWoqqvWUZCgxlZm48HIT2UpRqYlxurLEIVMrrleH+MMrXrwnOaCtFqFmMCaehR0neiZPoj4FhZhXXrGO6hIVRqOWZTelcmGNPGEoSdInmwzDs0wvAueSL2bzyBNFXGP28s0vd/LorsjYhTWJi2nK51i543oNbzxtZ2fDiVe3jPN7ooz6wSKqyfGniP7lVFolZeemcucjxXz9YgN/6hBIkiTpk0uG4VkRx9HjZ+ueACP2ENvedLF1h5d173g50hSgpy9MQ10Ae0+QVo+apbdkcNsiFcpg4irUKC2H/PSK1+x828ULz47wxwdHOWo0c+0yAymnuYAmEoxwaLuHQ21RbE1imdv9OEMieX1hdm3y0TAS4eg+L4d7omMd2coviCRJk4G8mvSsiDNQ7+HNdT76fRODJujMSqYtNOPa46LNq2D6halcME1J9x4367dGqb3SgHOri70DidskxqcxW3VceHkSVfmnj66gO8TWl+zsTkyvgORSEzddY8bqCbJyjYsjnePVZ9EMMxefbyJVPv9akqRJQIahJEmSNOnJo2CSJEnSpCcrw08Qe5uXHXVhvImeeT9AUrGBJdN1p70xX5IkabKRYfgJ0rvfycpNARz+iQEnyJph5prlRqxGedegJEnSsWQYSpIkSZOePGcoSZIkTXoyDCVJkqRJT4ahJEmSNOnJMJQkSZImPRmGkiRJ0qQnw1CSJEma9GQYSpIkSZOeDENJkiRp0pNhKEmSJE16MgwlSZKkSU+GoSRJkjTpyTCUJEmSJj0ZhpIkSdKkJ8NQkiRJmvRkGEqSJEmTngxDSZIkadKTYShJkiRNejIMP2Ii0QDtA4MMRyYGHCMeD9PV30dfMDoxRJIkSfowyDD8CInHY3R3HeaFln78sYmBx7Dbmni6uQ9beGLAXyAYDLBq12Z+ureBNu+pQ7Wh5Qgvdozgj8YnhpyKjx2H9/CLLfs44PkrGniMxPqoa9rBnTv3ssMemhj6EeEb5pkjrbT4w3zAR/U+o8Od3LftHR5tO9P1+eEIBB2s3LWJf3/7bR5tHcI9sZPV29fJ3ZvG2xP4O7ZHkj6qZBh+ZMTxOrp4vSvKzClVFGgnBk+I+IdY1eqirLSM6WbVxNCTiROKeDnYtIdvrXyFm194hW9trKPOE0elUmHVqgk4h/AqFBOv/yAeDrc1cWA4IOZ2qte9S016iom+ITsne7l/sInH24bxRM5845tsSkHhHqAreLr3/AFEmNp66nim2z0x4MPjcw+xvm8ARyh6Rn9Eer2FrIiLLn/kDNfnh0Ol0lGWlYHRF2HY5SM60ViTyYTJ68QZjaBQ/v3a87cSdXbzbEsP/YG/31ETn61RfJ9H8MqdiU8E1Q+Fif9LZ1E07Gbd4WaU2RVclJeM5pjtUywaYF9zI73aLC4sycGiOvXGKxrxsKnxIK+NqlkxbSrXl+RiEBuLPT4F1RkWYgEng8MKctP1jHq9uMT2Q6/Rji0zGvTQ7HBi8wbRW9KoycmiwKhmPDdjjLqddLjcDPr8uMIx1FoNWjFSgQpNZJidXhPzU5QMeH1ivkosYjzREAPOUTY17GWnz0CuTiECMYYhscxTbIgVYwtV0dfrJF+sE7/Xg0e01SjmqRobF8Mj2tMj2tPnSywPksQ4pRgXCvloGxninfo91MUzyFGHxtozPn5s9icVi0Wwe5x0ujzYxHxHg2GUKi0Gsd5jsTA2h52esIra3AJqk03HvYdYJEiPw0GPx8tQIEw4FASNDrNeR2eXi9QMMzrxmhExT41GrDul8rTRONYe8T4/sD3xCDaXg063hyFfAJ9YB1qxs6MZ/8BQKTWkGVR0jTopy8yjOtU4tjy9NsChFjtFGclExecz5A8SUWkwqRPtieMP+ekU34N+8f0YFe8jqlKiV6tE8ItxAQ/tdhd28fn7/G7xXv0ExOdkEss93Y5BwOemy+GiT1TUGvH5DTpdjIbiGPVq/GJcuxhn8/qxByMoNWp0E+sn0cYBp4Nu8T4HRZsSyzaK749aEWfENcKOo3VsHApiNegJREJjOwGJ9ROPx/H4PWLdORkQn0li/Yx9f8Tn2Cnm1+cP4BXrtNcj1p94n0oxT4MiyojbQbvHRyAQGBs3eMz6iYr59ztG2Ci+z7t8RvF9jouKO4bpNN9n6aNNhuFHgdg4trTWsS+WxsWl+aRpjtmkxKMM9rWy1hZmUUUFpSYRTBOjPpB4fU9vJ1tHNVxbW8uCVAsZZlGVYOftoRDVKUn09dXzfJuNupFeNnb3sX/Uh1FnpsikYbC/iZ/vERuWzm62t7fQqMjm3GyL2GgrGHb08OLhOp5rbmFrl402nxen0kCl2SA2Sgq62o5wIGakq3Ejv23owaFKojYtWZSEI7y8Zz2/bhgV4eDl8ECvqFKhPC2dDN2pNp8xXO52Vh3uxecZYk3rUXb22kjLLqRApxIbSC/1TaLyq2tijWjrG91Opudmk67TMDrYxmN7t/BgixdCDvb09tAVNTFNtMekPsUaTFSTIx08sX0Xq9q6eaeznVeamlFYy5idosbnG2XVnp38fn8jg5o05mWlYpooWuO+ETY1HeXF+gOs6ejhzbYW3mrsJa24hAqNgzfrW3CJ4Noi3scbHR14dClUpoh1e6oP9N327Di+PcrUMmYlq+mwtfD0wTpebWlnR++ICGlRyWstlBr/dGjB4xxk29AIhfkVFBnHGxt29fNEYyuNQzbe7O5mZ5/4PMWqKhfrRxcLsLPlMI+L9fq2eB/7h5wMic8312QhWRmlvbeJn67byJNt/XQOd7G6qZ0DzhBTxLpPPcWO2uhQH6sPHuHl+qPiu+hC5+7m8cMdtAa1lKQr2Vx/iGcaW9jY1Ue93c2wQkuZxYSeMM3dR3h692FWi+/l262NvNw1QmVOIZkKHxsObuDOul6GRai1jAxwUHyfM1NzxHtV0tvfyUrxmbzc3MSm7k7qR0bQmzMojjt4dMc7/NuOOvoGR9jQ08VusS46PFpqk2DjoS18beMeWgZG2dLbxba+Po44oCo9BaV/mBf3vMNdDXaxE+vhkPg+13sVVIjvc7r2TI4TSB9FMgzPuji20R5ePjrMosoaqpN1E8PH+QKjrBEbpZT86azIMZ++ihAVUX1nI970aVyQpXuvCuq3iY1dREeN1UiTCF5P9ly+vXgOn5taRXXMx24RboUFeeRas7miqoprpkyhMBDBnJPNtGQ9arEBuG/7dtYNhylKFhtFsScfDo2ypyfGxSWZ6FUBtoiN8g5nnOmVU/nS7DncUJI1Fjw6vZmaZC1D8TS+u2wZn585jUsKs08ThIkciNHTdYStoSzuWLyAG6pLCHc3MpBcwQxLnL6hAbb3ORhVa7Cooc2tYbmognMMWsyWdKr1AQa0lfz6wqV8emo15+ZYTx2EY8J0D3WwZSjKPLEOri+r4pwMUc2mZpGjV4mqy8SMwgKSwwpK09OoTjeLmmh8uu1iR6GNVK6fO4fP1k5jocXDO30qrp1WhNElgmAgyOwps/jivOlUxuw0+DVUZaRx6qPeYbpEe7ae0J6ctCxSfV3875Zd1Ad1lCSbRRUODs8wzcMaLilJn5herKfhERpGwswuKyRNrKcEW99RNjkVLJs2j28tnM1NZfkMNdYzKgLP3d/Inftb0RuTyTLpxz7bA712SpLSKUkxk2ZJRiMq3qzkLG6YN4/bqopJVsewGlNIOXZH7li+YZ4/2iNCvIQvzp/DTdV5xEfaiRbP46sVyWw9sJ3H2u1kWJJEJSsqLFzs7PKzNDcTqzbKns5W2uMWzhHfzU+VlTNLrPeClFTSjQZKUq2EwnDd7OV8e/4MLi8tHAv9kHeAJw73kJNbw1fnzOK6KUVkKIbZ2hpncWUx6f4+etRFfGXxQv5hVi0XZSexd289xtJK5mj99IXNXD1nId+eN5NrS7PpqqvHbc0Un3k605M12Mjg++cs444Z07i4MEsG4cec/PTOsqDPze6OfqwlM5maZpwYOi5xyG1vcyuj1mrOK0yZGHpqUVFJBGMRDHrD+AARKE6HCA2xh1udloFFVIh9vnQ+PbuMcqMIXrEMe1RUExozycfmRMzJUb+CWQYVOjHc5xrAqc3kuqnTWF5UxNKCApblVfC5mSUkadXEXTY2Ri3kxUbYZY+TnnTse4kzaPeRnZaESVQs4WgEfyQqhp5aTFS5/aNiI15bRYGoWmMxDyN+K9OTlAz0NXNXXSNBfRrz8/Io1MQpy00h3WCY2GEQQTrkpzw/DY2oVoKR0BlduBKPK8jOqOS22VOZlpqM22njoAjZ8hTNxCvEnANuWkMeQhoD79VfITvbvVrmiTAuNOhFkEdJSS3nK8tnUiaqWNuon/y8XGZki8pCEWIkoKJEfEZJE+F0Mon25Ey0p3aiPYc8oj1iY+wY6SaWOoVbaqpYWljI0vxCziuq4sapeRNTC7EQw14Hal0Ghe/tZ/lpGfZTkVfOxcWZJIlPIhAUlZjaQJr47rg9dqZVLuDqitKxz3lxXjE3i52JqRnmsakT739EoWGaCI0pFjMmUwrLS8spnqg6P4jP2U9DWMP8wgxS9AqiMS/7XRoqxZ5APHHYPqzk/JqZXFRaPLbMRbll3DGzgmyz+L6IaJxdWst1NaWUmfW02QYYCGnInlieyxtEo9GSbjWJ+Ubxh8Pi70BUooPttIn3nfjbMYjvRyymEN9/sYMo2iwWSvNIiOnFpVRbDWMXa4UUavItYuckUf2OesjNyGd2VjIKRZygQiWCOoN0jQqV+H1AVJ+56eL7LIL7TL/P0kebDMOzSfxBtnQ00q7M4DrxB2s87tOIYutpZF/QzFUVeVhPWT38iVqlJkWtpbulWezND7K/pZVn9h6hy1LM7DQFTb3tbB4eYntbC3Vio7K++SCbHFGWzyg5bvlh+yBDJgN6vX7sd73ORJ7BxJSkJFEZJlMm9uDzwz4Rumo8QR913f2okjK5Xuwl07ubn+1vGzsvFB2bOnEeLYDfF6R1ZIDXGvZyz97DtPrGRn6wWJi+0QE29YBBVB2hcIC2gR72q/QoolGR4VHyzGlU5KSRqY3QPRgkWaVDJTJrfKPkpX1EbABFaB0a7OXZ/Vt5pLELUdienNggdvcc5BdbDuMNa1GLjdyI10W3JyCiVUSIz0mTWHc7enrocTtxhwI0jrjwxsUSYxqMYsltw8PUDfWzv7uJxw42MCqi2eN3sKXThdh+giKGQ6zbHR4/Q6hRJqY9mRPao0y0x+Oiyz3eHpPJSpEI1KnWFArFZ1JqNJMt3q/WqCcq1lfH6DAH+3rZ09/DkFZBy9AIQ8EIQyP97BVt3Nrdyt7eXg6K78RToqo3FhVSk5mE1ZBCmdipKEtJoUh83qVKJZaYWKaowF1usbPT00uTfQSbz0ODqDqHQ6ePgcT3J+62s6O/j8PDA+xoOcRKURlbdaLy1OrJEFVopclMsXgfJUnJFEVDGNVxwiLM9zTu5L59nUSjYqcrEmZQrIPEOdfxq3jDYr2KnSSXqHbdQ7zZUse9O3eyR/xu0JoJOUfEZ2HjiHi/7zTu4Q3xfTqvQlTN/mH2Or0c6R8QfweD7Orv5jnxeTlzCykWlXCzfZh9A8McGrCxf6CX5/cfpNWcSnGSSWw0A3Q7gvj9wbHDsq/W7+GefXW0+8caJH1MycOkZ9HgcAuv9cZZOr2CYlE9HMvn7efFFgc1leVMSxJ7sxPDT0ch0iA1ycLo8FGeb24Tf/Bh5lRUcXNlPiO99bzQ6SAvMxvXUDtvdQ8QM2Vz/bRqsfETG9uJeYhykYb2TuzaJGqz0sZCUqFPIVcTZmfrUZ5pPsphl5+qginMTjdit3fw5IF+iotLmGoK09g3SpvdiUpsPMqTTaKyVKONh9jacZS3xTJdGhH+lWVUWMQyT3bUMuxgbV09u3yJc2DJ1OjcvFjfSksgRMiQzkUFSbR3d7CypZPDYg8/JEo0UXxSlpdJnk4j3ouWeNjJWtHezX0j6KwlXF+aR7bh5Odc44lK1NbJql4bu0WA7OztExWzlatqp4pqT017xyH+eKieTTYnjlCYlsEBGu0xKgsySdclLgxys7GhgdfaumgSVeJ5oopemqpjoP8or3b0MRAXwZVmoKOzgTf67NhUJuZlWkkS1cYHSVSXfYOdrJ5oz66x9qS+1x6tMZXUqIM3Gpp5sbWV7rCKecVTmJKsFyHQI8J4P6+199PlCzPsEjtGNoeYxkhX+yEOxtKo1EXY1tXJvhEf08uncVlhFhaNjjSxo+Me6uQZMd+NfQOiksplRXERKaooB5t28XDrIIPic2gWOxkHhx0kpRZSbjr1NzTx/ckM21nV3MQ7vaJNQ3ZihjwuKMrCKkI8z6SlubOVp8V3a5cYl5VVzuKcDAzxMO397WJ92cZCfd/AEBnWAi6fUjZ2bj1x4VbiyHd9byurO7rpiZq5sLyKeWI9641WCsPDrGxsZE3XECpTHp+qrRTVpQ7fcCdbI2K5cRdrWlrYMeRlRulUripJQ+cfYbf4fifr1Oxsb2ZT/ygZoj2frsonS5dYpgZNPMiWdvF97hnAo83ievF9LjOf/uIs6aNLEU9cbiWdFf0D3XSq0pmXbuDE6w4co4M0BdVUZ6Se9lDahy3sH+KBzXtJLprJ9VXZHH8WU5L+Ookrfd/at5f+pEJuqEqE7MSIv5soO/ftYZ/YKbuxppS045Yfo62zjVfbR7ly0XzK5Zd/0pBhKI3z2rh37342iz1knVpNaU4xnxEVY/ExVyVK0l/Ow7pde3m+e5iQRs/UvDJuqCmjyKA5aaX+NxEJcLBlL/+8uYmI3sjM4un894IqkrQiEeNRBroP8y/bjtDmjlJSVM3/LKql2DJ+qkD6ZJNhKI2Lhhnwesful0rcp5c4dJUydrhRkj4MUZweL8OhiNjqKLGaTKQk7vmcGPt3IzZ3gYCHbv/4yWO12kBJ0sTFZsSJiKq13RMc+y1xL2eh5fj7SKVPLhmGkiRJ0qQnd/wlSZKkSU+GoSRJkjTpyTCU3ica9NLX14078AH9SEmSJH0CyXOGZ1HiqRftuz3U9cZIdOSgsGhZvNhApiZG6xEfh9rHb1l/jwIyq03Mr9CQuPjtz2Vv38me5hEKZ51PVebJrxkfbljHf/3hcS783M+5dlbWxNCTC7kHObJvC8PmGSyuLcEkH0v19xVxMTq4D7e6krz0XNSnWv3ROLZWH1vr3v/0gawpJkpUQfY1RUnO1zN7ug5NOMT+9X5GktQUaGN0DUQ5vjtNBSnpGnLSxHe2KYLCoGXeeeI7rIxRt9NH62AMS5aOeUv0WCamkKSPInnT/VkUi0Rp3+nmiQdt3P2qn6QCAzOnarGq4rQcdvH7/xzg1cY4SSK3nPYAb9w3zE6FgSsW6tCd4hmbYa+duk0v8sRTz/LGO9txKJMoLMrG2bqT5x78GbaiG5lf9O5jy95PoVKjNSRRVlZNZuKBl6cR8g6z6+W7ePSImoUzp5F6wmO5QvYudu7fT8SYi/UUj+w6UfeOp7j/kWdY/eZ61q9fz4YjPaiyS8kTK+QUz4Me4+89yhuPPszTr73Brro2Dnm8GPVpY+/nL23P2E3wB99gj91KScbxj847a+IBHN2rWP/md+mIllOSWyO+GxPjPoio9rc80se3H/Cic/q4654RegIKmt8YZodLS7U5zP0/s7FxWM2KCwzEBzz879f62KTUMsUQ4+3HBrj3lSD6bCW+oTB7Vw7zwpYYZdMVrPppP7980oN6jplleQq2PdrHd3/uxlBjZMFsHe9esylJH0VyF/4sUmnUzL08lZtX6Mb2ym+5MZmyVKXYu1az4LJkLpuho6LWyNSkGPEMPcsW6Uk7tm+nDxAPONj7ysP8/rkj5FbNZl5tNg1rnuOeVw+QUnsJ507PRBEP4XW7cDqdeAOh956pGPK5x4aFVMksWXwhZZnHbvCjBHzj0zidLrw+Md3EhIbUIs67+CoqsnUEPI6x17h9QWJifDwiNtZ9rWzdvI6D7UNj4zxi3Jl0AWdML0HZtwGXdRpLli5lYZGZAy++RIP71M+9ijs72PTWWhyGUhYtmkdOtI0nH3+C+n7Pe+3ZsvltDnW8vz3xaFCsm/H14PT4CEUmuu6NR/Dahzm6501W7+saH+/0EHqvZ9+Tr5+TEivItmuEf/hiBzff3H7cz/d+NUqrfeJ1JxUn4D5EQ9NbKFPncsKjbU9CIXZ0VNQsTOZzN1nIz9dw3s0ZfEpUc+kGJXnTk7h0duIxcSI3/THxPhQYCtTUzjZz0dVWrlmuJ6vQwGLxmkTXlctma0m2qpl+XjKXLtah8AV45q5B3ulTM018f3ML9Vx0g4nUiaVL0keVrAzPtnCMtt1O3upVc9WlSeS+dywpwq7nnLy60cfenT4CmRa+8v1MLpkrAtFysn2YOKOdh3j18UbO/843uWzJLKqrp1Fs9lB3eAfm/Ln4jzzHrkE9u1++nwefeGEsIFLzCslIMbLvud/xf7+8m6dffIXnnniNHkMhtZUFiG0nAW87rz7xS+767cM89+Jb7Kn3Ys3JJyfdMHZfYqD/MJtae2l+4W5+9sAL7Oz0UVIxBVXveu78wW94ecN29u3cxtrVb7C7yUvpvNlknObpHjpTKp6WN1Et/g63nFdLaU4KXeseZ6jofKZlnvxG6JCjhzfWbSForWFadQH5aRb8cZVoz1SsI1u484e/4RXRnr0T7dnTLNozV7RHG8HRspbf3fkQ9zzyCKt21eFwmCmvykEf6OC53/6aPzzxClt37Wf7+tWseuMgmvJayrMsohpv55XHx9fP84n10+AjNVesn7Tx9fOBxHB9sqjGZphYscJy3M/COQZyrMpTHvKMB/tpqXsWm+F8ZueItkfSyM06TWUoZpgjdrxWLDaS4fbx1FsBqi/O4KYrk1g8TwSiLkbdhlEeX+PjwDYPa95ws7MjxtQVKZxXqaZ7l50HX/FyYKeH7V1KbvmXbG67ykxhMjRvdLLPbOJ8lZe1dZCfEmHbQVhxcxLF+tOU8pJ0lskwPNtOEYb7X3Phn5PGFy8Qe9+lJpYtNpBhOMVGJSY2iF3b2N6eye03zkWrUojtrZpkMc3WuhZiySXEDz3LjoFKvvatf+KzN11DrsLN2jU7yJwxm9qZc7jw8qu45tprmZsewq0zUVFeihE/219+me1HYfq8BUybWkaKooG1+0eYXlNFilkzFoart+ymeySZZV//ET+4eTm5qUYsmWXMnpZH1GDmun/4Md/6wg1csGwGWWfwHMd4NMzRLU+ytcdI0NZK3ZEm7IOlopoW05/wLNdjqc0ZTBEBdfTwK7z0+kb2H7KTM62c+bNmUFRUNdaeiMHC9V/9Ed/6vGjP0mPaE3fiCxkprqykWD3A3pe6yb92IQWWDKpmz6fYYEO3/Hv86nuf5+orz6M6z4pOrJ9tL73MjlaY8e76iSfWz+h76+dkgsNB9hwO0D8QYXDwTz/eqILMTA36UwSbv/NR3t6zn+S8IkJDW7E53CRlLCDFKCq0k61bMVytV5FkVhLt8fLEWhGGF6SxokaN2agQARvl8AbxvZuWzq/uyuaqhVp69/swzEieCEMnh8Imvv2dJLHOtMycomJwKIpRVIe9W8fD8HvXGdjwpIP93SFsTg2XfEaGofTRJw+TfsRpUzRc9tUcvnObGevEsJMSW0CVLo3I8BC9/j8do/N6HGhifrFRNmFMTWf5TbcwrTSLpGQrldNqKNfsp9OROGyrw2S2YLFYxIbRgPrdvAkO0d3WRK9thP7+brq7uxnxWygryER/zCnFkBvGOvmJ+lGYxPSJdBFhbLSY0eu0GEzm8XmPdQY8NslpRUJ+BtuP0NBQT1dAx5KvXcnU05zHtHd1Uz+o4Lp//BV/vP9+7vzepfgadtPSNDjeHrMZg04EjfH49sTC3bxz3yvsP7x37D32+4LYfSHGrhdRKNHojZj0GlR609h0FotJVGHiT0isn64T109gfP0YTtXUWBy/M0x9feB9P+19iW6BJl53MknTqK6Zhc7Tjt01jNc3gi8YmBj511GJ92WyqMR7VPK+/Q6FiumXZ/B//5FGevMo3/6PAXb1T4wTm5SS+al84dNa9m4Rn539DI6HS9JHgKwMz6JoOMLbfxzgnhe9tHWFaRmIU1mrJ0sRYe2TQ9z9oo/2jiDdAzEKZptOe1gxEYZatQ7HoVU8vd1GSUkWiA3lG8+voUU/g0vn5XH07Sd4Y0+Y4tI8TKow7Vs2sK8/i+UXzyL5mI2eo/UwXTEzFaWiMhQhGXV7GI5kcNGN13PJiiXMqEihvttBSWEhyUYljvZ91MUruOXKefRuWUV3IIeyfKtoj5KIe4ADu/eiT6skTdcj2vMkGw8pmDazgETN5Orycf+Pu3isMcasaj2WiSoi7B2lee86TOf9B1+54QJWLJhBdsopqp4Jg037+P1v/oDPVEN+upZw0E5X3wg5UxZQnGkk4uk/rj1rnnuSTYeVlOcM88I9Lcz67Fe58fwFZAZ62LzDTs01Syi1GFCIytvWsIHDQ1nMq9TRuOcFHnjkCMWzazGHAoxEs8bXz7l/Wj+lYv1YT/ZsS/FGDOJDXbLUzDnnHP8zu1o31lnvqWhMxeTmL6Ygb67YCekloJ9GVelS8XlNvOBk3CHWPG7jR/e6aGiP0NPs56gtTkmFnpFtw/z6KS+qAiPnnWNA4/Kz9n4nR0SlGm3x8Oyrbg62hKjb4ea1l5y8/o6fURGOlRkKNr3moFl8hyuWpHDeYi2hBlHx+rVc8tkkimRlKH3EyVsrzqLEqncOhBnyjH8ECq2S3FxRuYhQcgyL4c7x4WoxPDtfM3bu7rTiMVzddbz+/GO8ve8o7lgSM5bfyo2fXs7wqt/zwMq3yVh2C5rWjWJj7WTK/Au5TmzAZxanTfTYPq597VNsiWRx6QXnI/KEsM/NrrdfZ/WLq2lyerDkl3PpzZ/livk1hPv288gvv8e+rC/y3evmsv5XX+WlNi2zrvsa/3LrReSYnWx49bc88uw+/CozMxdfyacuu5KyUsvYoQl7q5df/UcnDZVp/PJb6RRNdN7YuPpO/u+e5+iI5JOaN53vfPMrLJ2eOzbuVPoOH+T1J++nYyRA29AoqtQirrzxC1x13lSMYl3Go8MntOcqbhTtKc4Js+Ohh3j2nZ30hExULivHt/4AsbmX8o/f/TzV5ggDra9y58+epG04QnbVXK6+8BbOW1GOIuBm57qVrH5pNc1O7/j6ueVzXDGvGuOpTvz9tWIehtqfYfO2J3Arkpiy8DfMKS059e0VoiK1DyW6dfrTn77WrCIrQy12nhI9/ccwJKnF7ypUsSgDIjCDBiVmVRy3N/6+i59UGgVJooL0OaKExO+peTpS9XEc/WHsfgU5paIKH3+pJH1kyTD8hIqEA4RCYaKxRJga0etUxMJBAsHQ2GE+wn7CkRgqtRa94cT+EsWe/wsPsy1eznVXj4dhQiwqNoqBABGxMVUolej0onJQJaaME/J7CKPFoNcR8bvH7kVTinknfk8cLY1FQwQCwYn2JDp01RxX4YX8MTE94vXK984lJnr69wdCY1elJg5TJpaXqDRPS3ylQ6KdMfFvJBolnqiYdQZ0x/QbeLL2xBM94vvFcBRiI68Z61A3EleiTxz2HWtX4qpRH+HE+1OpxXrVo5q4z+P49aMS7dVPrJ+/sXiIkPhsExQq099nmZL0CSPDUHpPw9qneXX7kURxgM+tZcnVN3Lp8iljlaokSdInmQxD6T0Djfs40jkgqjo1SbnlTK8uIukUV22eFVEfrdtf5rf3rmLwfd9cJZa06dz2r19jWeHYpTySJElnRIah9PESjxHyjtLbb+eDLrZUqoxkFuZhOdW9dpIkSSeQYShJkiRNevJMuyRJkjTpyTCUPlQhvwtf6ITeNj5J4okrVf0ExHuUh1Qk6ZNDhuEkEhjt5mhzE8PePy+sxvo3bK+nc8g9divCyURDPt5+6J/592d3n3FQuG1HaW5tZ9T3MQnQwCjbH72L7939NsMTgyRJ+viT5wwnkea3fsuvHnie6d94la8usX5AF05xEU7tNDQcodcewZJZxKw509AMN/Lw/32NhvLv8F9fupbck1yomQjDHa/+ii2Ga/neFVMnhp5c4vW7nv0hv1nbx4Vf/w1fWJg2MWaC+Go6ew7Rpyql+k8PbR3jG2phz77DjPgmBkzQF8/mvNqC8cek/QXikSADPS34zOWUpX/AI38CDvavfpF3/LXccev80z8i72yI+XAOH8I20j/+KLkJCkUm2cW1qD2NdA/1TgwVe8TqFDIy55KabMZle5sBh9jpUaaTlTuT2OhORrxuYqp08qwpDDs6CYaP6QtRocGcPIOCnIKJAZL08SQfxzaJpORPQ9f7Bvb8q5lX+P7+DMNdO/j1rx7lSGcnducwHfu2s33AwKwFcyk1OOgLm5leM22sf8UPolRpKJx6DksrMyeGnFri9dnFNRicddjTl4o2Hd8HUSwSoH71XTw7OIXzqtOOa6/X1sQr9/4rzx8BdcTH6MgQ/YfX8VBLMp9eUoX+mBvs/xwRt42Nr9zLAdX897VnjFpPTvVsFk3P+5v3zxfp9vC7+0dYucbN+vV/+tnbHMZabOCkXSqG+2g4/BRd/T34RjfR1HIUnW6Ulv370BbUYvLtZMfOp3F5fcRjLkZ7dtBnd2BNr8Bve43du//AcGwqWWm5BIfe4XDdc7Q6zBSmaOlpe4a6xgYxvzg+3yCjti0iWC1UlVdPLFySPp5kGE4iiV4g2nY+y5FQNgde+j33PPQ0R2wB8stLseoDrPnNc/TlLuJzX/4CV128gtryQnq2P8FgxhJyPfvZ1+ei78gO7v39vbyx5QCarGIKsq1jzzG9/8f/zN2PvciLL7zKxn02CubOIVOvEMVdkI7Gldz1k5/wx8dfZvWbDURMBVQWpqBUKogF3bTUbWB/UzdvPHQXT6/ZhCNlGjMzHLz0u1/y20deYcvuA2x76zVeXbkbimoozbJgTi1AP7KL0NTbuG7uVJQims5fVkqdK5mLZqTStOtJfv6/v+Sxp1/jna39mLLLKMoyEPPb2fbcz/jOD15gKOpn39r7+d1jr9MWTKXUMsijP72TR15ey97du1m/5jXWbmwhZeoMipK1hIb2ce+P/4e77n+Fo24rNbML3wvESHCU7eue5c5f3M1L6/fSdrSDlx/+DV2mGVQXWNGcplC17Xfwkx/2scWnY16lBq3I8mg0TlipJDtHQ0GB9r2fQvFTLH5MJ3t2adQpqjsf+aU3Up6txx2YyYrzrsDf3YO+cB55mSVEfGEKy25h5oyrRcWXTO/gEVTJM8nNKCXiOUj2tB9RnmEhxVqKOjpKPOMqplfMJknrx+GtYF5NGU4KKc3OxusxUVxSObbooDfCy4/08t2HfRRVGihMlWdipI8HGYaTSCIM6974I28dSeHqGz8tAm85KaFRNm5qobBUxfpNfVx+3cVMEUElvhoYk6yYXYd4rDWTcyztPP/8dgrmXMHNN1zB3IoMdq7ZSjirlPLCXEqnzmLJ8hUsnD6FSM8BzLNWUGhU4LJ18vpz72Cdei5zZ06lojgZW+cuBiKlYjnmsTBs3reWTc1e4vlz+dytN7F4ahFmo4mM/BJSFb0oZn+O733+Ws5dvpDqkhws2vENbNeOp3ng6TW8vXYLXRHRxmtv4NLpRQS7GnnzrQbK5p3LrOk1FGZEONJYhzGtghyxgU/LsxJq2MarWw9RvvQabr36CuZPKyXNmkZeQS4asZnPOf+f+MYtl7B08RzK8tPRiUUqtRYKKyvIULjpa1Ez44Lq8V46YmH2r1zDjgG1WH/Xcc70bLrWrRYV+Hlce9kiss2nr1IdrR5WrnUTKbJw0UwticI2MVVY1MNJSWpSUo75sSb+VZ2838KYD4drFIMpH12snb4hLaVl+dgHbOizq7DqIth69hKMaVGrPAz1H2I4lEFh0VyMCgeDfe+gzryBTJOYV9TL6OB+nGqxE5JhJejYKnYUHqOl8036o2VMnXIFhfllaLXjhwvCgSi7N47yxlEF551jFoH6l1XokvT3JnfbJhljWibn3nI7y+fXUllVzYIFM8j0rePIsAZNOIQnFD3uQczBgBdtYsusgGmXXcell6xganUV0+YtY1HWURp7h4ipdOSWVFBRUUF5WQkZ755TFCHh6XiblS+uZ83ql3jppRd5ZeXrbDvQg8/vmngRBIZtHN0/iMWaQ3FlCZmJO+aVOtJyCyjMTiYpu4QKEULl5UWkGv+UAGqdkQu//BN+9bMfcf3SMizmJPKTYtga3uL1V99h1crxZb72xjscaBoiGPSNPTPUnF5AXsZ0rr3+69x0zSVig15OTqoZjc5MTlGRGGchs6B07P2Ulf7pBn6FRowvKaG4MOP4B08H+mjqsTG1dAbzplUzdeY5zJ+ziOLiXNItp+tCYlze4jTuebqSn99uwjhR8Xm7vDz8h0F++tOB437+8LiDVsf4az6QJpeqqkvF+zj2HGw+NUtvoyQ1c/yPPtRG45H72bzlLvY2HSAnb7743M7gSQXKFHJLv86VF/2I6cXV6HQpmM1/Op9rSNLwue+UsOPRPFZUndl7l6SPAhmGk0zI46Zu8xZ6Rv3EYzGGGxuxh6spKi7hnCnw1JOvcLA1cZ2kn65da3hmV5jLFpSPTdu+fTNHjvYSjsYI9IuNaY8Ir6yksSrmAymUGDJqmXvO5Xz+337JA489xiMP/oF//vIVpFn+dOLRmFvN5777VeZE97LyzQMEEk/5fldU/N/tEf/x092wmj/e/wY27/hDqRMSgVgyaxbX3nAxuYmEEsGcllfLsks+xb/87B4eFst88N47uf3a+SS9mzJjFGi0+vGgP1EoBJ7E+TQnddtf4KnntnPCdTrH01pJM+hotdnwhKOE7F3UN+xn6M/oWjDRc8cT99t4cWeIwMT1KaaqZP73V4U89ljxcT+/+kEms7LGX3MySqVG/Bz7560Ye3D6e73u62tZsOROrr76dyycVsVg7yaGPR5UYv0ZVAYcg/UExV5RJDKMxzWI2XRMsCr1WHIvZ3b1UrFT4KO7ZaP4Do2PCrhCvPnIII+97mHEPz5Mkj4O5GHSSWT/y/fx4GvbiGeV07H5GR589Bma7ErmXHE9s4vSyS7Oxt9zgLdXPcLDT77I9uYw06+8nUWpozx9109p1lWgGjnCE488zJtbRDWx5BLOm1+F5ZhASXT11HZ4L8bpKyg0KdGaM8gwuNn68lM8/vAjvLjqTQZiJmbOnU22GL/3pf/hgXWdVF3wBapG3uYPDz7F9sZONIWzqcjQEVXYeOuZh3j6+ZfZVj9EQdE8Zs8qxNnwJvc/INqx8QCbt+7Fpy1gRnmG2OarMafmog3389ajD/DoE0/y+jsizJILmTu9Em2gg+fu/AH3vLKBvYd3sn7teg4chSlLq0gS7Veo4vg89bz66IM89/Iq6vtjlJfMp6YqnYMv3MP/Js4Jrt3Invp9bNn0NttbYNGsGvLyk+luXs/99z3Ia5sOYXMayShN9PJfckYPOh886OTXvxmkPcXMlfO0aM+09+OTCXVQt+uX7DrwCj22PXR1NRAxl5BqUjPc8iib9r5I/9BewpbFlBXPJubYQN3+HWjz5pCdks5Q62McOPAMzW0taFLOYXrVLJSO9Wze+SBt3VvF/NbS0PAS9fWv0jkwTGb5BaSo49gO2vnPH43in5rMFXN0Jz+UK0kfMfLWiknEM9LPkNOHKSOHiENUMYEIxqQ0srNSGd9mxQl5nQwPD+IRxZfOlEqmGKeNhbH1dhIzp6OPBxh1eMYqsoysTMx67fFXeQ628PoDj5L35R+zNH18TCwaxm7rx+EJEBPViiU1i4xUC6p4DM9wFwNuBek5+ai9g9jsbuKiOkn8nmJQiWk9DPT0TbQnmaz0DPQ6pQhdOwO2IfyJikSpxpqeQ0bKn67vDAd9jA7YcAXDIuDUpGblkGIW46MBRnq6sL9XXIrA1qeSWyje59jvccIhJ/29gwQjCgyJ9ZMm1o9YQZ7h/rH2vXcYWVRZakMapfmp4hfxXhzD2IadYryCplXv0J1byU3XLif1DI4Whn1RbIMRFEka8j6Mi07E5+Rz20SVGZy451NUfJYsDBqtWAUDOH2i2k50i2UqwiwSKxIcwesLok/KRqsUlb+3H39QrCSFAb0pG6N4TTzswOkZJho79mbTRMWZhFnMWx2NseF3nfzPNg0/vDuPpTl/ZaBL0t+RDEPpr+a3D3Jo9zb6vFERGD10NGr41A+/xpTjbw38xBuo38X+ll5cXg8Htg8z64YrufKc8r/5LRgfFeGACMMnh+gtS+G25bqJ/h8l6eNBhqH0V3MNdPLGC0/Q7FCgsxSz5NpLWVz4kbwd/W+qacPLvLHrCG6lhZJFF3PJvCmknez2B0mSPlJkGEqSJEmTnryaVJIkSZr0ZBhKkiRJk54MQ0mSJGnSk+cMz5JIMIYvGE90zHAchUKBTpd48osYhwJTshK1eFHQL37CiWFiD0bswhx7dbtSq8CgE687g12bxMft98QIT0yv0CixGBUoonHcvthx8x2jAL3xFI/+kiRJ+gSQYXhWxGjdZOfuu4Z552ic7BINJpWCiDuMByOf+6qW9fc4qHdouOM3uXxhjoptj9v40e886Mv05FvDHDgUJSVDg9miQF+h4+rL0rh6nv69R3mdjGfIz7M/7+fRzUE8Wg2zL0rjv76dQqHHz69+O8gLr/mJp2vIFiGcaKd9OM6F3y3g36/UH3c/oSRJ0ieJfALNWaEgJd9AicLPuoNqvvbLTM4p1zM3M8KmA3D19zOYrwmx8mUHmwdgxTnJVJrCrF0f5or/zuHGWiXbDka49ft5fPdzKeSO+Hn8ERe6KhOVuapTHvvWmjRMm6Kl76CT0eoM/vsfrZRYRWUohk+doaTjNS+ZN2TztcsMzLtYj3Otl8C0ZC6arpFhKEnSJ5Y8Z3iWKEUlqDco8Tv9PPnrAb7+XRt1aiNf/IdkyiwqDEYl2hIDFX1O7nrYSXdQgVqVOGSpxCCm06pBJ/61iipu+SXJ1OpDbDkQwH0GHcZrE/MQFaRKo8BsVIx/CUTS6QwKVKEYO18Z4p+/3s/qIwrO+3IGF82QQShJ0iebDMOzKo5aq6K4TEtRuhJjuYlLrzaTI4IyET66ciN3fDUFx8vD3PeqF+9JDmir1QoRnuD1xceea/3XUIhlZ+VrqShUYRSJufzWVC6eJk8YSpL0ySbD8KwS1aFJx2VfzuaRJwq5xuzjm1/p5NFdkbELaxRKBeXzUrnjOjWrn7Szs+HEq1vG+T1R7H6wJCq7iWF/KZVWScV5adz5aBFfu8RAoks7SZKkTzoZhmdFHGdvgB37gow6Qux828OuvT42bPJypCFAb3+Ypvogjt4QHV41y27J4JaFKpRBiISitNUF6BuIsHuDi1deGOXBh0Zp1Ju5epmelNNcQBMV09ft9HC4I8pgs493dgZwhUXy+iLs2eKjaTRC60EvjQOxscO48gsiSdJkIC+gOUvsXQHqe6GgUqSXXQTTYAR7TM2sBSbm1OgIO2PkFWjJrzAwtUpHWYmOkhID02dq8HeEseTq0IVjDA5H0WQY+fKX05hbpj7tub2QN8KRXX4C6UaqspXE9WqmTdVi8EfYtz9EolPARL+ACrOGklLtGXU/JEmS9HEnb62QJEmSJj15FEySJEma9GRl+Ani6PCxqz6ELzQx4ASWQgMLp+kwyW6FJEmSjiPD8BOkZ6+DVzYEsPsmBpwge5aF688zkmqUdw1KkiQdS4ahJEmSNOnJc4aSJEnSpCfDUJIkSZr0ZBhKkiRJk54MQ0mSJGnSk2EoSZIkTXoyDCVJkqRJT4ahJEmSNOnJMJQkSZImPRmGkiRJ0qQnw1CSJEma9GQYSpIkSZOeDENJkiRp0pNhKEmSJE16MgwlSZKkSU+GoSRJkjTpyTCUJEmSJj0ZhpIkSdKkJ8PwlCL0DPTTF4xO/H6sKLYhG52+ENH4xCBJkiTpY0mG4SnYbU081dTDQHhiwDECrn5eamyl3SNGKiYGSpIkSR9Lirgw8X/pGBH/EM/sP4ouv5rrCq2oJoYnxEJuNtQfoVWbz6er8khSnSINI0H2N+/mZw2DqBVx/KEoWq2KSFTDitrZVPqbebJtGD9qMV6BRp3MRbMWcVOBQSwoSkvrHn5Z38NIIEx15UK+Ma2YdE2QI61HuG9PC05jKp9ZsowZ4R7+uG8vOz06FpXV8s9TUlnX0MTKngFc6MiwWDmnspDzc3IwBEZ57dBOXunz4IuAUaMiJbWQL8+qJcNex38e7CYQjRIQbVVr1aIdCqoKa/jyzHJ8nXv4VUMvw4EoGpUKnc7A8qmL+GxJMoGgk131dTzRJd5PREVl8Qy+WJtL3NHKHzYeolmh56qF53CJOcirezfx6jCU5VbzgwVVJCeWI0mSdJaofihM/F+aEIsGRIA10q3O5MLSnOPDLh6lva+VHWJDvry6nDyd8pSFYTjk52DHUcidwxfKkmnuinLpnFIs8RjF6QXMTtXTMzBATe1yPlNZQGp8kDUtHpZU5GBSKjAZLCQrorgdvbQorCzJTidVq8FsMDHQLYIu0segppAL89OxBgdZ57Twlem5tHTXs8Nn4NraGlbkJOFxjpKclE211YhWrSUrJYMaU5AGp5mvz5/JisJcCgwaOjoO02qp4VvT8ujtDTKvpoxqU4SILl/Mx0KSMYkpqWbcbi8zC2q4eVo5U9OS0cdGeP7gEfbFk7hyag1X5KXh6G2iRZXK7MxUwi4PI85WWhVZXFyYTb7Sx9uDMa6vmcK0VNPE2pIkSTo75GHSE4mQGu7vYIdTwbyifLI0x0ed397D9u5hykqrqDSqTnuENCZWcUZKLleW5ZIXdRItKmRJajrzcnOoSU9CJQKPeAEXl6QzxWqm1GgiT6kiPDZjBbGIl26Xn/lzljJHA6FwhLgYblT5wZzOpyunoh3oxaU04PFHmSHmX24xikmTmJuaQoao+pJNVm5ZMJ/LCtJEjShGifmnJ1mxhH2k5RUyJTOTsmQzBhH6enMO11QUUqYMEs5OY25mFjNTU1lckIlWVK56QxJ5ei1GvY6SvAIqxbhsdZi65g6ChmK+VDuN5VmZVOUWsiJbTeOIR7y/MAoxzWVTZlPkGGQ0osAfhoqsLGoykhNvVJIk6aySYXgCf8DO+tYusnMqmJmiOy7sYlEf6xuaGDaVcVGO6bhDpyej05uYVz2TaYYIrYMeZmRYsSZlcE5ZBeXGOEO2o6wb7uTBje/wX1t2s9ehYNGsCnLFtLGYj33NRxkxlnJ+URYlERetPhFScQjYR/CaTFgziihUDrJh1EmvP4WlOVZ0OjPLqyqptGoZ8XpoHehka2cfnvix7yZMo01BRZoJzUTlq1KpmVo1kyXJSrrtLkosZjItKUwrnc4i67tflbiYp6gUwwayLdqxIWHvCA2eEFOys0RQqia+VAqGPQoyjFpifp+oYMNoMiuYY3LwxrALW0BLbVoGqbozWYuSJEl/WzIMjxGLBNnb3MKQtZrziqwTQyfEo9S3NnNUX8IVU/JOWxGeKB4YZYdLy0wRILqJtR6PRekZtosAmsK8DCODtk46dTmckykqO7G8usa93H2ontebdvLll97kvuYjbBoKEInFaR+NiOrMQJoliTIxbUv9IVqUWoo1cZrbj/DKEJRm5bEgv4BCg5nW3iFGIuPLTUi0pzlkZKZZh+6ENxMPe6mzB8nVGUkT1ehxYiGGvQ5U+gyKEmWmEInFRJIq0GjHB8TE+xoabGeHR8O5mcl4RcXqCqvJTE6ioiCdjqYmGkVAppstmOQ3UJKkjwC5KXpPlMGeRvYGzFxVnkfqcQVLDO9IB1tGYpxbUkCZ/syjMB6PMeIaYW97Gw2RGI6gj9GQKO2iITpGB9g2YGZWYa6o5ObwX8vmQHcL6202WrqO8HyTnfkzzuXnK5bwzblzuKk8i1GHjW7XEHtHnISDYfxoKc/MJmirp1uThEYZZ1PdLl5rbGRn3xAHWttY1diBMyWLLFHIRSN+OkaGx9rTpghjE5Vjpycg3v04t2eUw73d7HG4GBGBPByMincvxCMMOu0c6e9nX383w1olbaNufCKYdVoDplCIppZ26voH2S+Wfd/eVpIKy6lJEhWoeJ9DARVREZJpaSUU+hrZ4FSTmmyRX0BJkj4S5AU0E3zeAV5ssVNdVUFtku64jXQo6OTN5g4MOSUsyEpG+2eUhaGghw2HtvBwuxN30EubCJmk1EIqGOHJQ3XsFWHkEqFWmFFEeUoySm8Hr7f2szdxD6MIolDczNKKLNz9rbzR6yYY8eIXrz8sQqnF40RtyWVumhm7X0Fefj5TLXoCTi+6uIe1La3sGA1TXFTFbTV5WEVQjo62c//2A6yxuUR7PBwZGmYgZmJOdjKqaJj9Tbu4r6mPAX+QLvsImHNEoOlRReysOrifJ5s7afGGRDAOcsARozIrjUyThdwkFYc66nmhtYvGgJorZ9RyUb4Vr72b5+taafA4CGhTmZFuxSiiN2TJ4dwC8f8/t8SWJEn6G5C3VkxwjNqo96uZKjbuySdc5e/3eTg85CAvO5+8iUODkiRJ0ieHDENJkiRp0pOnbCRJkqRJT4ahJEmSNOnJMJQkSZImPRmGkiRJ0qQnw1CSJEma9OTVpO+JY2v0caA1wlj3hToV02YbKE5TMtruY9uRYx7fMsFcoGfhVB3G8aeSvY+jcw/7jo6QP/1cKjPlPRknijuCbNgdxO0//iuoT1JTWa5hoMXPaEBF7WITBUlxOnb7aBqKkVKgQWELMeCbmOBdChU1M1X01YVwhJVUzDVSkaPE0xtgz74QPjF+5rlG8i1KuRcoSdJx5E3374nTe9jLmids/PiPLpxmPdNF0OUmKRhpcXPPnTYeWR1AJYLPMRxi20vDvNakZMUyI6knuXN8qHkrT93/f9iKb2RBkeF9j3CLx2IM7H2HZ15bw8rXN9E16qZ/aw/aqpy/qkujsKObPQcOEjHmkGL4+zz7M9B3iPUNQ6Ra0zBozixqfAdGuP0bg7Q7omx+bpDn9kWJ9Lp59kUv2TNMdL0+wH//wc+0G1KoSo6w8n97+M9VQcqm6Bh+Z5gf/NROn0ZBxBWlc7+Te+9xkzxbQ8tKO7/4ySCbY1ounKsj0OTkP7/Rx3a3mvkiDHPNp+5pRJKkyUfuIL9HSdU5Vj57tYnUXC03fCaNhWVqVGLDXrQwhdsuNFBVZWJRiYKoTssFV4pq5cSHep4gd+ZlXDAzC2U8jNfjxuVy4QuEROwmxOjb/jwv1XeQW1rJnDnTSYuNsv61XXSHEqVpjKB/fBqXy43XL6Z7r4CKEwuLisqdGOfC4/HiC4aIifHxaBBHXxubN77FgfbhsfFeX3Bs3PikcYIB78S0YrpAoheMRLeLftzitf5woq3j8/X6xXRiXCwihonXJ8b5vRPL9PqJjjUoTiTkZ7h1D29t2UHHwKgY78YfHJ/vKamUZInq+sYvpYn1pKZiSTJf+Ewy5clKzHlGLhI7GhlJKhSxqJgnqMXw1BkWrj/PwjU3pjC1RMuSS8xkxGNkiPnMqVKTWmji03ckU5UWZb8I2EfXhdDlGJhapWXB5Raqs959kLgkSdKfyMOkx4rGaX+lh6vuCvJf95fzqeqJ4UR465c9fPduPzqTqF7yU/nD0xnkhJVkZqjQnKT4ioa8rPvNjazR3oSlYyP13S6qFl3EDZ+6lhl5Hp79z5fIufZKls8rH9tAh/0ehgcDpBSlo/C2sfKpe3nt7RY8QRG8Uy7gltuuYF51Gqq4h4b1L/D7R9fS44mSmpRG6qwZXH/NLVT4NvHzH97Dm00dJGWXkW4ykj/1Qr763S9Qk6hyOxpYt+El1m/fw/BIIVWLz+PGm8/DcvRt7r77TgILr8LatYem7gjFMxZy+XU3UakZ5uH/+WfaKpZTFOqmsdGOJa+SS2+8nYvnFtK37Xl+9t9/YNOogvKCHFEZWqi98Fb+4Y5LyTWMr4sPEvNH6bZFseqj3PcfHWzIyebeb1hQuGOk5GsZWt3D1f/sJGWannRVnP7mAK4V2Wz7eRrxhlFu+3I/fRYN7s4o5/1TLv96g4msbBX2A3a+8YNR8goUdLSruOYfUmh6dAjjZ/L47qdMWCaWL0mS9C55mPRYYrfA0eji6R1Rll+ZytSMieGiPmrb7qJJY+ZLnzJizjSw4mLT2LknUdycVDwapu7NB9neV85Xv/mPfPamq8lTuli7eieZJcns7I2xcO50rFo/zQe2sPNgM/0jNqIiTNrfeYMdR2H6/IVMn1aOVdnEW/tHqK2pIoURVq/fzoiinOVLa8m1avGE9NTOnkNZSQWzpuUTMZi59is/4lufv54Lls4Y624pHrLx5iMvolr8Kb52861cdfk55KjbeHtDL/Mvv5T0kbfYNJjPl772T3zx1ltZUmlg/QtbyFp+AdMtA7xzaJBLbvkmX7vjs1y2uIh9Kzfgzali5qwFzBdVtD1zAf/ynX/ljluuYtnsClIMahLdNZ6MQlTdKSkqdKI63bbOQYfFzNXLxXoVgZbo2cne6OatOjXfezCfb96cTIrNyxGVnltWGGHYz6q3o1zxr+ksTFVSUGPAFI3gVanRuIK8uSPIRV9IJ6/Zw6MbAjiGYxQsSWLJVO1Yn46SJEnHkkeM/gwqg4q5n8rmf//DSv4ZnnQypaazXARPbVk2ySmpVE6bSrlmL+2jImI9XjzRKNFwgN62evbuWc0f/t8DbG3roKu1no6efro6W2ltbaXfqaUgJw1dokslSx4XXXI+U3IDtLd30tjiIahQieCJiE9Ug9FiwSheaDBZSEpKwmIxohbtjcR76RnJZWZZHmZzEsnWVMrKF2Fu30GzTy2GWZi36GKmFpaNTWfNnUWNeS+H+0LoDAZmzF3OrMppWJOTsWRNZ2ZmB0f77KJu1mIyG9Hp9WPzTUxrMuoSvTp9CBTi/ajEPJWY9O8/15debOLrP8nnH2bEuPdH3dz/TojwRBccBouBm76VRvqwm7f3vNsvhyRJ0vvJyvA9MQ68MsSvHnSy/2iE7r4o6SU6ilOhce0IP7zHxdGOEC0tYdJrjRSmnP4ijJDbzv63HueNPRFKy/IxqSJ0bN3A3t5Mll+2GF3bHnbZdZTnZ1M8ZRZzyk34D2qZ+/nzyQ4HGY1nc8lNN3L5+ecwe0oazb0uSgoLUTmaWLfxTXKW38I1FyyhpijA4dZ2MornUp6hJ+Ie4MDuvegzqkjX9fLGC0+x6bCCmmnFOI5soS85i3yThoA/QEfTJho8OVy8rIaR/S/x4mE3ZcVZJGnU+IcPs26Pn+qFi0ka3sWLmw+RnJNHhklPzN3Bhh19ZNXMFaGcRHioke37BygrLSTuOcxTDzzHUDyL4sLUk3eCHIszuMfOd/93mHU7g/R1hWis86MqMlEQ8HH/A6Ps6VGw9JpkqlJi7H3FyaZ9QcLaOPueH2Ht4TCt9T7Wv+7kpdfdHGyLUDDdiHuznVWiMjSWmFl6jpkpSWEOb4wyVcxnYY2sDCVJej95zvA9cTzDEQZGRaWWWCNqJZnZGlKMEHSE6Rwc69UPZeKij2ItSWdwsefOJ3/Jfa+uJX3prejaN1Hf7aRq3vlcd+MNzCpJJzQywJ41r7By1XqOBsJocqu44YrPcunF1ej9LnauX8Wal1bT5PBgzisVwfg5rlxQQ7h7F68+eReHOpLoHR1CmZLLsk99hRsvqCVNqyQeHWbDq7/lkWf34VeamL7oCm68/GrKS804upt5c+VLbFi3i2FVAVWLL+D6T69gTp6FPQ99jid9S8gZbRDB1k7h9EVc/ambWDqtkN61d/LA4RCphNmzsw5jThlX3HQ758+dIoJTRTRwlKfuu4s1W7rBnMGi5Tdxw2XLyM7Un3KnIeIWgSZ2PN6lEOVkWp6OFEWU/oEI/ohiYn3HcfSFGfbG0VtVKJwRPCfe7aJQkJShRuUMYw+KqjxNQ06qilgoQl9nFFOuhlR5W4UkSR9AhuHfUDQUwB8MoTaYRZnoIxSJoVJrMRj1722QE1eF+v3B8c51lSr0egNaEcRj46JhgqJ6C4sKSqFUohsbl6iz4oQDXsJRBdFoVPymQKs3otOKkBibMjGtmK9PzFd8umqtHoNOm8iKMYmrPwMifGOiFSq1TrRHM9aePQ99gfXp3+BLK8pRxaOiOWr0BoPYL1DQLsLwud4CPn3l1aRqwye0J0G0SbzfQDA8dtXrWHtEdfnuMiVJkj7KZBhKY/oPb+Pen36THfEFXHHhFVzz6YspnLh/0tF9lKfv/Ede7rIwf+G1fPrz11MrKj5JkqRPChmG0phE4B080oAzpMJkLWTWglpRAY6P8zuHObRrGza/Ap0xi9rF88iVXdRLkvQJIsNQkiRJmvTktQSSJEnSpCfDUJIkSZr0ZBhKkiRJk54Mw7Mk7B2ls7WRAVf4Tw/RliRJks4KeQHNWTJ48DV+9fMfo77mUf79mqkYE49ZO0HA1snhth5sI27M1ixSozoyZ5WSafnTfYp/rng0xGBPC15zGaVpf59nsUT9Drr7bZizEg8O/8u7pvowxKMB7AMbGfIEJ4ZM0GaTmz2d8Oh2RrzusR0UY+pcctJyE89fIBroo3/gEN5gaOL1OeTmTMei/9M6jLg7GBhsxBeJozGkEddlk2fNEMPr6RnunXjVBFU6ubkzsBhNEwMkSTqb5OPYzhJTdhVW1076LPOZX5H1vp4vAv2HWbluHa3dg7S0dDE6MsyGP25FuaCGiqykkz/i7DQibhsbX/49+5TzmVdonBj6txXoP8TTr64inj2HkrST9IT85/CG2brGzsPPOtm40fPez6bNXjwpeoozTv4A9VjERV/jL9l5cCXeqJGQfwDP6EEaOhswpExD4dzJ0aPraTr0DD3OVIrypqDXaYj62unp2kzX0Wc52DWAzpCO1VqCSTcRhr4WGo68zchIMw6XCMWu1ezudVOWU4HC8Q5bdjwhhruIRJx4XA20HD2AJXkqada08eklSTqrZGV4Fu19+PO8FL2IQlcjW/a3klu9kBtv+zQzCzTsffJZmuPFXHXTeWPPCQ17HRytG8BaU0ymMUDdjhd4/MmN2NwarFnzuOH2T7OsNhWFIsJo+x6ee+gZtrSPYtDnUDG3iJplt3FxViv3//ReXt64EW/6DMrT9ZhTa7nlO19lWaGZsM/Nvu2rWL3hLdo6jOTWnMeNn7mAwlAnT/z6RwxNu4BsVzMHjwxizC7nqls/y7x8I6t+85/s0hZSlR6nblcTUWMWK67/DFcum0qo9R1+85N7WVnfSUZ+JRlmAzmVy7njm7dTnXT6exWDrjCr7utlpdPIt76WzoxckXKhKM1HfDR2jz8i711KtYKi6Wam5Z/6ubFe21r2HVlF7tT/Itq9Gn1eDf2dW7EU3EhNjoW+ltfo7FeiDfegrbiW6sLSsQedEwsy2vw71tsXccOixeMzmxCyvcZbuw4xZfpnyMsw4+t/hXc6oiybdzOZ+lEO7HoeXeoyrOo6bKqpKIf3Y8q4kNLS8rHpba1u7rpnhNHyVO78nIUkg7yPU5L+nmRleBZ173yeF9cNM/+CK/nU1ZdQmgIbVu8hpSSd5o4+MsrmU12UjHuoiy6bA4VefGB6C862RtauraNkzjnMnDaFgowoDU1HMKSWkyOC8sDm1bzeaOXSCxZSUWBgtKsTTdkiZhZlkJWTjRo72ed+ja99+mKWLJpFWUEGOmWYfS8+RZ06j0vOu4jlS5dQah1gw+YOambPJMl3mFe3NzH93Ku5/vIrWFqbzt61e6GgkhKLm43rXsUw9QpuueYqzplTzsChA3QFU6isKic/zYBPqWL59V/llitXMH/2VNFmC2fSIX7YE2X368NsHNKwfJmZgpRESChE6CvQm1Wkpanf+0m1it//P3v3AR9HcT58/He96tR7lyz33nC3MR1suukdQgglIQkJqYRUSoDQezc2tgH33rst9ybbkmzJVu/ler93TpLBNm5J4G/yar587oO8e7c7Nzc3zzx7uztxakza8Pr215+Kz3GYor2vcuBwPmXlh4nqfge9MvsSa4km5DnK0UPzMXd9iNyoKvaWt5KakoNWJXLxUABX4xZK3en0TE9v25bXcRSvIgKdMRVzsJriQ++xa+8ialrUJOWOJTMxA3XISk3pV+zeN0tk+pvwxUxicK/hREXHowpvV2iucjJrvo1qk4GbRunRtUVfSZL+r8hgeB7V7l2Aq/+93HrZMNKS40lKSsS6432ORA2Ghko0cblkxfjZNv8dXv54Gp+/OYOq2BwSG1bx7kerKW8op+jAfgqLDlNh1TGwf1/SU6PR64MU717Lpu17KDjkRpOQymAR9LJjLJgMaupLdxDoeg1XDMwgNiZSBMJwacpZMb+C7iNH0q9rFvFxMSTEp1M6+wusfUaR5TtAk7k/Ey+7hq7picTEZxI88BUHDT3pGQdNNhejr3qYQV2SiUtIR1+3nX0tIXLzehOvc1JUXkve0CsZ0i1FBC3zOQXCMI1RRd+x0Uy6PIKM2I7Dn3YfS75s4J0praxbZ//6sWmLk1CykZ5pqjPOMxkOhk0eFb2HPkuqUUlEcn/iTBGolUGstYvZd7Aeo8WPw9VI85EtkDJMZOPGbwXDoN9OyY5fUKG8mFiVg2BEF7p0u47uXS4mUXWAfSWlJCf2xahxU1PTSGbXu+iekYrS0p/0uG8CYZhFZOmXT4jmhpEGmRVK0nlwjl2S9H0IBgIUrV9DaWVT27/tJfs50tyNzLQE0rRB9hQeplURzZg7/8zk9/7KXX0uZmTfbBIy+zDmylt48p9v8fHkyXz4zkvcP2kkURFafE47ZUfLuPCRp/lg8ke8+swtpCuK2HigtW0fbbw+sTMROIKt7M+fybQvN+MMRZJgbqGssQlfoP3wo72hgDqR8SSb2s/uOVq8l7KGWgJBsd5Tw6EmDQaVui3w1FWVcqjyqHhtQESbFqqabCKB07UfXgxzucRrPPg81axf/AXzlh+g41SUM/I5A2wWmeF7M21UtnYc0bdoufahFCZPzjrh8dH7Gdw5SiuyuPannYlCoUFvTKDbkLvIjGi/z2owIN5/0W5CMRpaanZS21CFLiZETXExosZOKeh34BPV0VAyh3UbptNqV6M1xmNJ6C2CWgLKYymqQolGF0tKtx8xICMJa80eke2L+mqr6hDV+2xMfquedUWB8FFgSZL+j8nfDM+To1uW8tLffkVVl1voG9FKUUkl0fEZjLzyZiZc1AfqK9i2Zi2bV63jgM1BwGimT8+rmHTXxaRqPOSvWsbq5SKQNrWgNEeQecEl3D7hUpIV9cx5+W422i7A01iFSwSG9AGXc8udN9EnRkvQ18quVa/zxsfb8YpAFpXajdEX3Mq11/XEXrqflRvWsmfNVpH9GIlO78Xoqy/j+guyKVv2T17NbyLFbKRo72H0MXEMHHcDV100GGXpat767D1IHkFtwR58ahM9h1/BhMvHkh1rIuSqYOGMV5i59AgBrZrkzEFcfdUdXDAkfMj2zFwNXt57oog3GyN5+18pjOtyDpHuDPyeOoryH2NjUQmm8AksSdcy9oIr0VHN3q2vsXXvRiLzrmHI4CdJ9a9g5ea3OVLuIT13MIpAJS11e6jzxpIWGy0GEz7czgoyR80n2z6XvYfWEAwp8SjcKFXxZPd8oC0TbDr8Hgs3zEJrSMTYcfaos8VKfL+fM7LfOIxeL7NeqOCp1QqeeSmdCf3UZ/zNU5Kk754MhueJ29pEbV0DmlgREJyNNNk86MxRJCXFY+iYFslnb6G2ph67X6QKah2xCcnEhi+rED1leAqnhppabG6RX6k0olNPITrCIDpsP7b6UmweLU6RjQWVKiJi00iMNXScgRqeaklkbuW1uP0KDJFxpMTFog5HJdEU7C311Nc24RFhSmeOEeWJEuVRtk3hNL0ihQljx6L22UVxjCQkJxGh19K4fxlTFy6h71W/Ik3dSlDs6Vh52g89BHFY66itbcEXEuWJSSQx2sJxRwlPKxQIiSzNQ2NQRUqiBuN/eTJqKOTHbTuEoy0tVaDUxBETGStWuHHYanB73ShUBkyWTLTBZlps9SITFlWs0onXegkGT0zbFEo1hoguaANWvH4bXq8Dv8iclaoIIiLCZwkr8LtraHGITPkEon5NKZgNRhxHHDzzmwqaRyXzlwcsxMkJQSTp/5wMhtJZuVoaWPHeL/mqMpGLxl3H2PGDSbe0HzoNz9m49auX+XD5dnqMfZirrriA3DgjIgZI56iuyCmyZgdDr45hQMY3c1JKkvR/R/5mKJ2Vz2XHpskmM8pEVWkJLb5vumuf2ymypwAp6b1wVBRS2+ruWCOdq4SuRh56NJ6BMhBK0nkjM0NJkiSp05OZoSRJktTpyWAoSZIkdXoyGEqSJEmdngyG55vXxs5ZH/HsRxtov/ReOkHIh89rx+N14pdzXUmS9D2RwfB8C/hwN9VQ3WDH37HoGL+9mYpDxRQWFnOkvJLDda34Au0BIeC2Utts+/cDRCiAvaWOFtf/wm1OPFgb1rBz1Z+YvfD3bD64DWv4mktJkqTvmDyb9Acg5HPh9KkwGLXfjE5cDayfNYfVqzZRZA9gjFKwN2YY7z5yG71SzLTsnM4r29Xcdd3Ef2taJF9rFUtnvk1Nj59x/7Dvf/ogd42Ltbu8eE66n1lEkpYBfQ1EnmFKxYB9J7uK6snpNhSjWk3DgSk0JFxMr6Qc1OE7D0iSJH1H5I26z6NAayEz3/+UWUt30Ew0WbnxHAtr7uJlvLywgusf+g0PP3ANPfXlLC90c/HQ3vhK1/HRu5+xbOtejhQdYMvGrZTZtKRnp2JQeKgr3MC0KXOYt3QZW45YsUTHkxhlaNvfV+99wuxFi9lRWEnxrk1s2VmJJbcLiSYNwUAly7/6iOmzlrBy1U6qbBayMmLRneNdtSu3NjN5po0mEdS7JKoIz5BrLXMyZ6WTikof1dXfPFwaFdk5OixnCIauii/Y78qha2oOOq0OlWMj2yrV5CZnolYpCYntH9jSzIfzHLjNGnLi/7tbtUmS1HnJYHgehQIiKHjcNJUVc+igmn6X9CTi2DqNCU3TEZav+JRPpy2msMbIoMsuZnSPNPQKP7baoxz2RjJ08BC6ZqWSnpVNakIUWrHOaa2ksk5NZKwJrfUwhWutpF3Yg4iAF7vVTm1DJaqsMYzpm01KajrZXTKJUAfIX7SIg3UBomMTiYuNReM9RGGdkS7p4u9zmFKocHEdz7zXSqBbFJf0UhOeZkkXLTLAQSaGDz/xMbCnnhjjmadactQuo8yTQU5yensm6CigoEFH94wuIhiqCPpDbFpYy1PvOYjuE8H47u13xZEkSfp3ycOk552TA8vnsGCpltufv4HkjqVuqxWrw47ba8fZ4qFl91w+OGzklw/9iO7JZlq2T+X5fAX333QDuXHfHCYNemrZOfddkS1tpcqqxOdoFUOeK3lh0RN0F5EnfJh08ecvUt77tzw8Kq7jVYK1gL8/9hSrq9yYzNq2O6H4vE7Mve7k3T/dhMV09kOxrmYfVU1BjPFaksMT9wZCVG5u5Hdv2rA6T2xmWcMjefhHseRFdyw4hdai51jbPIxLB41Cp1bhPvoO88oymDjsEvQadfhWqthbvFQ2hIhJ0pIQcfaALUmSdCryBJofqAOLZ/Pm1NX49Vl069uHgReOIFVlRO097jQbt0dEvwBeVy17tm2ltKqR+sObmDvFy61PvsUn777FUz++lkzTScciw3ee9oTvVO2m5sgO8rcexqPUkpQ3nJsffZrXP/iITz75hA/ffoF7rhmM7lzmRBK8Vh9Hj3hosLbNSySCsILUYbG89laG2F7mCY+/PhJNdmT7007HENUTtaNaDAjEew44aWhsEhlr4tfzACoI0ljiobrGj1/eyEySpP+CzAzPo8KVX7Bg826OHirkYJGSPpf2IT13LA9cP4zC2R/yzrz1JMbnoolRoBJBL3nQ5Vx90QXEmkSWVLWWV9/8jCZ/DAajB5s9iatvupWekRV88NRX2DMjUQfUIiCVsWpeI1c/+2vuuWwIkcEmNs15lsmr3CQnadpObIlNmMjDPxtH0/Y1zFi6E39AZKSBACqjEnXGWB6/fiQ6zdkD4uY3S7n3FQcX/ymXV28z/NfhKTy/YOXuWRwVATEQEmVR55HT7xKSTJa2bXvr7fz2tjI2JkfxwUspbZMMS5Ik/SdkMDyPqvdvZU9JNZ6ORCo8AawxoRvjh3bBWlFBQ0sNtVUNNIqIpY9MYWC/PsRFHcvyHJTu38nBkqa23xfzegwgOyUGZchD/cHd7Cmtwa2KILlLHIGiCoKZPenbMxOTOoC9tZQdW/bT6lYSn9Gdfl1zMRgUhETArS09wMGCEqxiD5bETPr160m0/tx+i2sqcbKz1E98DzN9U76Lgw4h/K4qamp24AhYRNDuT0xEZNsUVmHlS6t54G8OLvpzOr++8Axn4kiSJJ2FDIbS/6wNH1Yzz2HgZ/dFkdw+Z64kSdJ/RAZD6X9WwBvEE1Jg1MnfCyVJ+u/IYChJkiR1evJsUkmSJKnTk8FQkiRJ6vRkMJQkSZI6PRkMJUmSpE5PnkBDiMZSB1NeqWf10RD6CCVqsTR830tvQMtN9+vZ85Wd/XUKLns4ntvH66jZ1MyLL7fSbNCQlhSkvDxASKlEqwFNtpZLJsRwwwA9Z7tOPeDzs+r9Wqau89DqVxCZa+axx2LoZwmw/MsGPpjrJqBVYuy4E5rXHaLnjYn84hojZnlZnSRJ0ndGZoaIIJRq4OLxBhwiqPW8Opq774zhlot0WEvctETqGS8CYMu2Rv7yWgPbS4PExIuo1+LFMsDMtTdEoGv1Ybogit/8OpHr8lQsfqGWT9Z7OdvMe0q1ioGXRDE8JcD+ViVXXRdF13glSqOGQZdF0DPow5do4q47Yrj7gUi6+rwcPOQT4VueACxJkvRdksFQUGtVpKRpiNCHOLrHxpv/qGZZMYy+xERWvJasXLEuRoWpuJX3P7NS4VFiERlkbIqGjAwtMSYFMak6evYycNmV0YxP8bFooY2ak2frPUl4VoeYFB3ZiUr0FjWZ6RpMGoX4VBTEJmtIsihxVriY81YNk1f4yB1rYWieBo2cy0+SJOk7JYPhcXzeABWlXsoagjjSIvjZP5K4OEdN29HObBP3PhyFa3497y504jhNcqbRKUlJVtHa5Mfh7lj4Hwr5Q7TU+igqC2B3qrn08WQen2TkHO+OJkmSJJ0jGQyPo9Fpue7RJN55K43HhoZ458/lvLncg7Mjw0sbGM1PbtGz6OMG5mw+9UHQUDCIRzxfpVb81zeqVoptdL0klpffSeM390UQ07FckiRJ+m7JYCj43QGqq3w4vUEaqgLo4jXobV42rLSy+6ifplo/dnsQm0fFwJviuX1AiIa6cGoYorXGR4tY11zlofCgm03Lm5m+FUZebCbT2L790wu1va6yIYDb5udIuQ9XOPAGQjSJ7daK9NPZ4icQpadXVw3ynBlJkqTvh5zpPnw26REHX0y1UhNSUFvoYtM6B2t3eFBEaOjTR49tp50Ka4iobBODBhronqXGV6uk5zixboeNfVUhrBUeNm1wUFCu5Io7Erj7Mj2Gs8wO73f7WTutkQUFIYyiHOWN0L2vjoSQn2VfNrOiJETA6qOyMUTuQCOxMhpKkiR9L+SlFZIkSVKnJw+TSpIkSZ2ezAy/Jz5HgKpaH25fx4KTqI0qUpI0GOSZoZIkSeedDIbfk9pdLbzzSQuFdR0LThLTJ4Kf3BNNzySZnEuSJJ1vMhhKkiRJnZ5MSyRJkqROTwZDSZIkqdOTwVCSJEnq9GQwlCRJkjo9GQwlSZKkTk8GQ0mSJKnTk8FQkiRJ6vRkMJQkSZI6PRkMJUmSpE5PBkNJkiSp05PBUJIkSer0ZDCUJEmSOj0ZDCVJkqROTwZDSZIkqdOTwVCSJEnq9GQwlCRJkjo9GQwlSZKkTk8Gw/9x9oajVLU4O/71/6FQEGdTPdUNdgIdiyRJkr5ripDQ8XcnF6KuyMXeEh/ucK+rU9Ozv4HMGAXNR13kH/Bxck2Z0/QM6aHDqO1YcJLWsp3sOtxIau/RdInXdSw9O6+9kaK9+Thi+tMvNwW9umPFSQIeB3NfuYs5kY/z0YOjUSg6VpyOeAO1hesoqFeT3XMw2bGnKfgPibOeZe/8i89tI3j2qQkkdCz+T3lqXazb7cPjO/HDjEjU0S0RDhR6waih72AD0ZoAheucVIQUxMeqsFZ7sYrVx9PqNGTnKijf78WlUNN3tIEUI9QedrOv2Ad6DQPEsjjt2T4cSZLOJ9XTQsffnVyIsp125n5cy1/es9Ko09Gnl44Ui4KGg628/GwtH813ExTPbKz1sPbLRuYWKrlwtJEY46k7uroDa5j89j+ozbqZCzINfOtZIuupP7SNxXOmMmvhKg5W2UjITEfnbWL5h79jXkUcQ/r1xnLaOBoiGPCjT+5D/4zojmWnFwx4Kd38Je9OnYMj4yKGZohe+zihYIDafSvY2RpFZuyJ61pKNjF96ifMX7qWtWs7Hus3sMceSa/MOLSq/+wgQ9BjF4F/I0f9CaREajqWnkgp6kmfkEPPLvGc+5DiFAIhji6u4bbfNWMVUe3jN2rZUA5V+c3M3Rqga5aKxW9X8cGyAKMmWYjzuXnnsXLe2h+id6qSHTNq+PNrdqwGBfY6HwUrmnj7MzfZI5WseaOO515uoiLdyEXd1BxaUs9Pf95ATaSO4eMMxKhkMJSkHzJ5mPRrSnpcGM39N5iITdVy871xjOiiRq1RkjUymnsuN9C9p4mx3ZWoI3RcfrWJNN2ZO7jUgRO5dGCS6Mx9OB12bDYbLo/IMNvWhrDtXcKLL39Oqc1Ez57ZqI5u4F9vzaJGk8zYiy4jJzaI1+Vse53D6RJ9efsrg36xPbtY5vKSOeg6bhyYSvC4RCfg9+AQ68Ovs9td+PztK5VqHT3G3sl1w1IJeF3YxXqb3Y43vD4UwGVtpnjrAuZsK8MaXmdz4gtHf0FjiiFUtopip4ms3O507dqNLvpaZm8pFq8P4Du2vbayeggcK5Aos9ftaN+WCNxuZ3ifDpGZBUTw9WFrqGL32pms3l/3dXk7iiveqHif7iBx/cZx3fhuRHQsbhfC53G1v0bUjcfdvn/PWY6lKsXnmd7VyI9/EsOArhqGXhPLw7eaSRKfZUy3CK4ZrUenVorqCGB3KMRAQ0XqEAvXXR3NzdeYycrUc+nVRgwi6Rs6QE9Wmpr0fpHceqOJOL2PpW/XMn8/dOmtJydbz8W3RpAhs0JJ+sGTmeHxRCfcctDK55sDjJ0YQ6/4juUiHyzZZOWrL+1s2e7gQIOOe59O5NpRBlLjVJwuKQoFfJRsns7WRiNbZ77Ne59+QUG1g7j0LOLNLma9PA/t0Ku4/ZaJDOrXRwSYPNz7pnBAN5xszx42FVVSsmsT777zLks37CZgSSEjNQ5ryV7eevrnvP7ZLGZ+NZeVm4+SMWIkKSJjCQVd7N82jZf+8SwfiQxwyYoivPoEstNj0YlAEPTYOLRvFfm7D/DFGy/w1YotOOP7MyCuiS9fe4k3P53F+i272LRiPvMX7kSV05u8JAuGiDj85WupsgyjT6SeyloXQ4bnUu6OZkx3EztWvcs/n3+NKdMXsHpTNYb4dDISzYRcTayb9nd+9uRnHG6uY8uyj3jn8yWUBxPJNdXw8XMv8umcZWzdspXVS+azcsMRYvsNIitSi6d2G2/++e+89OYX7G+Mpv+IXI7lq25rDcvmfspLL7/JnDU7Kdy1h2kfvEFtzBD6iCxZxLNvUygwpxoYNcpMV52PeQtt6PvFcMtEC+PGmsmMU1C9vZn3ZzvYle9g0Vwra3Z5MA6I5I4ROppF2/joKxs7djhZvtXHkNsTePjeKHqKgFm/x8bSJg1XpPtZvs5HfLqKnZu89JhgoU+CaCMdRZAk6YdJBsPjnSUYFmrMInM0YIo3cNHlIjOMUJ42EIaFg+G+xe+zoTKXh376KHfddA3JilaWLd5CYraRzdsbuPLKMWQmh3MeJVq9EW3rQT45FMWFUWXMnr+XAVc8wE8fuosL+2ewbd4iWmJy6dUjjwsuvIKJ11zLZaOHoKregbHfhWQYFbSU7Wf6R8uJ638xQ/r3JDddx+H9a6gJdaNfblRbMDyYP5+l+1wkjZzEb3/2IKO6J4p9R5PXfzBZhho0Y57ghV/fx9UTx9MzLUZkSu2ZTdnmaXw6dyM7t++nSZXEuBtv5Zr+adTv2yoCSxHdho1jQN/upEXb2LRtF1HJPclMiyOjZzdMFTtYtqeK0Tc9zM/uvoXhvTKJjk2lz4BeRGrtdLnhL/z50Vu44hIxEIg3Ez6qqDYlMWDMCLpG+qk5pKLvxT0whwsScLH5izkUBjJ48JEfM2F4DtXr1xLqdwO3ThhMjP40H4rYpkqnIjZahabVw8z5Ihj2jebKwTriosVnKRpA+VYruz1mnv8klbsuN+Ldb6c2JYJbhrcHw2UFan70hxgylQr6DNTjtQdQGtW4D9lZWq3ioXsjqZ7fwqIDHurrFAy9IVIGQ0n6HyAPk/4bVAYVQ29O5rmnokk7xyNfpth4xt12B327JBMVE0v3vr3JUW+jxBmJyW6lrNX79aHIUChIa2MVCVGWtn/3ueo6xo3qT1xMFMld+jEsvYGKplaCIYXI1CKJjGx/mI6dBxP04arZwvbdVRw9sp8DBw5QVFKBX51IQmTHc4SAx4ev2UfQ6UFhNmLQimagEMHYYMZs1KI2RHRsOwK9yCaPUeuMXPaTZ0Wm+jIPXjOIaJ0Gs9pDc/k2du+v5PDhA237PFzRgjEiEbOu/XinSmciwtSNa64XgWvcIGLF+zEbtCiVagzmCMx6NTrjsX2aCRenjaJ9vSXSyAnnEHnqONrSSo/0PDITYkhI703/fkNIjDWi134HYUfUhTlSJcqiwvitQ5xKsodG8feXUhmndvD7X1cwc1/HByiibVyWhR//NIL6HTb2lRxbLknSD50Mhl8LsmtOPc98aKf+iId3/1nNoj0iUHkDFCxu5KUvnezf0sLfnqphfVkgnESelc/loLmxmbXTprKjqBprS7PIMDdR5h5C96x0LhsTxcyPP2bVlkJstlr2Lp3OZ7tFpjIkDY8IWAWL57FyzXYamlupP7iDbSWJ5CZFoTldf69QYUq5gGGD+9Dvorv46a9/zS9//jDjh6XT2Opqe4rfYwdLKlc/+jMmxh9i1oyV1DXa8Hf8xqdUKAjUVGKz1rJv02T+8fepImC7RJx14xZR2+u0oYiIYvDIIcSFz2ZRGUnOGcrQgf0Yf+OD/Fzs8+eP3EWvXCN2V/gM3ABuhwOXz9v2f5vNjtN97HdTQexP6fPgqammteUI6xa8xUuvLsImnhCuv7bnu9x43B2/nYptoksgIzaO/aUHOFLXTFNZAZs2LuGIrWObZyI+z70L67j713XsLAmw8ZNqfvvXWvKroHFPC5OXu3F5/NjFtsJlt9cEKd/QwnufNvDGp3aOVjh44bEy7r77CA/+rYVGR4jWUgfz59io2WtnVVGQjAtj+cWdFrpEKE8M4pIk/WDJSyu+FsJW56O6KSgCg/inWklSqoZoo0hERBZVIjrFMFV4ebaW05z4eIL8qS/y9sxFxI66E8PRdRSUtdJt8IVcd9MkBuXGg71edP5fsXztcgqqvCRkj2XCnTczwFTPh395nNKsq+hldrJ95z500RlcdevdXDaiN5bjoqGzoYrlU94i5va/MCpOQSjgp3zfFuZM/4ItB47gEdnegIsncOO1E8mJULD5s9/y5poWrnj0X2Tt+CfPTs8nqucwbvvJk1zZw0jN4dk8/9xUShv8JHTpz4SLb+fSS7rRsmc2/3zuGTbXxxGflMO1t/2Eu6/s2VaGgAhmB/JXM/fzL9lT1YAqOpHh19zCpIuHY3IdYsYLf+fzDZX4tQYslljyBt7I43+4ri27DgUdHNj8AS+/toQGn5acfmO55uKbGDE8hW1TX+K9eWuobraJ4KwgMjmWjIE38czjV6Px17N8/nS+WrwFnzmdFHU0ycOGcdek8cSd6YoR0dxd4vMs7fg8w9Q6JcnpWnRiAHK0OiAWqEjN1GBQBKkr8dEsviEWsxK3VQT2k07QUaoVRMWr8TX4sIt1Uck6kkUWbhf1V9sQIi5HQ6Q8gUaSfvBkMPwe+b0iy3B7UBvNIqI68Yooq9LoMBr1X6fkwYAPj0usEx2pUqXFINaFT/5w2awE1Do0okN2i05aoVShNxjQio76ePba/cx8fQo5P/tbWzA8xiuyKo/X33YpiFoEIaNB23ZpR0BkhnZ3sO2wpDrkaStf+LBr+N96TdszcIXPMG0rjwgIegNq0eGHg6xLbNPXEQw0OiNG/TcjgvBlGR6Xq+3M0nCD0hrChyw1Yp9BPCLNOj6IKBRaTBbDN7+jhXw47M62QUhb/ehF/Yg6OFZ/x58pi0pHpFkv/gjhF9mmy+VpO5N14yczOZrWi1uvH0PMOQxUJEmSjieD4f+glopDLJs9ncIWkcWGA6Uij7ufvJMsU8cTOonClV+yaOtBWrzQ0BrNFbdey8WDUv+7axElSeqUZDD8H+RqbWDX5nXUOBVo9Al0G9qfvJMuku8Mqgry2XW4Co/SQELXfvTPScYkf6STJOk/IIOhJEmS1OnJs0klSZKkTk8GQ0mSJKnTk8Hw/2PhWS0cZ7tZ5/+4kC98xulx1y1KkiT9B2QwPE98zmbKSoups317aqgzCV/C0Fx9mLLqhrbLH85k37y/8/g7c2l2+jqWnJm7pZLSksPU206ap+iHKuClfOXHPP6HGRzpWCRJkvSfkCfQnCe1u2bz0vN/Q3PdJ/zu2l7hKfS+xWOto6RoL2UNHtSmGHr07UN0qIUFrz/G7KZ+PPHkn+if2PHkUziw+GU+b+jNb266EOM53KascMnLvPzpQuJufIO/XJf3rSmnPPXFFLvj6JYSvgvOcdc0dsy/WNbcsaCDIi6XUX1ziTjdhIxnFcJWuZ9qVSZdk9ruSnoiEQwrNnzFG+tMPPr7q0ntWPxDE/A20FC7Bau7Y0EHhaELafGp2Oo20eIOD0AURCSMJsFiRimq128vpKLuCL5A+6gn/PyMpBy06mP1GcLTXEht0xE8QQ2GiFgC6mTSIg3Ymgqot574gSg06WSkdkerkRdiStLJ5I26zxNzUndirPlURQxlaF7it2+x1lLCZ29/wKotOzhSUUHJvq1sKvGRN6A/3dOTaKkpJLXPJaScOK/RCeK7DOPCvjli2+d2ACAmsz8p3gL2awYzvkfst4Jh5dq3eXuvkdG90r++eXeYx1rL0g9+y1uLDmJ3uKirKqd8zxre22Fn3JB+JJ5+QsYzCt8CrmDBS0yr7XbK8qBUYcnsw8VjutF+N9fvUYuHL6c3M2uBjXXr7F8/tux0oUwykBb1rdJ9ze+u4dC237DlUCE+nwuHrRxr7Wq2VzhIS8iktXwe+wvmc6h4JQ3uLHLTM1GJz8zdvJPDJSsoPjiT4toGNMZUEmLSvw6GwZat7N27hsbG/TQ1HxZZ/RfsbYykd2oyjWXTWLV+Jl6/HaezBmvTFvYdLCMzYwBGQ+e7DEeSzkYGw/OoetccdjmiKFv/Fa+9/SH5hTXEZuWQEKFkz9yFbCw3cu2DD3PnDRMYPqAH1p1fsi+US67RRsHBHdQ0tPL5e28wa8k6HKZEsjMSCLQ28NWLv+WFD6Yxa/ZcFi/bh6X3QLKiwvcoC9JUu5EPX36WNz6Ywbz5W2nwx9ElK75teqdQ0E9NwTLWHnFycPqLvPvFIkrIoG+qil3zP+Sfr0xm9dY97Fq/jNmzV9NoTKdLZgLmiGgiQ3U44vpz07U3Ee3xM3riKGpsQQb2zMZdtZxXn32GD6fMYfHyQgKmdPIyIlGI/R1a+S5/+Pun7C21U1k0m7ffnUp+NXRL1bH8/Zd5c/Ic1m/bw5ZVC5i/cDtk9iAnIQKV6ygz3/gX/3pzChsLgnQf0/3rgBj0Oynes4JXXnyZKXOWUVjtZOPHf2eTPZluOemnzMKPZy1z8sGz5XxepKRvNx0R4XkrAyJLdYbQm1XEx6u/fiQkasjI0XOmyzxV2mh0wRrchoH07jEJrc9PRt5IHO4Q6WkDyMjoS8jtIzH1KjStuyCxP1EGHRpzLmkp/dAGWyD5XjGwGXpcVgj2iq/YUaFj4JD76drlAqJCNdT6Uume1Y+46Eham7X07n01Fn0QU9JYdN4ACck9MHQEw6ItjfzhuQZ2ezSM6S6zRalzk8HwPCrP/4Kvltcz+MIrue6qS8m2hFi9aDvR2dEc3LaPrH5jGT0kE2V4RglzDKkiNL27W8Wo1AArp3+OPWoUk264kmF9sinN30GFz0JeTjLJ6TkMHDaK4UMHoynLh77j6B6tw+9qZsHkuXji+jJkQB+6dc3A35jP/qYE+uXFhqMI1XuXsPiQyF58Ri666X6uHNqV+Cgz5thUElXVNKZdysN3XM/4ccNFoMgg2qRtO6TXfHgjUyZPZsGidWw/aGXwzXdx9YA8ogLNLJ65Gkv30Qzs04NcEQTrKrZR48+hW7oZY3Q0itb9zPx0Lqq+o5k04RqG9e9Bcmw0cSnpRAbKRflv5/E7JjByxBC6ZyeL4CTSaKWO2LQs0pMCFC9toeeNQ4hrq9UQ5Tt3MGfRbgZNvJ5LLuiJu2gD249EcuXt19IlVtdW3jNx1ntY/EUDRTojl15gEIFJvEChQCGy4ehYDQkJ3zzi49TExagxnCWWuBo3sHfPZxwqWUtVg43k3nfRI7ULkSYzzuatlNWWkNJ1ErHqg+xv0JKVnNb+g37AQVPdTlpV4UFAHKGQH6+rjqDSjNaYhta1k72F77BbZOK2YBxpeReSFi2yaH81xXsnc+DQQkqqijCn3UG/bn2JiIgSb6X9SMHR/VamLXQSyjRzzcAz3dBVkv7/J4PheVS7dwGufvdw6xXDyUhJICk5Ceu29yiNGY66soSAOZ2u3ZLa5vYLaz20lrUtqYxND1Hr9jP+pke5oHsKSakZRDRvYEd9kLy8HiQlxousJV5kB9G07F+Pp+votmDorVzJy89+zu7yIxwqPEDB/n0UlbegjevG2IEZbcGwbNMXTF5QKTKXgVx23Xi6x5vbOk+9ORJl/Q52K0X2N34QaclxRISnYeooWzgY1ideyIP33C8y1yDpg4aQE6mi+cAsXnx+FsV1ZRTtL2D/wQOU1rjI6tqXvl3i0RgMBJub8PgHcOfPb6ZXWgqxFiMqlQaj2Yy7fDOlsZdys8j84uOjv/ntU6nBFBmFQdFIwcpmehwLhj4rhbvWUu/pwY3XXECyCCrmgIIGq5tB40cRfw5HbA3RWkZeFcs1YwzEiSxdxEFocPLhew1M+aqV1attXz+27PUQ0dVM3nH3hT2VcDC0G8czuP99RGmCRKUOIcagRxGyU1u2jPJaHzqDG4ezlsbyAxgyhovnifd6UjD0OUo4uOPv2MwTMfpq0CePpGveNXTPGY3JvZyCihBd0nugDtVSVqNi0OC7SI62oI8ZIv7/TSAMS8w0ccM1UVzWX4eu7b60ktR5ybNJz6NgIMChTRs4WtV+ooP9yEHKWruSkZHCgJxYNixbwOrd5fgCHlpKtjF5eSVj+2djEAGhvvgg+/Ydwu0L4Gupp7QEEmKTMJ6hs1dE5DJoxDjueuJZ3p86lSlTPuPFpx6gfzgr7KCNTOSyhx7nqpwmlsxZS9PxZ5aGz7Wy2kXBRXmqtzLlo7mU1tvabgYeptbqSc7twvUP3UnP8DHLcBCN68ngcdfy8NOv8bHY52effsBvH7tJZH4nHldUqfTo9dr2wHO88Mkjdof4w01l0TI+/WQ59c4znO0qMkazIRJ7axWNLp8oqp3yQzsoCc8JdY7CmeHyL+qZttqN1d3xukQTjz+dztSp2Sc83ns1lSu6n9vXSKEyYInNo8/QO0ls+5xCIsurpbpiPwGDCIoVm6hrqUWhs1JbcoTTnSwc8FvbbmpetvstNuzcgN9vQm9JITquB0Z1RFsW206DPqILXfr8mK4JETSUrqW6taXjxudBitc2M+WzJg7UynPoJEmeTXqelG1Zxkt/e4KKnJvoF+Xg8JFKomLTGXb5JCZc1Bezq45ls2ezYdtGKlpFt6iMptv4W7h+XBYbXv8VUw94GDxkGC1lRXjRkdf/Qq674TJyRCZ3rGsOeNysfefPWCf8jmtyItpmnijbvZlZC9ZQcrgIKwoSuvZkyEWTmHRBNodXvsmL78/EeO0b/DhyHb9//mPUWQO4/L5fc+fIdGzlC/nni1NFhyo2LrLC7t2v57Y7LibCfYhP//EjPiswkZHZjcHjb+OJO0e29ckBj4v965exaPlGSqqq8Wo0pPcbwpUTbmRwWohVH7zARwu3cKRaTXrPNBISRvPgH26hd6SBUNBL+Z5PeeaVZTiDKgwx8QzsezO33Tmcxu1L+XDyFAqr6yjZYyN9RBdi08fwu0cmkWhwsXrpTBav343NrcBiSsRgSuC+3zxM3ilOSj1ZY6GNPz1cws6eKXz6pzhyz5L1nY3Hupedax5gX4OFqOhupGTeyogBI0XSt4P8da9TcKSI1P4PM6zvTeiaZrBs8xSabTFk5eThtB2mpeEATlU68RFmkbyHZxQJ0Xf8TJQFf+CwCG7KgBuP0odWl0de33vpIsY2h/e+wKod24mKSUPTcfaovclJzrjnGJqdg8rm4tmHyvgiZOa9F1IYlCozQ6lzk8HwPHG3NlJVW4cuLhW1o55GmwedOYqUFNFxd0zT5HPZaKyroskRQK2zkJiShFkTouFoMXZdFBFaJc1NzYQUauKSU4mxGE9I9QOeFpa8+Ay+m//ANbntp52Gr1NsFdusb7LhE8HQFB1PSnKcyCHA1VRBRaMTU0I20bRSXVOHJ6QmMjmblEiNSAxdInspF9miH7XeRGJCsgg0WtFBh5eX0hKeP1hkg4bIFLJTvjm/M+D30VhVQbPdRVCpxBKXQlKcBaUIds2VR6mxfXMdpEodTXrXZNrzxpB4rY2qoxWI6hH1E01KQgIGvartZuVV4fIdlz4p9dHkpCeg1Shx2Zuoqm7A4w+JLLqCbXtKuObnD9LlHGb2CHiD1FZ6cetFgE5Qn34y5XMUDLiwW0tFWcL/UqLRpxAVYRGDEyvWFjFAEJ+JShcn6jIepa9WtIUm8TyxXxHE/H63qPcTv6JKkWGaLdkiytbhD3nxuKxtWaRKGy+2Gyv24Mdpr8QhBiInUOgxRYZPINLQuK2Rx55qotfDafzqSgOiKUlSpyaD4f9nwhPtFm9fT0mTB6+zmj2r6xn75M8Ym27oeEbnYK0+wp6C/TSJAFy4uxx12hDuvm8kMTIBalO8spmFRxVcd20kGdGyUiRJBsP/z7itjayc8gYbRWaj1CQxeOIEruyfifpsp1D+f6Zy9zrmLFhClVdHbN+xXH/5GDLl5XWSJJ2GDIaSJElSpyd/KZAkSZI6PRkMJUmSpE5PBkNJkiSp05PB8Hzz2tg15xP++clGTpr0QRJCQTc+rx2v10Wg/WpxSZKk75wMhudbwIezvpKyGisnzzrod7RQVXKYQ8WHKausorTBij/QHhCCbht1LfZ/P0CEgjhaG2h1ne7+Jj8cIX8zR/e+wqI59/LVvF+wes86mj0BZEiUJOm7Js8m/QEIhaf18SoxmnTfjE5cjWyYNZuVKzZQaA9gilFREDucdx6+lV4pZlp2zuDV7SruvG4i2bHnfpNlX2sVy2a+Q02Pn3LfsG9uw/Z98dS5Wb/bi7ftgvNvmBO09O2tJ/IMt4+zl3/Ohr3VZA++nSRlFbs2vIW615MMzclFLYdxkiR9h+SNus+jgLWYOR9PYe7y3bQoosnMjuNYWHMfWsYriyq5/qHf8siPrqWntoxlhW4uHtob/9GNTP5gCsu3FVBWUsz2zTsot2lJy0zBoPBQX7yZL6fPZ+HyFWwrsxIRFUdCpIFAaxGzP/qMOYsXs/NQLaV789m2u4qI7C4kmNQEA1WsmvMpX85dzpq1u6iyRZCZFtM2vdO5qNrewtS5NpoNOnITxGtE1tpa6uTLxQ5Kj3gpK/vmYVeqyOmi40xTHbrsLRjTLyEnPh69yYCjcQVO01DSYuLabhAeEtsv3NbCpwuduM1asuNkhJQk6T8jg+F5FPR5sNlt1JUcpPigmn6X9KT9pmlindqIqqGEFaumMGX6UorqTAy85CJG9UhFF/LQXHGYYlcEA/v3Izs1kZSMTFITo9EqfDhbyymrBmOkHlXLYYrW20gb1x2z30NrUwvVdRUo0oYzvEcaCYkpZOVlYlEH2bJkEfurvJgjY4i0RKH2iNc2GslNi0Vz3GS+p3NwUS1/fbsFX9dILu2tRqFQYIjRMvgCM6NHn/gY3FtHjFHx7Ql7j6O3ZBJtMoqoZ6exbDlHWlPIyRlGVMd8SUF/iI3za/jd23aiekUwXs7JJ0nSf0geJj3vnBxYPocFS7Xc/vwNJHcs9dhsWEWgdLitOJrdtO5dwMelJn7x0AN0TzLTsn0qz+cruP+mG8iN++YwadBTy64F7/Ph7HwqrUp8IrtCfRUvLHqC7iI4hQ+TLv78Rcp7/5aHR7XPANjGup9//PQpVlW6MIksKxykfB47pl538e7TNxNpOvuhWGeTl8qGIKZEHSmRYguBEFWbG/ntm+K9OE9sZlnDI3n4gVjyYjoWnIbfXUnNkXWUtfrJ7H4dyRbT19NGhVuuTeyzvCFEXLKGRIvMDCVJ+s/I3uMH6sCi2bw1bS1BUw49B/Rn8PgRpCj0Ils77sc3t0dEvwA+dz0FO7dzpLqJ+pJNzJ3s5uZfv8lH77zJUz+5nizTScciA0ERbcPTIHmoK9vNtu0leJUa4rsM4+ZH/8Rr73/Ixx9/zAdv/4v7rhvSNmXUufA7/FRV+Wi2d0zqpFKQckEMr76ZIbaXecLjzw9Hkx3V/rTTcTUXcHD/bI7aTXTvdQPRoWKxbXvHFERiJEeQljIvjY3+thuAS5Ik/afkYdLzqHj1TKZ8MYtV69azdVchR2uKKaxS0qtLEg37t7Bi5QpKdxeSv2M9W3YcJrn/CPr3zsGoVRKiiT1rF5Ofv4Mt21axaUs1CendSDIG2LNuL4eqitmxaS9FFUXkbypGk51Dt8wU9CovDWUbWb54A7t3rWO9eH1VXQKDxw4m1eBhR/52EVjz2Zyfz+7CA1QGYxnWMwO16uzBZueUCn70h3qasiK5oo+m/RCoSOP0euW3Hjqt4iwzzrdQtP7P5BeXYIgI0VyzmcLdL1OjHkVWfCLh4ngbHPzjJ2V8cAAuvchCwjnMSCFJknQq8jDpeVRVkM+uQ5W4j13loFBiSuzBJcO60lpRTkNTFTVV9dS7fRgi0xg8qC/xUfqOJzs4vG8b+w83gsZE116DyU2NRRkS2d7+new6XIVbZSG5azyBg+UEs3uJQJqNWR3A3nKYrZv30eJWkpDZkwHd8jAaFW3TO9WUFLB/72FaRbMIT900YEAvYvTndrZq42EH2w8HSOhppn/af5upOWis2EaDrfHryYMVInuNTBxHUlREW6AtX1bNA39xMP7P6Tw5/gxn4kiSJJ2FDIbS/6wNH1Qxx27g8QeiSZFZoSRJ/wUZDKX/WX5PEE9IgUl/xuOtkiRJZyWDoSRJktTpyVPwJEmSpE5PBkNJkiSp05PBUJIkSer0ZDCUJEmSOj15Ag0hGksdTH2tgbVlIXQmBeH7rYQCIXwBHZPu17PnKxv765Vc/pM4bh2no3pTM/96zUqzXk1qUpCK8mDbxeVqjQJttoZLrorl+gG6s86sEPD5Wf1BHZ+v92D1K7Dkmnn00Wj6RgRY8VUDH853E9QqEbtp4/eE6HFjIo9PNGKWl9VJkiR9Z2RmiILIFAMXjtXTWuqn61XR3HF7DDeJoNd8yEWjiDpjxupozG/kz681sv1IkOg4NcEGD6Y+ZiZeE4G62YN2UBRP/CKBiTkqFr5QwyfrvZxtxkClSkX/8ZEMTfSxt0nBZRMjyYtTojRoGHBxBN28PlwxJm6/LYa77oskx+1lf5FPhG95ArAkSdJ3SQZDQa1TkZauwWIMUXnAzrvP1bDsEIwcbyQrQUtOF7EuWonuYAvvT7FS5VVhsSiJS9OQlaUl1iT+TtfRp4+By0UwvTDJx6KFdmpOmsPvZAqRTcam6chJUqGPVJOdqcEkssvwPT3jUjUkRypx17hZ8G4tn63ykTMmgsG5GjRnvo+ZJEmS9G+SwfA4Po+f0oNuSmoDONIi+PlzyVySo247bEqOift+EoVjTj3vLXZx0iQMX9PqlKSmqGhp9OFwdyz8D4X8IZoqPBSU+LE51Fz+ixR+cbMRvZypSJIk6Tslg+FxNDodN/4smXfeTOWRwSHe+2s576z04urI8NIHR/OTm/Us+LCeOVtOfRA0POGsV6xSiezuv83flGoF3S6L49V30vjV3WaiO5ZLkiRJ3y0ZDAW/O0BttR+XN0ijyApNKToi3F7Wr7Cyo9RHU50fhyOIzatm0C3x3NovRF1NODUMYa310SrWNdd4OVTkZsvKZqbnhxh+kZlMY/v2Ty9Ei3hddWMQj83P0Qp/+027AyGaa/3Ui/TTaRWROE5P3x5ajt2iW5IkSfpuySmcREAKn0067bNWqkQgqj7gYsNqG6u2eQkZ1fTqo8e63caRZojKNjJokIEemSo8VQp6jDNgE+t2lwdpOeJh/ToHe8sUXH57AvdcrscQ/v3vDPxuP6umNjBvbxBdMMjRBujeV0c8fpbMaGLpoSD+Zl/b5LVdBhmJlWeQSpIkfS/kpRWSJElSpycPk0qSJEmdnswMvyc+Z4CaOj+e01xeoTaoSEpQyzNDJUmSfgBkMPye1O5q4e2PmjlY17HgJDF9LTx8bzS9kmRyLkmSdL7JYChJkiR1ejItkSRJkjo9GQwlSZKkTk8GQ0mSJKnTk8FQkiRJ6vRkMJQkSZI6PRkMJUmSpE5PBkNJkiSp05PBUJIkSer0ZDCUJEmSOj0ZDCVJkqROTwZDSZIkqdOTwVCSJEnq9GQwlCRJkjo9GQwlSZKkTk8GQ0mSJKnTk8FQkiRJ6vRkMJQkSZI6PRkMf+ACjkYqa1rwdvz7nPmcVJXXYfcHCXUs+sEKeGmuq6fZ6f3hl/UHKOB1UltXi8sb6FgiSdK/SxESOv7u5ELUH3Kxr9SPJ9yn6FR072sgI1pBS5mLrYV+Tq4pU6qeQd21GDUdC05irdjNnpImknuOJDdO27H03yCCROm8l/nl7Eie/ehBuioUHSvOwZEVPPSrpYx9+mfc2CuF0xTxh6HhAC//6V1cl97DY9f0w9yx+HQC7lZKDuymVpPJoG7pGDTf3ZjOZ/WyY5uHZm8IhUJF75EGkg1QV+Jm/2HRBnQa+o/UE6sMUrzbxZH6IEqNAo0mhNPZsRHx74hUDX2ydVh0/8ZndhJr+S72lLaQ0msEObGnbz8N+5fw1HszuOLeZ5jYN6Fj6en57I0UFWyl2dRT1F/ad1p/0pm0Ul+2C6vX1TboUyjiiE/vQ4RWx2lbSTBEw1EX20T/c7K4XNE/qXzsPRwgIllL7x46ND4fBRvdtJhVJGtDVNUH2vuz41iiNSREhzha4keh19BvhGjPiiCFu1yUNQYxx+noO1iHqeP5nYXqaaHj705ONI5tNmZ9WMtf3mmhRiUaVy8dqZEK6g608uLfa/lwnguPL0RtlZvVMxqZW6Rk/GgjMcZTN+WaghV89Mbfqcu6mQsyDSc0eHfNfmZ+MZV5S1azfv161hfVE5+cQZz5+E4vRNDvw61NYuCAzH+vcQYDeBVGcnvnkRKh/3rfQY+dQwWbOeqPJ9lyXIhsKWXWl9OZs3B5e3nCjw0b2VutpGduElq1quOJ3w9vQEFCThdykiyoO5adTjhbXj/jn7y9LcjwAX1E/X+7bO6aAtYWNREdFY3+XDt7Mdqxlzt5/bcVPPbXOr6Y6SB6VCRD05SU7rDy1l+qeXGyHf0wMyMTYeU7VTz+11Zaxed/ZG0j//jEjk8E0coyN2s32CnzaOiVoxH7P3NA9DlbKNy8gK9mz2X1pu1YVRZSU+Np2LeMD998loZs0X4y9B3PPjW/Qkdul14kWnQdS07P01rFqsl/5YN9OkYM7E30SfXna6lgx74CgsYkIvXn/rlXbf+Kz2bMZcXq9vazqagGVUIGSRFalGeuAtzVJaycMY3ZS9ewu7CM/Q4nJkM0sSZNR3n2EzImYvk3yhMS34GaglXstUaRHiNGNOeZ37uTzXNeotzXhNtWgc0OEUl5Zw6GTj+r3q/k0dftuCvsvPiaGMg0BNk5u558h54uKjcv/aWGdU1axo03EKy08fS9FSwLaMgM+ZnzTg2vf+nEoxP9VqmXdV82MHNjgNTsIDP+XMVLU50Yh5sZnhhi+VuV/OIfVhRZBi4YqsPYUYTOQgbDrymIF40gVzSuOfvh0T+lc0U3FUqVgugMHZENLkqDRq4fpqRVqWVIbxEkm9VceKHptMEwIjEXVcUymtKuok+86IQ8XoJiPyqVipDPidXmpOXQemZXRHP58H7kZKRgMXSEglAAt9uDMiqNgf0yiRTBKLyXkN+Nw+UlEPDh9YpMRfQyPrcTnz+EWq0Wo80QAZ8Xl2jKuT3ySI8183X3Ib4ctrpyNi76mF2hfvRNVOPzBVFp1CiDHhqObOTLeRUMHtKDmLgYIhWi01zv5IqL+4tgGMTlcuMVgwGFyIo8LjEwCIjXhvcpyupxu3B7RJYkiu9xiS+fL4BS/EMpyhcQGa47/Hyvt21/SvH+w8vbiiTWuXxKkrp0JS8tBu1J2W9AvF+309322kAwKJLlIJqIaJL1ToqsGnrnZGBQBfAHjn//4r3sXcJnGyvIzMjCJMouSirqXXn6TidM7Du8vlwEvpY4MyPiAuyrE5/xxSZ6iIGRosTOonwnxVUheo+OFpm6k9UH1Tz+VhKDxfvId+n429PJ3DbRQq6oq08+thE/wiyyOuVpf48IuVvYPudT3p57gMyuXYg1e9izdjP7fYmMHDEMbeVSWtIm0Ccu1NF+lF+/D7/43J2ijYQ0Zrrk9iAx2oTq66gTxCvWu9xe0U58ou6UqMOvE6s1phjSLSITsGrpk5uBXinqL6gQ60VLCXppPrqbWUtWEIrrTYpZfH5B0VGIdWc7MOFqrWPDnNcoixzL4K7JRKm9HNhSSFSvPOJ1px/ihFqPsnrhYmo8kSQlR+Iq3877y7fSpecwuidoaT6y6+vyJJ9UnnD7CX9PPB6PGFCJ2lF2tC3RJl3WJvYte595DbkMzzKJehBtUqPpCMynr5/TElla7bZmfvf3emZ82cKcOa1fP3ZUhsjuZiDqDGOWYKCaqkMuulz0M/rmXExm1kAidd8MVE/JH+TITjtHoiw8eZOODbu8XPvzFIaLfqreaGTilRFoj9go0Ri4aLQYCDX72LxT7GNCPA9dG4Gl0c4Om4E7b9FTWQ4jMwIUuwzc99sYooptbe35cE2IPqOiyAu5WFOk5sfPxNFDf8ZS/X9JBsPjhUSCdNDK55sDjJ0YQy8RwNoFKdlk5asv7eRvc1BQr+OepxK4ZqSRtHjRyZ6mpwuJgFWyeRrbGk1s/ept3v1kBgVVDuJFB52UmExWVi5xgaNs0ozmTzePIPJYIAxzHuGLV//J8698wPJNHvpc2Z/ooJ+a/Gk88ocXmbNkFWvmz2fN4cMiS32Vz77aQ2JuHzLilBxa/zlP/+avvPfhTiKH9ydXdOzhgOip3cbbf3uBT+YsY+uWLaxaPJ/l60uJ7TuQrPgYEk129uzxM25YMiW19eT06Qs2LYOHdsNflc8r//wTr76+CauymOlvvsDU9UeJyehBUqiKr97+PX/8yyLqqWLJZ6/w7pwtBKO7kJts5NDO6SKzfoYPp8xh8bIivIZEctNF4FMFaTy4hGd/8xdeeXsZzpQ8enZJ4Fhu7LNWk7/sc9545hU+nPEl63buZNW0EhLHi2ym+SDLdxZxaNWXfPTxZ8xfsYeotJ7ifag4tG4af/nTGyzZvIMd61cwb85SilqMdOuTx/HJ8LeIzLB6exNvfenlyl+ncVu/AEsXOkgaE9nWFg6ubmWrwcg4HCw7ABlRfjbshHG3iQ6pyM7iEgUTLjKTFK0iXhtgwXwbmv4WhmSoUZ+ybwnRdHQvcz7dy6jHH+faCy+gT59+pOua2bN3C5GZg3DsncH2JhP5X77Fu5NnsL/G2dZ+4iwGtk9/lX+88ApTvpjFjM/mUWnKondeKuHkyS3az7wpL/Diy+8z/YslbC1wEJeWQXKM6HxFj++u2sOakmoOzXydf74/gw0lNtGZdxeDtxU8/8d/MXP1ZnZsXsfi+QvZUugge8hAEdA6in0aekscrpLl6Mb+lrsvG0g38RmXLf+Euozx9I4/fZTwNh1l/pK1BJIGc8GgbmQnWbCLQVd2nvicG9by3FMvn1QepyjPAFHHfjGYXMrrz7/P6x9+xPzN+7A6IsnrmoTOXcr0V17kzU9ns2HLDjYsn8/8RTtRi+9Il8QIkY2XMnfKi7z0Srh+lrJ1v/OE+jk1BTqzmiwR9EaMMJ3wGNTPQEqMCKhnOAgRDNRScXAGB4rnUnhwDXVNQSyxORjEQOG0oUd0LkldTYwdYSTe5uLz5W56XhbPpCstjBisJ05kfPtWNzFlsZNt6+wsXGBj05EgfcdHcWGemrItTXww28mODXbWHVFy6y8SuXlCBFnRULjKyg6zkdEBByuLFKRH+li/G8bfaiFTBsNO7izBsFCMwO+91oAxTs9FV5rJsIhR+hkafzgY7lv8PuvLs/nxY49w500TSaKV5Uu2k9SvP7GaIC2lW1jelMakIRniSxiisXQbDcQTGRFD10HDRAZq5sjSZnpMGkKcGPVGJKQQZSuhoDaXB3/Ui92frKLX/fcxqLaGGkMqeb0zScroydgr+uJaV0HksH7kJVragqHalEivfr2I1NrIvf5p/vzoLVxxyXCyEyLaOmt/836mvvs5q3Zso6BZxfBL7+C6S3piMunQRKbSt380ez6eTWl6dx584JfcOXGcCHaRGCyx9BiUQ/2SRWz167n+jsd5+Nar6Z0Vj6emkC8+WUnCwEsYOqAXuSLLLjmwlppgN/rmRmOMzeKCiwYTWd2Az5JOr14pHOtzD85+i8Ut3bnrpw9y+w3X0T8lkqaaAF0v7E1Ew36+mreHnKt/zJMP3E5O62bW1qro1rMvmV16MDBbRVPCBfzyF09wz60TGTWwC9HGY1nBqQX9fla+XceXBxT0HqhHpQhQuMJBjcXIhcPUlIhguCPCxK+v07NyspV9tV6qmzVcdueJwTBBtAtlq4dZCxzEDotkeM5pgqEY3DQf3Uh+aSL33DJEDA5EZqrUtB1pWL+3GGVUNv6dU9lY2YUf//Rh7pg0kcRAMyuW7hDtZwA9+wxg/OUTuObaaxkQ5cRmsNA1NxsjbjbPnsO2oxoGDhtB/77diFUdZNnOFnr3yCPSpGkLhos27aSiwcgFP/ojf7x1DCnRZiLis+nXI0kMWCzc8NCfeOye67lwZF+SzFpRHx3lPo1wlla84XO2NcSKL1IZhQWF1JWlMGDCAJLOcHhTHZFIV/Gd2rd9Gp/PXMa2Pa1kDezFBf36kJ6eR7/uiaI8kdz40FMd5enTXp62754dT1AEwJ49ydXVsv2LMlKvvYC0iHjy+g0iXV+Dfuyv+OcT9zBxwoX0SItBr/CwadZstpdrO+qnK7HKAyzb3UofUT8WUT+nJN6/z+qjsMRHS2sQm+2bh180rLg4dfhUg9NSqhJIzbuSbt2uoXv3yzDZllPQGktaXNxxGf1JRGDWmlRERSgJVDj4bJkIhpfEMr63RpRTVIAnwB4R1Fy943jhhUSuukBD5S4n5gGRHcGwlb0BE489YhZZq4Yh/TTYRXmNUSrK1reyO8rErybqWTq5lQN17e358js7ZzA8Q1cunUxlUDHstiT++XQM6efYVkyx8Vx4+530y0shRvzdU3zBc1T5HGrqeMJxwmcFbp/5D+btdxBSKNEZzURGR3wdHNqodEQmJYuOoh/9+3QlUzeQHqLjiIiPE51R+5mjCvEcS1QkRtH4TyimQo0xwkKEyED15kiioqLEQ2z/WCtQakkbfBvvvfMWf3hgIhkxIvAb2/euUKoxmKNIS76Y+x64nwFd04myiNe2DYXFF1aUNSbyAm6/+yeME6P7qEhL24lFrurNbNl+hKLCnewUmd3eA4dxBKOJMQfbthveZ4Qoh8Usgk/7kq8dLfaT2i1PZHuxbWXNGzKOn/79VnoZ23PHjNEXc/WI/iSkJJOSF4dO5wsfyRLvX0+EKJtBZHERlvB7jCLCbDhrZ+4tt/HVSj+5/fU07hIj7B0BknppOLSwmd1ff15KugyL4f5JajaucFLTGK7xk/gCFIgOqVKjIU9k6qfOCgXR0Sm1kXhbmqn1dCwTnA4rmpAXs8GAKT5RtJ876Nelvf306tebLOUWDovyqHUG8Tm3v79IEaQ1xyrQU8uRwt0cOFjE3r3t9V5Y4ROfl0E855vyOursKL0KkZmE0EaYxTpR0PDnERmJyaDDFNHRRiLFunPsKXwuO4e2r2LVqlVsrfFwwSPX0cdy5pPHWioqKXVauP2JN/n044948ZcX0bhzHcVF9R3tQ7TlU5Qn6Ktk/Uez2Lhpedt73FdeR2Wri7ZTTcLfH5NZBAwtaqOl/XVRlvaThTw1lB6rnz0d9VPpJzrixPr5lkAIe7VbvDe7eNhOeGw74MV63Gd4airxmVnQ66PEI5L42Cgamo8QCnZ8F/4Laq1StAU10SLInTzuCJ8INvCGRF7+SxzRBY385Nc15Fd1rBTtuevIGO67Xs265U7qms/w/v8/d45NvDMIsntuPc99ZKfuiJv3XqxhyV4fPq/o2BY38vJXTvZvaeHvT9exoTzQFnTOJvybTktTC+umf86uQzXYrK0cyd9MmXsI3eJ9otOz43D78Htc2MXfdrsDd8dJYwGvB0d4vcON1y/+FuvsLi8h8bfb4217iO+m+CL58Hr8ovQBPE43PhENPM7wtpzibx9uu/jb4cLn7/jChfs7n1f0B+HylLFh0du8/PpibCKLdbg8+MX2PapI+vUbSqLGxcqPp7Kl0i7K4xblDW/fi6utrKLTCUceIShe6xL78IoOPLw/h9h3+DdDEZUwp1zAsCEDGHLFA/zqD3/gd08+zuWjc2i1t/ccXtF5hsvqFmVyO52irA48os7DMvPEKHf9Fsrrm8Rz7FTuz2f2Jx+ztdIqntNeb07x3FDAj9cn6kHUt9vfXiZF+HfJxjocLQ3Ulm/k/ZdfZunmkvaO8hQa9lt54R/1bGwIoI3VcMNPU/nLjyIwiUBRdsDKX35cwZuL3TTssLG+RsVFd8Zx/1gDiSZoOuxgwVwblWLd00+Uc+/95Tz3pZ9J98ZzWQ/16YOwqJ+YlJ70tBzgxX9N53Blg8h8C5g/eyX1ul50T1TR0tDEuhnT2HW4FltrCyX5+ZR7h9A9qWMbp6KLp3ufYfTsP45bH36C34l6f+KRm4iL1rZ9LuH6Cv/+mDzkCh55dCKeddOZt6r4m0szlCKztVtxNojy1Bcw+9PX+HDaNpFvtrOWOXnrd6X86p0makSWcUx4MIchhvF3PskfnnqaPz92FwOzLGc9eaalvJAPXn6FxasO02IT7UhvJjkpBbO54xSO8O+AtlYcje3lmfXpq3w4fRvW+mLWrAww9Prf8IdfPMEdw/uiVwdwur1tg6Kw8K/Agdoq0X7q2LdpMs89M50Kj4UeHfVz27H6eXgSsR31c1rig4zrF8Vf/pbCs8+mnvD46a0WUiM6nncajSUiW985j6amZuxN+9l9YBMmY3zb75xnZPOy6MNqHnqmhQoRtGe+UM5TbzRT2hTi8IYmZm4JfxeCuN0h8f0N4C71sXV1K1PfqeX9eS4OiYz39/ceFe2yjN+97xD9hmjTm1tZuNFNvWizG+pUXHZ3HPeOFu3ZKAZoHbvtbOSlFV8LYa31USk6w3CQCR/8T07XEiO+j+4mH4er278kKrE8JVdkZ+dwrcKWqS/y1pcLiB51J6byDRSUtdB10IVce9MkeigLefPN99iwq0QERxO58ca2EWJQBJSrfjuNi/1reOv9DylqtFNf5iY6N56ojDH8ZKSCN6bMo1rRn8d+NZ5DL82gpt8YhiVXsnBWNeN+dh/elW+wRIyqmypaUcdHY4nJ5JpbH+aeq3qKfTg4sOkDEQCX0ODVkNV3DNdcfDOjujTw8r9eYMaqclJSotvKHxL9XCiYwv0v/5VeVQt4890p5O+1YcpOwEgmN/z8Ea4fk429aB0fvPgCi3d07E+XxLBr7uVH94wgWnS8R/fmM3f6l2w9eASPwUT/iyYw6bqryTYpWPzGH5mysYj6mmb8WhORIhMadMl9/PH+sXibK9g8YwZz1uRTKjq45IQ8Lr7+Vob1NLL0vT/yznorfW58gj9eZOHLV37BrGILF/3orzxx7QD0gWImvy0C4MZKQqYYho66hZsmjiUl8cSzeo/x2vxUVIkBii+ccYnPOEOHWZT9UJkItB0BNix8QlVCpp44Y4jGMi+NLgVJmSqaj3qxide2U4jMW01qisimz5wUhUcSNB/ZzbwvP2PNrkNYgxH0HnkrN98+nqaFb/DurMXEjroDw9H1HKiwtrWf60T7GSTaw/FdaMniz9gQSuXKiy4kfBWG19bMxuULWDpnCUWtdjEoyeKSm+/h2uG98Vft4uMXfsmWhAf53Y1DWPbCj5l1RM+gGx7hidsvJdnYxPJZrzH5y124VCb6XHAVN0+4lrwuIrCJfTUV23n+N0c50COOV38ZR2Z0e0kOLHiev78+lSPBbOLT+vLLn/2YUX1T2tadSeWu7SLAvUul1U+JCP7q6DSuuPEBrrukDyaR8QR9taw4RXlykr2sf+8Dvlq/nUqvkS7Ds7Gu2IVq+EQe+/V99DD7qCr6iuefn87RpgAJXfox4aI7uPTSbigc7fWzZM5iilsdmFOz2+rnOlE/xjP98Pdf8NjLKdo/g6NH8kVbUWNOu4yhAyeRGHGW8zZFh1RX5aWu9ZuBh0F0QKlJaoKtHkpqQphj1aJti4GXCIYVRWJgaVZhUYbE4EIMk0/q4dV6JdFmJdZmPz5FR3s2hC/h8NLkVpLeTcP5P/f2/54Mht+jtszF7UFtFENGj0N0quEzN3WYTKJDDvpxOcPLvl39OnMUOsKZo4MTVis1RIiGbHOKrEpkFTqDDoXHjTuowShGdB6HF7XJhNJtw3XSAFejM2EydETwkA+7TWxbfLfaymMwiNF7QJSnI6M7gQqDJQKNyAidDudx5VGiNRjbf/wPidG4zYb3m++q2K6h7bfGY91KOFt1h89+FX+HD++FD3uF13mdtrbs7ngKtYFIc/vh2aDISB0i4w0/IzyC1htNaNXivYrXucI7FPuJMmpxO1rbsmqVeJ8Rbe8zhM8TPtvS13Z9qE4EYb1WEz4y+YMULqtbBPxwx6XWmUX9iI4u3H5Etq42fbv9nNhd+9j35QdsUnbj+gntwTAsEL4sR3ym4aMFira6M6ILXyIjKiRcX16FHrNRj9fegltUsFLT/u9wJhc+izd8JKC9POLz0onP69hOxTK3I3zpjkI8X2SRHXUa8Lraji60ZWWifRrC+/v62O0ZiPJ4xHchnLF4RWceHkzoDGbRtr557enK8037UKDWalH6vXhDKkzhw75t5fWLtmkn3MSUavE90RtRdxy3DojnusNHTcR+T6if71Ew4Mbnc4sqFBmYSo9GfJ4/0CbZ6chgKEn/o4pWz2TpjmIcviAtNV4GXHkTE8b34BSXXUqSdBYyGErS/6iKvZvYeagST0BDVHp3BvfLJUp/tlsW/B8LODm8eQ5vv7+Uho5F31ASEduHWx9/kOFpne0Sb+mHRgZDSZK+P6EgbmstR8sb+fon1eOo1BGk5Gae02/wkvR9ksFQkiRJ6vRO/B1ekiRJkjohGQzPuxB+r+fM1zdJkiRJ3ysZDM83dwtbprzG715dSX3HIukkwfAp8BXYXM62yyQkSZK+azIYnnfhC7TNxMYYv3U7Mk99BbtWr2TpkhVtNxteV1SBvWNyMr+tlsKj1bh8x13cdw7C90utryjkaNO/PV3w+RGeEaNxA2vn38ribcux/48UW5Kk/y3yBJofqtYjzP9yGaWHj1LtCV/wXs4q3VAm/+oB+qZF0LJ9Ks/nK7j/phv+rYmDfa1VLP78Jcp7/4aHR8V1LP2eiJbVWmRl8mIXjmP38uqQ0M3IlZdEtN3O7Ez87sPsz/8X+44cwtL1fsYMnMQ5TNknSZL0b5HB8DzyNe7iw39NJv+oj14X38p9dw+n/UZo4Dwwj9+8u5trJt3FkB4RNO6eye/XePnNPTcQUbWKl//xOisb1PTIycCkNdNt5DXcfcelJGtcVO5dysdTNnCosRFT7hBuvGoCY/qnEWjYxfvPv8Pstauwxw2ka7wec0xvbnn8x4xMN+F2HGT2px+zanst3kAUvYZfy+03Dic55tyCbfHSOt5c4KbPDUncO0YbblzYK1ws3RK+V+SJzSwqTc+g/gaizzRnbcBBZeHb7Kwx0S26gQp/Nwb1/SYYBgMhtiyp5e1lAS66OZ47h537oECSJOl4cgqn80ihNpKQkU5ksEV0+ir6XtKTiI51SnMiif4ali59l/c/WcCeo2oGXnoho3tlER0dT5LJRa2pC7fcfBuXjx/OwL7dSIwyoFIG8fla8SmS6NojmwT3EfYsaybjir5Ea0zExsWhCDQTN+oBfnT9eIYO6UeXjIS2aW1WfTFXBJxE+vbvT88eeZj9e9l6VEvvLuGZ7s9+RL1sczPTl7uw9I1kbLfwRLsKVGoFRouKpCQNycnfPJIS1URHnHkKLE/VV6zaspPYnlcS6dlNnQNiEwZj0rVPbhsOhvvEPicv95I9MIJRXX5gF5xLkvQ/Q2aG552TA8vnsGCpltufv4HkjqW22loavSGiRIDD6aZu86c8sxGefOzHdE+znPYwqd95hLWfvMH0TYdp9Wrwu20E/BfzzLyf010Ep/bDpC9S3vu3Jx4mbdnJnx75G1uaA1gs7bNvh+8xGd/vJp7/xURM+rNfFR3wBXE4Qyj1KtpuLSqCVcWmRp56z47Tc2Izyx4ZxYN3RpMd1bHgFGxHRZa6bQHukEokiYdp8UcycNyHDM7O+DqI+r1B7GKfGoNSBEl5l0dJkv4z8gSaH6jilXP452tfUNmkxRKfSEa//mTFxKE+PqbYRKoU8OFsLWbxzFnsLKyk7tAWFs028uBfP+Xz997hd7deTPzJWZ3PBw4XoZCNou3zmTV3G05dPD36D+fqB/7IG59M4fNp03jv5d8wdnD2Od9IuG6flRnTm8g/3DFRkkpBmgi4H36SxbRp2Sc8nnnszIEwLCLzHq6+4QtuunEalw6fRPe+4YHAN4EwGAiwe1ETMxfYqHTIQChJ0n9OZobn0e7Z7zF5yTqOVlRSVaMmo28G6b0m8vsHL+fI4ul8vnQVAa+WFoUXnSmGUdfcxcSxvdumtfE2befdt95mZ7ELpVFDYspobrn5GjL0VUz/+8fstDfjwUJcVpB9c0oZ8PhPeeT2S0hUtbJz+Su8OWUvIa2GiIRshg68hRtv6oOteC9zF66g+OABaj0+LMkp9B53I/dc1A/12SalE7a8f5SH33Aw9jc5vHBze3b5Xwu6aKqYy4a1L1MXjKXPyDcYkJ3ZNiOBq6KVn99ZRXG/WD79a8JZ55OTJEk6HRkMzyNrTRmVja1tUym1USjQmBPpnhWPq6UFh9OKtdWOwx9AY4gkPTUFk+HY72JeGmsqqG10EFJqSUhKJzbSKAJQAHttBVUNVnxKPZYEM6GaJoIxyaQmx6BVBvG6myhvuyxDgSk6kbSEeDQaRKYYwtZYQ211Q9tErnpLDKmpSRjPcVobZ6OX8oYg5iQdqZHfVaYWxO+upcXaIP5SijLlYdG3HxYunlXJo297uOnv6dw/WN7cUpKk/5wMhtL/rPxpdWxSGrn3GjOR8nILSZL+CzIYSpIkSZ2ePIFGkiRJ6vRkMJQkSZI6PRkMJUmSpE5PBkNJkiSp05Mn0Ajh23p5PKG2O66cTKdX4HWHwvecRmdQEr5+PeATz/e2L1OKfwePnzhCJZ6nbX/eufC6gnw98YRSgdGgCH8obeXxn2KKQ5VOiV7edUySJOk7JYOhCGn1xXbe+0cNs/cEiUxRY1IrCHoCNLVquecJI/s+t5J/KMRlv07iF9cbqF7byB/+2ExjlI6umQEO7vMRNKqJjRBBMFPN2EtjuXOckUgRSM/E7/Gx5I0a3lvopNKpIH1wFL/7dSwDLQHmf1bLy586cBnUJEQqRZwMYWvw0/2uVJ65y0SEvPWYJEnSd0beqBsFplgtXWKCrF7l5co/JnHjUAN90xQUbPPQ8/Y4ruypYMO0Br4sCjHoAgu9E2HnKjupN8Xz8E1GDm90knFLMi/+IpYeWhHI3muiLMLIoO5qzpTEKdUqsvL06GpsrLIbePoPiQzJUKE2qMjpo6F1lQ17v1ievNPMwDEGdAVOjortThihQycCtiRJkvTdkL8ZtlFgMIusTuFj6Sf1/OZnFXxVqOSGe6NE4FMTFaVEl6Slh8vBe283sr8JdDrQGpSYI1SEbwoTDmAxsWoGjY3kqt4h1qywU+Pr2PwZaI0qokwKERgVmEUZNB03e9HolRi1Co5uaOGfv63kjZleekyK5ephOvQyEEqSJH2nZDA8TiikJDZFQ2ycCm2agSvuiKZfoqq9kpL13PxYLEl7W3htip2mjntRn0ylVGCxKHG5Ang8HQv/Q+Ej2LpINdExKnQaDUNvjOXm8fqvA6YkSZL03ZDB8DgqtZrR18fx6vuZ/H40/OsXpTw3142jI8NL6BrJg/eb2Dm/gS/WnjoaBr0BmuwiiBnDmWbHwv+QUgTWtMGRPPVqBs/81EJ8x3JJkiTpuyWDoeC2+di/20W91c+BrU4KSrzs3+Vg2w4X5Q1+ygs91Nb7qWqCLpfH8/ClarCFXxmi6oCLijrxnL0Oli1pZcbkBmbuV3PttRFkGts2fwZBKvY52FXsw1bnJX+bi0ZXiJAvSLnYbkFNgLpSFwerQphFdihPIpUkSfp+yBNoREBzNHrYtNGNLlWLssXPEREMS+pDpHU1MnSgHio8KKO1pOXo6dFdPProSdRp6D1CT7DcQ6tWi8UfoKTUS0tAy40PJHD9MLGts2SGAZFFFqy3sdeqoVuqCndAQZfuOmJVQXZvdFAaVJNkglangty+BkQRJEmSpO+BvLRCkiRJ6vTkYVJJkiSp05OZ4ffE3exlX4GbZlfHgpNoozT07qUn1igvk5AkSTrfZDD8njQV2/lyViuHGzsWnMSSa+Sm6yLJi5fJuSRJ0vkmg6EkSZLU6cm0RJIkSer0ZDCUJEmSOj0ZDCVJkqROTwZDSZIkqdOTwVCSJEnq9GQwlCRJkjo9GQwlSZKkTk8GQ0mSJKnTk8FQkiRJ6vRkMJQkSZI6PRkMJUmSpE5PBkNJkiSp05PBUJIkSer0ZDCUJEmSOj0ZDCVJkqROTwZDSZIkqdOTwVCSJEnq9GQwlP5vuJvZu+0AVXYPwY5F0rlzN5Wx7cAhHJ5AxxJJkr5LipDQ8XcnF+TQOivLtnuw+8Q/zVouviqCvilKynZY+Wqth5NrKr5vBNeOMRBlUHQsOVH1rrks2VFDz4vuYGimsWNpJ1W6lLsfmc/4557ktj6paDoWn4679gALlq6Grldy1aAM9OpT1/G/LRiissDGgiUuWsXnaYo0cNUdEWQq/aydZ2XHkQBxuSauvN5EpNXNghk2DjWHMEYo8PuDuFwd24lQkjM0gst660RT+c/KFgoGKFr7KZtqIhl56fXkxXSsOIWSxc/xyCIn/3zyV/ROMXcsPb2W0i0sXLEefZ8buPK7rD/pDEL43IUc2ruUZp9H/FuJVt+PLn3GEKXRtj/lVJw+Nq+2sq7A37GgnVKloM+FUcTU21i1O0j/yyIZ3UuDtdTB0lkOfH2MZLR42FcVwHvCGElFjwE6lI1eisoCxOeJ9nytCUurm3miPZe0KOg63Mz4UXo6ea90ApkZfk2B3qJCW23jrU+bqUKNWadAIfoQc6SC1r2tfLHQhcqkIiFRScu+Vj7/wk6Do+Plp6DSR1K/Yxr55SKQdiw7pmzLEn7/0F38+Ke/5OPV+yna8CV/+end3PPg43y2sfxbz/93eBoOsWTRTPZWuzuWtPOWruHPTz7MnXfew/3339/2uO9HP+HZj9Z9K9B/5+L78Mhv72VsZoyo2bNTagyoareyZOcRfIFTF65h50wmrz6Iw/vv5ZqGUIBtC+v541PVPP3XapYeDBBSKogQwWjfrDp+JZZP3eAhEFTQsLuFT2c6UaSqqN7YzIdr3UQlaIjThVj5Zg2vfOnE5u3Y8OmEgjRXFDHvvT/xs4fv49Ff/IYv1u/DIYKhSuy3cMM09tZ3PPc0EvpN5Hf33ERGjL5jyZmp9WY09dtZsuso/lPUn6NkPVOXbqTWdmIHfCZBv4etM/7EQ/ffwT33ivbzwI/46T8/Ym2Z/eztNeinKn85rz/xMx6871F+//d/8sS01ZQ1tY8u2suz6d8qT1jA2cjW5dNYVmjrWPLf84v25HB8++E5a9ECeBxFHDmwHyIziIzMJCIiFo36LEM/h4/l0xtEO/TjOWrlrckt1IoybJrRwOKdflRix2unNbByvw+vIoS10snHM5qpEKM5i1nBweVNzNroxZSoJlr8+/DKRqYsdaMQ7XnPV3U88acapm3ytrXnuh3NTJ7twB+tlJ3/SVRPCx1/d3IKLPFaom1OvtoV4o7HkhmdpUQhOitTnJpAiYN99Wq6RXjZekTJoMEqnG4No0YaiTaeetStt8TjLFpAfeIlZGpbqG9oxB0QQdegw0AN61ZWM+7iMQQLZvHBlhAXj0nnwCEjkyaOJj4cgBtrqKltoKm5VexLbE+8Ltx5hkSn1FRXRU2dC7XolJvF33UtosNWG9CE7JTt28aC1evwGDOIwInDFURrNKLRGlC7yyguT+OhH11FXu/+9Ih3UHBQzyXjexAUHUt5VR0OZ1D033bqamppdgXQ6w0o/Xaqq6tpbPGJEauXhtpqGmwetDqxXbXImGyNYn0tjU0t2BwBsS+dWB7+uoVw25qoqreL+oghIS4SjXgPX9eYCBSO1jpqxH4bm5txen2iQwlgiE/E3LKXHa5U+sYi6qAFh0d8FkYx4hWdjq2pjoI1M5h3WEXXeAMOq52ARo9eo24bwJyWWGmr9bJisZPBN8aQ1+pht13DRRebyEhRUbaqheUFHlrtCroPsRAlRuX5jQYefSoazW4bu6Mi+NsjMQztbySl1c4HM9z0vNJM+mnaQJi39iCfv/EuBf4uXHf9VfRJUbBu3kpqLV0Y0C2T1kMrCWZeQpSvhiZRfwGlRtS5tq2OWmvKqK5vFP2lGovehMESgU7Ua/vePDTUVFJb30Rzsw1PQINRr2l7/9qIeEzW/aL+0kT9hdrrT6w36dV47Y2U5C9i1o5q4mNiCLnteIKqtvYlPprTUyhRhfwc2b+O1Ct+x62XDqGL0cvuTXuIGdCXWFXH804hWLae9+cX0mf0pYwb3RtN1Vo+22HjqpGDsGDjcP5CZu+oIUGUJ3h8eQjidbZQU1NPQ2MjrW7RtkSWpQ23Lb+DyqIC1q2YRVEghzSDyPatHjQmE1qRVX2rfoKifgzt9XNabj875tfz86frmTmz5YTHETT07KLFeNrYJsrqKqXqqJP0AZeREJFJTGy2eL5okx3POCVPgH073UQOieKKdD9LChXc81AcEbUeDL0sXNhLTcF6O950A7lxCupLXKw6FGTipFjG9NXSsMvKUbORrKCbjcUwLEMkm4lmbrjeQN2KZlaG27MYtPcYEoGlzsbWFgP3PRpJYsfupXYyGB5PDG9bDlr5fHOAsRNj6BXfsVw08pJNVmaKEVVRiYdqj4EfP5vMpJEG4ixihHWalh4K+Di0cSprSwLsWvYFsxYs41CtFV1UChm5FupXHCFmUAZ16z5gr2Egw9J17NV2ZdKYrvjth5g1+VU+/mw2i8WIuUB8AYwx8STHmQk0lzDzo3/wt6dnUWgrZu2cKczeeAh9QjaW1p28/eL7LN2Uz749+8hfv4H9FQHyBvcjziQClPiyrt9QT4zqAIvLNFzQKxtFKIYBAzKo3TmL5156lSmTN1PWsom50+ewpVK8tltPjA1beOfN53nthaWU+w+wcOpnLNvfTHJ2T+L1VlbPeZ33PpzBgsVr2b67AW1kDEnx0egUTg5vmslLz73CR+/uIGrMYBG8IjjWb7aUbmLO9M+Y/PEXLF6zhq3b9rBufg3drx2E6tAaZq49QNGK6cyct4zNm4uI69qPFLOTzTM/5N2PZ7Ju50EO7NjEqpU78CXk0TUzHt0ZhrwhMcreNreeWWU6HnkikSEJHhYv95A7LpJsU4CtK2y0iA5oQJ2VVZVKEoIedlRrmHCLkfpVrWzy67ntQqMIOkrMDjdTFrrpenEkvWNPs9OQh/3iM9hRGsudP7uNvrmZZHTpTY5yHyuKneQmx3Mk/wu2is933fxpLFq5ngqR5Fjik4nSBln14XO8NnkmS5evYOEXS/F0vYA+aVGEj3pWHlrFlA/eYvL0hSxfvoOqZj8RsUkkROtFm1TQUryaZYcb2fHBX3l19iYa1Cn0zYmheutsXn5lKqu37+Hg7u2sW51PdSCO7j2yMZ8hbVeIbSpFZlJVtJ74MY8wrlcS0Uo7BSsXo+13OdlnOHrrqC1iVf5hVCJQKVQqMYA04ovJZHj3JBq2z2krzypRnkJRnrWiPDWheFGeLMwiUB7ZPpdXX5nGrMWL2HzgCH6n+Kx6JhOo3s6HL7/HrOVr2bHnALs2i7a3r4mUgQNJi1BTWbyKzz58k8866qe6KXBC/ZySCLLJXYxcdmUk11wTdcJjeG8dkYb2o0WnFsLvq6Tq8DwOH1lJWVkxVpuPiJgsDNozjBQMavqNtjCiuwbvYRtfbA8y/sZ4brnBwpBuGtQic1y1sJmlWzwUbHWK76+TAruKK66IpGuUyP5WNTJ1iZvSQjdH9UaeFH3TtcMNmBXh9mzH3sdC7yora6rVxAfc7KzTMvEmM2KMKR1HBsPjnSUYFhst/OonFlKz9AwdrCdaF+4cOp5yCuFgeHDVZ+xzDOGXT/6C+2+/kRyji0UzFxPZdxzBwi0c0buoKzNgyYpHWXsYV+JAxneLIP/Lz1mytZWs7t1JT41D7dzFwq0NDB7Qh4TkFPqP7INrXT5lcVnc85Pf89PbJ9IzI46opK6MHJJLQGQRNz76LL/+8c1cOlYEQlHWcBZmq9jGnJmbqLdVUq7pwrUTruHCESIgitURaT0Z0tvA7hmbiL7mdn710E+ZdNFgMcJVoxVf6KEj0ij9ch32gaP4xWO/495rxpEVo+LQhiVMnrKNhB79yEoXGZ26lpUbt5OUNYDs1Bjisgdw5Y0X4M+vJPKCvnRJtLQFw4DXxfqP3qSkyz384fcPccu119AvLRalNopuAzPxHljJwgNmJv3qKX5zz81EFE9mA/0Z0j2HroNGMSihidbe9/HyU49z+y0TGJiTgO4MfU6Yo8HJ58/Vs6FRgSoY4Gill4IVLhQ5Job2UrJ7USvV3aN48kI1Uz9qYe9RH06tnutuM50QDPUaBb5KsS0RSAdOiKJP3GmCochejhTm06LsxqVjcto7UpFhRSusTN7eRF/xmZVvnoct9RZ+/+ufcOu1l2Os3cvK/EJyBgxhyJhLuO6GG7nxxhvJ8xfiSOtNj+Ro1J4apr/0IfvtMXTvlk1KSjS28lUsLzRwybA8dBoVzYWrmLpsH6HIgTz6z5d56MJumA0G4nMGMkp0vE1JI/n9b3/Pj+66jtH9ReAR7+lsfI4mtix8nxV7WyjetYFt++uIiBzN6EuyMXU851S0cbn0SVJSeGgDW/OLKS+rQ5vdhRG9e5DVY0hHeUbxh9/+rq08o/qJ8rT9zhnAZa+g0RokJiEOfe0Bdmzw0++WYSRZ0hkyfBAx2lZ63Po8z/78TiZcPpz0CJG6uWuY9tIHHHDE0r1re/1Yy1eyvMj4df2cki/I4R1Wps62sWOH84RHs1ZDZrL4Lpy2jSnR6LPJ7j2JXj1vpFveSBT1X1HgyiUnXkStM1CJuteKJtS038qMcDAU/U/vZKXIgEU7a/GKYOhk0GOpPPeHeMbmwPadot2JAVx7MLQRGBTHEw9EkJOqJTbgYf3BAEmJSgqWtdLQO4pfjVEz+aNmCsp8uHQGrrtVBsOTnWEM3fn4PUGcnlA4ZuB2Bzn2U0v4N4Tw7wXhc40SB0bxk/stJJy932ijM4ss44oryYw3oVSJkVlKOnmWKppEdhkZeZSCTdvYn34ZVyZFsVeMbIMaDcqgo+2wlj4+k6ycTDIzM+kqgufVl1xAfFTHD/GiV9XqunHlxEn0y45rG7V/XaTw36Ks7ctC+LwefP6OX9jVJnKH38rzL73GX+69lEQR6Pw+X/i8EiE86tWTkjpeBMnxJETq27bxNYWKyKghomO+nuwEc/s68cVztlbiNmSS06W9rF26D+CySy6jS+o3P8+Hn3pcCduIWERjvZqsrsmYxBPC9ZPaqz/X3jGMOFEepVpD9ojRjMyKRSEyiYgEHeIpHcJlFdtre5/hOC++5K5v/zZ7vIA7QMV2K2vrtUy6K5qBXbT06BXBpZdr2L+8lQOVwbYTEYJ+JXkXxfGjq1Qc2O3FLz77gDfUti507Pekehez5jnwZxvpG3+Gr5FKh0kbTePhw5Tb23/bDAX9VFSUkREjRu9GAxGJyQwZP4Y4ix611kB6Zjoxmob23yLFm2v7HDseX3NXU9OqID49XTw/XO8Z9B02kQljurUdCm0jKsMSnUWKwcuBg0dwH1f/39Rd+P8BPG6vaO/f1F7QH8LpDLf7b9eo2iA60qQMMrJy6DZsOFf/eBxfjxtPo2T9WjbVm7n+3qd59vm/8ot7h9C8qxBrY/uP7uG2cazNflOeAK3Vu1j0zjp85pi2tpUiMmuD7pvjlG31Ev5/+D/xR8DnwSO+rCF3FTVWpagfUc7j6mfimK7f1M+piG2YI1VkZGi/9UiIVNJ29PUMgn43gWD4cw6XKNh2qNdqrWlfeSbiCxiub5fof4Ki43G7On6jFNXvFwE6IDYZCrW/xzbiOR6faJPieeF2GT5fJ3d0NPdeZaBqZSMvT7FytF589zvac7dLY3ngchX7dvs41hVIJ5KZ4deCbP+ynpc/s3GkJkBJqY/YHD05MVCwqIG/fuygusbLwYM+4vsbyYw69rvN6dnrytm4YDKLtzpJEiPTkKuFonVr2G/LZfzFvdFUrub9WfsYctNDIhiWM33uHnIuvZFR3dLRexyUNQTpOngwvfOyiDe72HSgluyMTCw6H3XVheQv2oc/I4FI0TcE0IgvngikYr8BRz17t27Br45HI7KJuZ9PYdNBHX17RnBoTz5b9rnpNTAHnTJEfWkJi6bNRyzA4qyipHgfW1dXkTA8A0WLB63FiEZs1GtroqJsP5sXHcI0OAO9y4tCb0AnsiaN+KLWlNcS23soA3rnkhytZv/hQ2gi0slMMNFUVUZtYznbl4jyZory6pQi8OkwaMSXviqfbbsdRCfrsTU2ULRpOSvX70aTmUNrwQo214vBRPdsIhQOCjbMptCfQ588UQd6FfaK7eTvs5KdpKO8aBHvvL2OqNwuJMWYTvnZFC+r54V3WikQnUR8npEbJ0WTF3AxdZGDkhIPW9fZ2VsiOguRuXUbFcXIgSpsu8RAIVFP1wQfc6dZOXTYy2YxEp852441OoLHH41hcOYZ0tHwAEKkTAc3L2RdYRMxkWrqizfy2cy9ZIy4jK7aOlbPnEx+iZZUUVfuxkp2rd5GS9QgRoTr+bg3Ur1rHY2JfdozQ20kqpYqKv0JDB7ej64igBqoZuNhkTF0z0Tpt1K8YyVHE6/gxxfGsmvpPKyhWKLjYjHp1HibitiyrZTYmEisdZv5+O0vsWrTycmMacvaKzc18atflrPGpWZ0L31bhhLWWrFXZEnbSBj5AGP7d2dIz5y2E83O5vCaWbzz1QYiDImo1W6aqw9TFYqjX/9eRBnby5O/7QixsaI8tZv4SJTHrk0mylvK4rl2ht18FT1Efbce2smGg34GXTmIZBFoRMPkyO61VNhiSDTWskp832YvtzHowqEYmk+unyo2HvKJ+skQ7fY0n5lSgTleR+/ehm89MhJU4aOopxUMuKko+IT95eXoVXrxHteyt3Az0Vk3iIHPWc4ArnXy8ou1vD/fRUNDgOJtdqrFYLBrooIdCxr4dJWPvBERDO2mwV7mZM0MO+WicTSub2HWJjdV5V7WL7Eye66VjXt9xHQxECMGbMvXO7EFVXQPt+cBKlp3iO+tGKRedo2J6I5dS+3kpRXHCWeGDpcYmYVrRHy/9UYl+vBp82Jk1mL/ppqMYuR4pt+ljsmf+hJT1+0hY8z1OHYuYn+FjT5jJnDTpAnkxpqp2TCZl2dZuekPDzDIuYcX3txMn3tu4ZIu8SgDfvasmcfsafM42GInMqs3N959J6O6p2E9tI4PXnmLLeGzVLVatKoERt5wH3ffPJj2gzGt5C9+hw+mbsGlimLYxZO4fvxYIlpX8edXp1BwxIbZLDqSNjriM4fx8B/uxjb/VT5avI3KWi+6KCMm02AeePoBRmaaKF09jXcnz+VgpReVxSBCbw6TfvljJlyQjUE0oaN71vPVx5+zs7IBTVw6V9x+F5cM6Y26pZoZ//ojiw/bxShWDF/D5Y3M5Mbbf8xNF3UVnWAFayd/wpcbdtMq0r4evcYy8ZYbyQru5Y233mNTrYkxtz/OXUn7ee2dTyj0ZnDNj3/PXcNTcNt2iXp4gw0FrVjSenLDNXcycnB22+95pxIQWZ3d2f75KkXnbjQpRSAP0mz79lfAaBGfsUoEa2sQd1A816zAIzJCf3ty10atUYg6Ov1vxt8I0Vy6m/lffMjKPTUoLDlcdvMDjO8fz6b3/8qSqiD9Bl/AwXWLqXdrGTnhJq6/Ygzx4ZM9OrYQtv2jv1PU91auHxAeyIg44LCyft7nLJy/hjKvn6xBFzLpthsZnB5P7fYvePOTmahH/5q7u3n56F9/Za8rhhG3/YpHruwtXl/JzA9eZu7qo6ii0rh8wl1cOqIPUSJYh1XlN/Hie82YL4njtzdY2i7NCHjsbPj8T7w5e29bu4rtdhl/fvwm0hMi2l5zJgeXLmb7/nz27ynlsN0pAsRwfnTf7fTvltBWf6FgOTPff4W5a04sj4kGVr/3Dl/kF+DQp9N/XDq1s3cQdcO9/OjWC0nUuTi8cxqvvjafOo8IWiMncOMlV5KXZ8HvaGXd3GksXLCGclE/2W31M4lB6XFnHcj+pzz2cgr3fMwRMWjwqTNI7Xkz/bsMPvulLR2ZoSd8WVcHtfiQTQaRX3oC2FygEe06/O9wRm9vCRIU7U8n2pbruNccE27f4XjvCR/pEi8xRrS3Z5dozx7RniPEYP4MQ7hOSQbD75Oo2rbKbTv08001f3O4S6wXi4/9u+2jEH8fWxt2wsdz3LpTfWzfbDesfdvHnLCPU2hbL9Z9a+0Z93ncYRvhxPXfrDv1Po977Un7/XZZ25978r/DTti2WHhskz9IJ7zPjvdwbFn7Gwz/1ebEzzKslQVPP0fDJQ9wy/D2YNju1J9zWHvdnL7uvt53m+OWdzj2khOWn/CaE/d3Nid8VsK3Xnu68py0z2O+/V7bnbjd09fP9+ebff7f7E/6LshgKEk/UAGfl1UfPsOs7WW4A2pM8f258ye3MTgzUoSKH5BQEJ/X2/a79Lc7EwUqtQatVnMOGbQknT8yGErSD1QoGKShrIhqa/hMGg2WxBTS4i2of2hRxVPH2unv8/6srXz70nct6b0v5Se/vp8eZz+aKknnjQyGkiT91/weBw6nl+N+Uv2GQoPZYm47EUuSfqhkMJQkSZI6PTlWkyRJkjo9GQzPt1AQV0sjdc1O5LWwkiRJ54c8THq+ORtY8d7LTGkdxjNPTZA3zz2BjcaK3Vi97o6zFGOIS+tFhFb3wzqbUpKk/3kyGJ5vXjuHN61ggy2bayf0xdKxOMx2aBcrlq+n1C7CQEYqweQ8Jg7oSpxZi6f2AJurFPTvnkek4dwvnw16HZQc3Ik9dhD9Uw0dS3+Y/N58Vk95DmtiBhEaLSp1D7oNuZ4U8w/s0gJJkv7nyWB4PoX8uJzhmd+VaHThaWm+CWqhuj1Mnr4JvTGCkNZHddEaPm7oyqe/f5heiTrqtnzOy1tD3H7dteTG6VCLbEmrUYkgESLo9+Hx+gmKj1ah0qDTatqmfgrvz1ZzhCVfvEZZj1/y4xGxKBRqdOGpodqiSwCPy91xlxUlao1OvPbcj6SH7/ASvp+iRifeT/itBEPU72zmHx/bsTpPbGZpAyzcc0c02We4f7Hfu42NM5eQfOWDZBnMKJTifapOLE/4vo3hferEPs90qyxJkqQzkcHwPPLUbuHNZ95l1QE7vS69n1/88pKvb3jsOLiIP723lREXT6Bflyh8Zet5dQ88cuNlaA8v5Jk/v8HaJhV56UnoNRH0vuhWHrr/KlI1Do5un8sb76+muKkRc+4gbrj8eq4a342g2N/rf32d2evWYY/qSVaMHkv8AO79/eOMyzTTUr+V6R98wIpttfgC0fQddS2333wReakmETQ7CnYGe2ZU8qcpLi54MJ0nr9KJxiUSX6uXg0e//WuoIUpNWoomPHvNafm9u9g4669UiOGCihhiE6+i/8AribXo2zLDgIjaK6ZX8ucv/Nz4aDI/v/jcJr6VJEk6mQyG55PI1By2enYvnc+aLTHc8/wNJB9bFfRzZO0cpi6fz76iIAmJ2eRdeTG3jBtGrNZP+ZpP+NcONXdeO4Hs2PAhRD0ms0EEDS9N5VvYmF+HK+imuXArBwu78pPPHiJPZH6tFcXM//Jtans8xr0XhCdxUWGMtKAL2vnq9dc5FIolMyWqLZNsLs+nVHMZv3tgHBFnilodCubU8K85bgbcmcIjF7bPruFtcLN5nw+RqJ7AFKehVw8RjI/dIvWUAvg9dnwdswA0HfyAg6pLGd2zV9vkrgGRFa6bW8OL8/xc96NE7ht5xo1JkiSdljywdD4p1JgskURHmTl58uy6wmJakobw86c/ZOpn7/HUbZnsXb6O+jo7CpUIIpERGIxGIqOiiY6OxhIhAqFIxVwtxaz7bDYbtqxi6/ad7K1qpMbhbT9TVezPKPZnEYFNb45qe110tAiE4VZgL2T3roMcPLCH7du3snXrFg7VaYgytc+pdi56XZPEex9k8fC4jmmmgiGsVW6WLbOydOmJj/x9Hlo97U87PRVqXSQGQ7R4RBEfF01D8xGx2fZMU6VRMu6GFOZ+lMG9I2QglCTpPyencDqP/B4XLo+T2sMHKCwO0W10LvqQEo3IeoqWf8kr0zaQnNqdmCg1AVctxY1a+vbrTUyEFnfdfjbtrqNrl2wUzgKmf/wV9cEYzI69zPjAxg1/fJJJowYRZS1l634FI24aRoJKSdBro2THGuqVPeid7mHbqunMXNJArwt6Eqyrh8zR3PnALUy4eDz9cvUU1yvok5d2+ilvjnNoWR3/eL2JapGh9s8Qz1coMCbqGX+RhUsuOfExrK+eyLPEr6bS+RQcLUKvjSfoLqNg93Q8EaPJS81oy1wDXh+LXq3m/WUuoruZSZW3+5Ik6T8kg+F5tO3LN/jHP19h9qp89h3exeoVS8kvUTJqYBecVVXY6grYunQun8yYzqp9Di6ecB0Duya0BQKNRU3Fnvl88vFUFq3fR3TWaC4c1o9YiwXXkU0im/yI6Yu30xKrw75zB6X+KHr16UqkUYHff4S5n7zN1K+WUulLZMzw8eTmJJGSkUpz4Xq+eOMNPprxBTsrPAweO5o+mfHndPbm0c3NTF3iwtzHwrju6v/6jE+lxoC1Zh37drzDnsI1eKLGMqTvRUQZ2jNPV6mVZ59pprqLhQcuNnCmOVslSZLORP5meB6FM0OH033i/RxVOqItRoJ+P16vG7/Pjy8YQqFUYTSa0X59g8cQXo8Dp9PXdg2ezmBumwE8fKJLwO3A7grfJ1JkmSJwKMJniKr1mMO/KYYjVMiLzepoO2tUpdFhNhpRdmzWL/bpdLjaDqsqVRqM5vDkvud2NP3YfIFKg5KIc5jw9VyEJ0z1eV3ivShQqg1o1bqvT+bZ+1k5v54Z4ifPpnJ113O/vESSJOlkMhhK/7P2L29mv87A1SP0bROZSpIk/adkMJQkSZI6PXk2qSRJktTpyWAoSZIkdXoyGEqSJEmdngyGkiRJUqcnT6AR/J4AjXUBnCfdMkxUD3GJSqz1AbxBBdFJaiINCrx2P3X1QcJP12rB54NjtajQi+dFi+eJ/59dCGutjyZXx+u1SlLEPnRieUuTn2b7tz8aQ4yGRIvinO4VKkmSJJ0bGQxF4KkrtPPu36uZvNZHfE89SWYlQbuPQ6Uq7v9zBIent7Is38+Y36Xwt7vNNKxt4Be/bKA+0ciQnkG2rnHji9HRLUVFSATPfoOjuPMqC5kxZ45YfrePxa/X8NYsG3sbFAy8Mo4/PxlDH6OfWZ/W8dKbVhqNWnpkqtCoQtQUeci8O503HzZ/Z9fxSZIkSfIONIICU5yOPhmQv8nPtX9N5OIsDT2zVFQW++hzVwI3D1exfVYDs3b56TbEwuBsNYe3Oci7O4mf32GmapuTvPtSefv38VyQoGDZm3XsUesZ3l9Lx106T0mpVpHX30iC1cF6v4nn/5bEoGQlCp2ankN0+Lc48A6N4+dXG8gdYSSxyk1NlJGrRujQneP9QiVJkqSzk78ZdggfdvT7PHz6t2p+/qtq5ldp+MmfExmXpUYj1ikyjFySEWDGK3WsPxogFI5F4eXhR8cGVCJAZfQ0cukQJbu3OKl1h1ecmSL8X8d2wlMOfk38HQqEKJhTz29+WcXkBT6GPJLEI9caMWmPf6IkSZL035LB8DgqlYZREyxcOERPXIqWrG5aLMcysCgNV/wojr42J2+830K5o33xyZQiqhkMSrzeIP5v/Qb571GI6Jg+MIJLxxpIiNbQ9YIIhvXUnBg0JUmSpP+aDIbHUSiV9BgZzTPvZfH7kSGe+2kpz8z14PS1r49KNnPfIxbq8luYtfbUkc7v8FFSFcQUp8b4X94iLJwtRucaefTZTJ79qeXriX8lSZKk75b8zVCwVrtY9Hkj8zZ6aHYFqSp2syPfzsoNTiJ6mzEWWZmz2kVMHwsXXRhBmtvB6pVB+l0n1pXYmT3PToU1RONhF6uWWNnZqOPOH8UwJO3M0TAUDLBrfhNfzLex9XCAkF5D9+4aIkMBtq9q5tMv7BQ3hNAbVGT00BN58qSHkiRJ0ndCnk0quJq9bFvvoPKkQ59KlYL0Xga0ZU6KWyCll4khPTT4mzxsXukhYagedbWbfeXBtpkjwjThk18GmeiRcfakO+gPUCyC7q6O16ujtYwaaSRJG+TATge7S9snsTXHahk2xkScnL9WkiTpeyGDoSRJktTpyd8MJUmSpE5PZobfk9ajThYvt1PZ2rHgJKZ0PVdeEkF6lDw1VJIk6XyTwfB7Yq92k7/NRZ29Y8FJjElahg02khghg6H0/9q5YxUEoSgO4//BpaUxcGgKXF164h4jFHoAlxBqUAQjiAKXiy4lVxeJ1hI0uN9vPMNZv+HAATA3YggAcB43QwCA84ghAMB5v8Wwe6m45IrLu4wdZm9Wj+qq/SnXbeQ7MgAApvB1DG1b63BMFJmFtuuVlp8buqfSc6Jd1igMNvK9YQ4AwN+Setvssu3FMbHTAAAAAElFTkSuQmCC;clipPath=inset(0% 10.56% 0% 0%);imageBorder=default;" vertex="1" parent="1">
          <mxGeometry x="30" y="160" width="304.8" height="360" as="geometry" />
        </mxCell>
        <mxCell id="9Dmww1gpKmQdiyRFmf3V-4" value="" style="endArrow=classic;html=1;rounded=0;strokeWidth=3;" edge="1" parent="1">
          <mxGeometry width="50" height="50" relative="1" as="geometry">
            <mxPoint x="360" y="360" as="sourcePoint" />
            <mxPoint x="460" y="360" as="targetPoint" />
          </mxGeometry>
        </mxCell>
        <mxCell id="9Dmww1gpKmQdiyRFmf3V-5" value="Ursprünglicher Aufbau mit strukturiertem Text" style="text;html=1;align=center;verticalAlign=middle;whiteSpace=wrap;rounded=0;" vertex="1" parent="1">
          <mxGeometry x="32.4" y="130" width="300" height="30" as="geometry" />
        </mxCell>
        <mxCell id="9Dmww1gpKmQdiyRFmf3V-6" value="Aufbau mit Schrittablauf (SFC)" style="text;html=1;align=center;verticalAlign=middle;whiteSpace=wrap;rounded=0;" vertex="1" parent="1">
          <mxGeometry x="480" y="130" width="300" height="30" as="geometry" />
        </mxCell>
      </root>
    </mxGraphModel>
  </diagram>
</mxfile>
